<svg width="117" height="34" viewBox="0 0 117 34" fill="none" xmlns="http://www.w3.org/2000/svg">
<path d="M6 19.7917C6 12.1181 12.2207 5.89746 19.8943 5.89746H102.894C110.568 5.89746 116.789 12.1181 116.789 19.7917C116.789 27.4653 110.568 33.686 102.894 33.686H19.8943C12.2207 33.686 6 27.4653 6 19.7917Z" fill="#FFB128"/>
<path fill-rule="evenodd" clip-rule="evenodd" d="M14.6724 17.5344C14.6724 16.3502 15.6324 15.3901 16.8167 15.3901H24.3406C25.5248 15.3901 26.4849 16.3502 26.4849 17.5344V22.0488C26.4849 23.233 25.5248 24.1931 24.3406 24.1931H16.8167C15.6324 24.1931 14.6724 23.233 14.6724 22.0488V17.5344ZM22.2179 19.4585C22.461 19.614 22.461 19.9691 22.2179 20.1246L20.0498 21.5108C19.7867 21.679 19.4416 21.49 19.4416 21.1778V18.4054C19.4416 18.0931 19.7867 17.9041 20.0498 18.0724L22.2179 19.4585Z" fill="white"/>
<path d="M35.214 22.2915L32.8886 16.0403H33.9143L35.8683 21.4957L37.8135 16.0403H38.8215L36.5138 22.2915H35.214ZM39.4876 22.2915V17.6319H40.3983V22.2915H39.4876ZM39.9385 17.0129C39.7617 17.0129 39.6173 16.9599 39.5053 16.8538C39.3992 16.7418 39.3461 16.6003 39.3461 16.4294C39.3461 16.2584 39.4021 16.1199 39.5141 16.0138C39.6261 15.9018 39.7676 15.8458 39.9385 15.8458C40.0977 15.8458 40.2362 15.9018 40.3541 16.0138C40.4779 16.1199 40.5398 16.2584 40.5398 16.4294C40.5398 16.6003 40.4808 16.7418 40.3629 16.8538C40.2509 16.9599 40.1095 17.0129 39.9385 17.0129ZM43.4087 22.3446C42.943 22.3446 42.5569 22.2414 42.2504 22.0351C41.9498 21.8229 41.7228 21.537 41.5696 21.1774C41.4222 20.8179 41.3485 20.4141 41.3485 19.9661C41.3485 19.5122 41.4252 19.1055 41.5784 18.7459C41.7317 18.3805 41.9645 18.0946 42.2769 17.8883C42.5893 17.6761 42.9843 17.57 43.4617 17.57C43.6386 17.57 43.8154 17.5906 43.9922 17.6319C44.175 17.6731 44.343 17.738 44.4962 17.8264C44.6554 17.9089 44.7909 18.0209 44.9029 18.1624V16.0403H45.8136V22.2915H44.9383L44.9029 21.6549C44.7968 21.814 44.6642 21.9467 44.5051 22.0528C44.3518 22.153 44.1809 22.2267 43.9922 22.2738C43.8036 22.321 43.6091 22.3446 43.4087 22.3446ZM43.559 21.5311C43.8596 21.5311 44.1072 21.4574 44.3017 21.3101C44.5021 21.1627 44.6524 20.9682 44.7526 20.7265C44.8528 20.4848 44.9029 20.2225 44.9029 19.9396C44.9029 19.6508 44.8528 19.3914 44.7526 19.1615C44.6583 18.9257 44.5109 18.74 44.3105 18.6045C44.116 18.463 43.8655 18.3923 43.559 18.3923C43.2407 18.3923 42.9872 18.4659 42.7986 18.6133C42.61 18.7548 42.4714 18.9464 42.383 19.188C42.3005 19.4297 42.2592 19.695 42.2592 19.9838C42.2592 20.196 42.2828 20.3964 42.33 20.585C42.3771 20.7678 42.4508 20.9328 42.551 21.0802C42.6571 21.2216 42.7927 21.3336 42.9577 21.4162C43.1228 21.4928 43.3232 21.5311 43.559 21.5311ZM48.9819 22.3446C48.4927 22.3446 48.083 22.2443 47.7529 22.0439C47.4228 21.8435 47.1723 21.5665 47.0013 21.2128C46.8363 20.8532 46.7538 20.4406 46.7538 19.9749C46.7538 19.5034 46.8392 19.0878 47.0102 18.7283C47.187 18.3687 47.4405 18.0858 47.7706 17.8794C48.1066 17.6731 48.5103 17.57 48.9819 17.57C49.3415 17.57 49.6539 17.6378 49.9191 17.7733C50.1844 17.903 50.4025 18.0799 50.5734 18.3038C50.7503 18.5278 50.88 18.7784 50.9625 19.0554C51.045 19.3266 51.0804 19.6095 51.0686 19.9042C51.0686 19.9691 51.0656 20.0309 51.0597 20.0899C51.0538 20.1488 51.0479 20.2107 51.0421 20.2756H47.6733C47.691 20.5114 47.75 20.7265 47.8502 20.921C47.9563 21.1155 48.1036 21.2717 48.2923 21.3896C48.4809 21.5016 48.7137 21.5576 48.9908 21.5576C49.144 21.5576 49.2914 21.54 49.4328 21.5046C49.5802 21.4633 49.7099 21.4014 49.8219 21.3189C49.9398 21.2305 50.0223 21.1185 50.0695 20.9829H50.989C50.9124 21.2953 50.7739 21.5547 50.5734 21.761C50.3789 21.9614 50.1402 22.1088 49.8573 22.2031C49.5802 22.2974 49.2884 22.3446 48.9819 22.3446ZM47.691 19.5505H50.1667C50.1608 19.3207 50.1078 19.1173 50.0076 18.9405C49.9074 18.7577 49.7688 18.6163 49.592 18.5161C49.4152 18.4099 49.203 18.3569 48.9554 18.3569C48.6842 18.3569 48.4573 18.4129 48.2746 18.5249C48.0977 18.6369 47.9592 18.7843 47.859 18.967C47.7647 19.1438 47.7087 19.3383 47.691 19.5505ZM54.0856 22.3446C53.6022 22.3446 53.1925 22.2473 52.8566 22.0528C52.5206 21.8524 52.2642 21.5724 52.0873 21.2128C51.9164 20.8532 51.8309 20.4377 51.8309 19.9661C51.8309 19.4887 51.9193 19.0731 52.0962 18.7194C52.273 18.3598 52.5294 18.0799 52.8654 17.8794C53.2014 17.6731 53.6111 17.57 54.0944 17.57C54.5778 17.57 54.9874 17.6731 55.3234 17.8794C55.6594 18.0799 55.9129 18.3598 56.0838 18.7194C56.2548 19.079 56.3402 19.4975 56.3402 19.9749C56.3402 20.4406 56.2518 20.8532 56.075 21.2128C55.904 21.5724 55.6506 21.8524 55.3146 22.0528C54.9845 22.2473 54.5748 22.3446 54.0856 22.3446ZM54.0856 21.5311C54.4039 21.5311 54.6603 21.4604 54.8548 21.3189C55.0552 21.1774 55.2026 20.9888 55.2969 20.753C55.3912 20.5114 55.4384 20.249 55.4384 19.9661C55.4384 19.6832 55.3912 19.4238 55.2969 19.188C55.2026 18.9522 55.0552 18.7636 54.8548 18.6222C54.6603 18.4748 54.4039 18.4011 54.0856 18.4011C53.7732 18.4011 53.5167 18.4748 53.3163 18.6222C53.1159 18.7636 52.9686 18.9522 52.8742 19.188C52.7858 19.4238 52.7416 19.6832 52.7416 19.9661C52.7416 20.2549 52.7858 20.5172 52.8742 20.753C52.9686 20.9888 53.1159 21.1774 53.3163 21.3189C53.5167 21.4604 53.7732 21.5311 54.0856 21.5311ZM62.4598 22.3622C61.8114 22.3622 61.2691 22.2267 60.8329 21.9555C60.4026 21.6844 60.0784 21.3101 59.8603 20.8326C59.6422 20.3493 59.5332 19.7981 59.5332 19.1792C59.5332 18.7135 59.5921 18.2862 59.71 17.8971C59.8338 17.5022 60.0165 17.1603 60.2582 16.8715C60.4999 16.5826 60.8005 16.3616 61.1601 16.2083C61.5255 16.0492 61.947 15.9696 62.4244 15.9696C62.8901 15.9696 63.2998 16.0433 63.6534 16.1907C64.0071 16.3321 64.2989 16.5384 64.5288 16.8096C64.7646 17.0807 64.9237 17.4079 65.0062 17.791H64.016C63.9629 17.5847 63.8627 17.4108 63.7153 17.2694C63.5739 17.1279 63.3941 17.0188 63.176 16.9422C62.9638 16.8656 62.7221 16.8273 62.451 16.8273C62.0973 16.8273 61.7967 16.8892 61.5491 17.0129C61.3015 17.1367 61.0982 17.3077 60.939 17.5258C60.7857 17.738 60.6738 17.9855 60.603 18.2685C60.5323 18.5514 60.4969 18.852 60.4969 19.1703C60.4969 19.5948 60.5647 19.9838 60.7003 20.3375C60.8359 20.6911 61.0481 20.9741 61.3369 21.1863C61.6257 21.3985 62.003 21.5046 62.4686 21.5046C62.8282 21.5046 63.1377 21.4427 63.397 21.3189C63.6564 21.1892 63.8598 21.0065 64.0071 20.7707C64.1545 20.529 64.2311 20.2373 64.237 19.8954H62.3006V19.0731H65.1565V19.5329C65.1565 20.1046 65.0504 20.6027 64.8382 21.0271C64.626 21.4515 64.3195 21.7816 63.9187 22.0174C63.5179 22.2473 63.0316 22.3622 62.4598 22.3622ZM68.1507 22.3446C67.6614 22.3446 67.2518 22.2443 66.9217 22.0439C66.5916 21.8435 66.3411 21.5665 66.1701 21.2128C66.0051 20.8532 65.9225 20.4406 65.9225 19.9749C65.9225 19.5034 66.008 19.0878 66.179 18.7283C66.3558 18.3687 66.6093 18.0858 66.9393 17.8794C67.2753 17.6731 67.6791 17.57 68.1507 17.57C68.5102 17.57 68.8227 17.6378 69.0879 17.7733C69.3532 17.903 69.5713 18.0799 69.7422 18.3038C69.919 18.5278 70.0487 18.7784 70.1312 19.0554C70.2138 19.3266 70.2491 19.6095 70.2373 19.9042C70.2373 19.9691 70.2344 20.0309 70.2285 20.0899C70.2226 20.1488 70.2167 20.2107 70.2108 20.2756H66.8421C66.8598 20.5114 66.9187 20.7265 67.0189 20.921C67.125 21.1155 67.2724 21.2717 67.461 21.3896C67.6496 21.5016 67.8825 21.5576 68.1595 21.5576C68.3128 21.5576 68.4601 21.54 68.6016 21.5046C68.749 21.4633 68.8787 21.4014 68.9906 21.3189C69.1085 21.2305 69.1911 21.1185 69.2382 20.9829H70.1578C70.0811 21.2953 69.9426 21.5547 69.7422 21.761C69.5477 21.9614 69.309 22.1088 69.026 22.2031C68.749 22.2974 68.4572 22.3446 68.1507 22.3446ZM66.8598 19.5505H69.3355C69.3296 19.3207 69.2765 19.1173 69.1763 18.9405C69.0761 18.7577 68.9376 18.6163 68.7608 18.5161C68.5839 18.4099 68.3717 18.3569 68.1242 18.3569C67.853 18.3569 67.6261 18.4129 67.4433 18.5249C67.2665 18.6369 67.128 18.7843 67.0278 18.967C66.9335 19.1438 66.8775 19.3383 66.8598 19.5505ZM71.1765 22.2915V17.6319H72.043L72.0872 18.2862C72.2051 18.1152 72.3466 17.9796 72.5116 17.8794C72.6767 17.7733 72.8535 17.6967 73.0421 17.6496C73.2308 17.5965 73.4135 17.57 73.5903 17.57C74.0383 17.57 74.389 17.6672 74.6425 17.8618C74.9019 18.0504 75.0846 18.3068 75.1907 18.631C75.3027 18.9493 75.3587 19.3118 75.3587 19.7185V22.2915H74.4391V19.9042C74.4391 19.7156 74.4273 19.5299 74.4038 19.3472C74.3802 19.1645 74.3301 19.0024 74.2535 18.8609C74.1827 18.7135 74.0796 18.5986 73.944 18.5161C73.8084 18.4276 73.6257 18.3834 73.3958 18.3834C73.1129 18.3834 72.8741 18.4601 72.6796 18.6133C72.4851 18.7666 72.3377 18.9729 72.2375 19.2322C72.1373 19.4916 72.0872 19.7834 72.0872 20.1076V22.2915H71.1765ZM78.4949 22.3446C78.0057 22.3446 77.596 22.2443 77.2659 22.0439C76.9358 21.8435 76.6853 21.5665 76.5143 21.2128C76.3493 20.8532 76.2668 20.4406 76.2668 19.9749C76.2668 19.5034 76.3522 19.0878 76.5232 18.7283C76.7 18.3687 76.9535 18.0858 77.2836 17.8794C77.6196 17.6731 78.0233 17.57 78.4949 17.57C78.8545 17.57 79.1669 17.6378 79.4321 17.7733C79.6974 17.903 79.9155 18.0799 80.0864 18.3038C80.2633 18.5278 80.3929 18.7784 80.4755 19.0554C80.558 19.3266 80.5934 19.6095 80.5816 19.9042C80.5816 19.9691 80.5786 20.0309 80.5727 20.0899C80.5668 20.1488 80.5609 20.2107 80.555 20.2756H77.1863C77.204 20.5114 77.2629 20.7265 77.3631 20.921C77.4692 21.1155 77.6166 21.2717 77.8052 21.3896C77.9939 21.5016 78.2267 21.5576 78.5037 21.5576C78.657 21.5576 78.8044 21.54 78.9458 21.5046C79.0932 21.4633 79.2229 21.4014 79.3349 21.3189C79.4528 21.2305 79.5353 21.1185 79.5824 20.9829H80.502C80.4254 21.2953 80.2868 21.5547 80.0864 21.761C79.8919 21.9614 79.6532 22.1088 79.3702 22.2031C79.0932 22.2974 78.8014 22.3446 78.4949 22.3446ZM77.204 19.5505H79.6797C79.6738 19.3207 79.6208 19.1173 79.5205 18.9405C79.4203 18.7577 79.2818 18.6163 79.105 18.5161C78.9281 18.4099 78.7159 18.3569 78.4684 18.3569C78.1972 18.3569 77.9703 18.4129 77.7876 18.5249C77.6107 18.6369 77.4722 18.7843 77.372 18.967C77.2777 19.1438 77.2217 19.3383 77.204 19.5505ZM81.5207 22.2915V17.6319H82.3784L82.4226 18.3038C82.5405 18.1211 82.6761 17.9767 82.8293 17.8706C82.9826 17.7645 83.1506 17.6879 83.3333 17.6407C83.516 17.5936 83.7076 17.57 83.908 17.57C83.9611 17.57 84.0112 17.57 84.0583 17.57C84.1055 17.57 84.1497 17.57 84.191 17.57V18.4453H83.908C83.572 18.4453 83.292 18.5131 83.068 18.6487C82.85 18.7843 82.6879 18.9729 82.5818 19.2146C82.4815 19.4562 82.4314 19.7333 82.4314 20.0457V22.2915H81.5207ZM86.365 22.3446C86.1528 22.3446 85.9465 22.318 85.7461 22.265C85.5516 22.206 85.3777 22.1206 85.2244 22.0086C85.0712 21.8907 84.9474 21.7463 84.8531 21.5753C84.7646 21.3985 84.7204 21.1922 84.7204 20.9564C84.7204 20.6735 84.7735 20.4406 84.8796 20.2579C84.9916 20.0693 85.1389 19.9248 85.3217 19.8246C85.5044 19.7185 85.7137 19.6449 85.9494 19.6036C86.1911 19.5564 86.4416 19.5329 86.701 19.5329H87.8416C87.8416 19.303 87.8062 19.1026 87.7355 18.9316C87.6648 18.7548 87.5528 18.6192 87.3995 18.5249C87.2521 18.4247 87.0547 18.3746 86.8071 18.3746C86.6597 18.3746 86.5183 18.3923 86.3827 18.4276C86.253 18.4571 86.141 18.5072 86.0467 18.5779C85.9524 18.6487 85.8876 18.743 85.8522 18.8609H84.8973C84.9326 18.6369 85.0122 18.4453 85.136 18.2862C85.2598 18.1211 85.413 17.9855 85.5958 17.8794C85.7785 17.7733 85.973 17.6967 86.1793 17.6496C86.3915 17.5965 86.6067 17.57 86.8248 17.57C87.4968 17.57 87.9801 17.7674 88.2748 18.1624C88.5755 18.5514 88.7258 19.0878 88.7258 19.7716V22.2915H87.9389L87.9035 21.6991C87.7679 21.8818 87.6058 22.0204 87.4172 22.1147C87.2345 22.209 87.0517 22.2709 86.869 22.3003C86.6863 22.3298 86.5183 22.3446 86.365 22.3446ZM86.5065 21.5753C86.7717 21.5753 87.0046 21.5311 87.205 21.4427C87.4054 21.3484 87.5616 21.2158 87.6736 21.0448C87.7856 20.868 87.8416 20.6617 87.8416 20.4259V20.2314H87.0105C86.8395 20.2314 86.6715 20.2373 86.5065 20.249C86.3473 20.2549 86.2 20.2785 86.0644 20.3198C85.9347 20.3551 85.8286 20.417 85.7461 20.5055C85.6695 20.5939 85.6311 20.7206 85.6311 20.8857C85.6311 21.0448 85.6724 21.1745 85.7549 21.2747C85.8374 21.3749 85.9465 21.4515 86.0821 21.5046C86.2176 21.5517 86.3591 21.5753 86.5065 21.5753ZM91.6223 22.3446C91.1213 22.3446 90.7617 22.209 90.5436 21.9378C90.3314 21.6608 90.2253 21.2747 90.2253 20.7796V18.4453H89.4826V17.6319H90.2253V16.2791H91.136V17.6319H92.5595V18.4453H91.136V20.6292C91.136 20.7943 91.1507 20.9446 91.1802 21.0802C91.2156 21.2158 91.2804 21.3219 91.3747 21.3985C91.469 21.4751 91.6046 21.5164 91.7814 21.5223C91.917 21.5223 92.0349 21.4987 92.1351 21.4515C92.2412 21.4044 92.3267 21.3513 92.3915 21.2924L92.7452 21.9732C92.6332 22.0616 92.5153 22.1353 92.3915 22.1942C92.2736 22.2473 92.1499 22.2856 92.0202 22.3092C91.8905 22.3328 91.7579 22.3446 91.6223 22.3446ZM95.4797 22.3446C94.9964 22.3446 94.5867 22.2473 94.2507 22.0528C93.9147 21.8524 93.6583 21.5724 93.4815 21.2128C93.3105 20.8532 93.2251 20.4377 93.2251 19.9661C93.2251 19.4887 93.3135 19.0731 93.4903 18.7194C93.6672 18.3598 93.9236 18.0799 94.2596 17.8794C94.5956 17.6731 95.0052 17.57 95.4886 17.57C95.9719 17.57 96.3816 17.6731 96.7176 17.8794C97.0536 18.0799 97.307 18.3598 97.478 18.7194C97.6489 19.079 97.7344 19.4975 97.7344 19.9749C97.7344 20.4406 97.646 20.8532 97.4691 21.2128C97.2982 21.5724 97.0447 21.8524 96.7087 22.0528C96.3787 22.2473 95.969 22.3446 95.4797 22.3446ZM95.4797 21.5311C95.798 21.5311 96.0545 21.4604 96.249 21.3189C96.4494 21.1774 96.5968 20.9888 96.6911 20.753C96.7854 20.5114 96.8325 20.249 96.8325 19.9661C96.8325 19.6832 96.7854 19.4238 96.6911 19.188C96.5968 18.9522 96.4494 18.7636 96.249 18.6222C96.0545 18.4748 95.798 18.4011 95.4797 18.4011C95.1673 18.4011 94.9109 18.4748 94.7105 18.6222C94.5101 18.7636 94.3627 18.9522 94.2684 19.188C94.18 19.4238 94.1358 19.6832 94.1358 19.9661C94.1358 20.2549 94.18 20.5172 94.2684 20.753C94.3627 20.9888 94.5101 21.1774 94.7105 21.3189C94.9109 21.4604 95.1673 21.5311 95.4797 21.5311ZM98.669 22.2915V17.6319H99.5267L99.5709 18.3038C99.6888 18.1211 99.8243 17.9767 99.9776 17.8706C100.131 17.7645 100.299 17.6879 100.482 17.6407C100.664 17.5936 100.856 17.57 101.056 17.57C101.109 17.57 101.159 17.57 101.207 17.57C101.254 17.57 101.298 17.57 101.339 17.57V18.4453H101.056C100.72 18.4453 100.44 18.5131 100.216 18.6487C99.9982 18.7843 99.8361 18.9729 99.73 19.2146C99.6298 19.4562 99.5797 19.7333 99.5797 20.0457V22.2915H98.669Z" fill="white"/>
<path d="M2.77405 8.73533L1.00632 2.13173C0.73293 1.37357 1.45935 0.636499 2.2214 0.898826L8.94025 2.58241C10.1544 3.00037 10.2551 4.67853 9.09967 5.23872L8.38507 5.58517C7.1998 6.1598 6.2474 7.12346 5.68673 8.31539L5.43068 8.85973C4.88494 10.0199 3.20898 9.94146 2.77405 8.73533Z" fill="#FFB128"/>
</svg>
