<svg width="111" height="34" viewBox="0 0 111 34" fill="none" xmlns="http://www.w3.org/2000/svg">
<path d="M0 14.7917C0 7.11814 6.22067 0.897461 13.8943 0.897461H90.8943C98.5679 0.897461 104.789 7.11814 104.789 14.7917C104.789 22.4653 98.5679 28.686 90.8943 28.686H13.8943C6.22067 28.686 0 22.4653 0 14.7917Z" fill="#46B3F0"/>
<path fill-rule="evenodd" clip-rule="evenodd" d="M9.17542 19.6343L9.1761 19.6335L9.18136 19.6273C9.18633 19.6213 9.19416 19.6118 9.20449 19.5991C9.22518 19.5735 9.25581 19.5348 9.29358 19.4847C9.36927 19.3843 9.47268 19.2392 9.5816 19.0633C9.77742 18.7471 9.97827 18.3512 10.0791 17.9467C9.45004 17.0526 9.08057 15.9622 9.08057 14.7865C9.08057 11.7501 11.5421 9.28857 14.5785 9.28857C17.6149 9.28857 20.0764 11.7501 20.0764 14.7865C20.0764 17.8229 17.6149 20.2844 14.5785 20.2844C13.8906 20.2844 13.2315 20.1579 12.6236 19.9266C12.0075 20.1576 11.2421 20.2441 10.642 20.2765C10.3091 20.2945 10.0135 20.2964 9.80105 20.2938C9.69465 20.2925 9.60869 20.29 9.54883 20.2879C9.51889 20.2868 9.49545 20.2859 9.47922 20.2851L9.46035 20.2842L9.45513 20.284L9.45311 20.2838L9.47432 19.8907C9.45281 20.2838 9.45311 20.2838 9.45311 20.2838C9.30344 20.2757 9.17109 20.1832 9.11221 20.0453C9.05338 19.9076 9.07806 19.7481 9.17542 19.6343ZM12.0263 14.1303C11.6639 14.1303 11.3701 14.4242 11.3701 14.7866C11.3701 15.149 11.6639 15.4428 12.0263 15.4428H12.0322C12.3946 15.4428 12.6884 15.149 12.6884 14.7866C12.6884 14.4242 12.3946 14.1303 12.0322 14.1303H12.0263ZM14.5784 14.1303C14.216 14.1303 13.9222 14.4242 13.9222 14.7866C13.9222 15.149 14.216 15.4428 14.5784 15.4428H14.5843C14.9467 15.4428 15.2405 15.149 15.2405 14.7866C15.2405 14.4242 14.9467 14.1303 14.5843 14.1303H14.5784ZM17.1305 14.1303C16.7681 14.1303 16.4743 14.4242 16.4743 14.7866C16.4743 15.149 16.7681 15.4428 17.1305 15.4428H17.1363C17.4988 15.4428 17.7926 15.149 17.7926 14.7866C17.7926 14.4242 17.4988 14.1303 17.1363 14.1303H17.1305Z" fill="white"/>
<path d="M28.8743 17.2915V11.898H26.8937V11.0403H31.7832V11.898H29.8115V17.2915H28.8743ZM34.0672 17.3446C33.578 17.3446 33.1683 17.2443 32.8382 17.0439C32.5081 16.8435 32.2576 16.5665 32.0867 16.2128C31.9216 15.8532 31.8391 15.4406 31.8391 14.9749C31.8391 14.5034 31.9246 14.0878 32.0955 13.7283C32.2723 13.3687 32.5258 13.0858 32.8559 12.8794C33.1919 12.6731 33.5957 12.57 34.0672 12.57C34.4268 12.57 34.7392 12.6378 35.0045 12.7733C35.2697 12.903 35.4878 13.0799 35.6588 13.3038C35.8356 13.5278 35.9653 13.7784 36.0478 14.0554C36.1303 14.3266 36.1657 14.6095 36.1539 14.9042C36.1539 14.9691 36.1509 15.0309 36.1451 15.0899C36.1392 15.1488 36.1333 15.2107 36.1274 15.2756H32.7586C32.7763 15.5114 32.8353 15.7265 32.9355 15.921C33.0416 16.1155 33.1889 16.2717 33.3776 16.3896C33.5662 16.5016 33.799 16.5576 34.0761 16.5576C34.2293 16.5576 34.3767 16.54 34.5182 16.5046C34.6655 16.4633 34.7952 16.4014 34.9072 16.3189C35.0251 16.2305 35.1076 16.1185 35.1548 15.9829H36.0743C35.9977 16.2953 35.8592 16.5547 35.6588 16.761C35.4642 16.9614 35.2255 17.1088 34.9426 17.2031C34.6655 17.2974 34.3737 17.3446 34.0672 17.3446ZM32.7763 14.5505H35.252C35.2461 14.3207 35.1931 14.1173 35.0929 13.9405C34.9927 13.7577 34.8541 13.6163 34.6773 13.5161C34.5005 13.4099 34.2883 13.3569 34.0407 13.3569C33.7696 13.3569 33.5426 13.4129 33.3599 13.5249C33.183 13.6369 33.0445 13.7843 32.9443 13.967C32.85 14.1438 32.794 14.3383 32.7763 14.5505ZM36.5469 17.2915L38.2004 14.9131L36.6265 12.6319H37.7141L38.8104 14.303L39.8715 12.6319H40.9236L39.3586 14.9396L41.0386 17.2915H39.9599L38.7574 15.5939L37.5726 17.2915H36.5469ZM43.499 17.3446C42.998 17.3446 42.6384 17.209 42.4203 16.9378C42.2081 16.6608 42.102 16.2747 42.102 15.7796V13.4453H41.3593V12.6319H42.102V11.2791H43.0127V12.6319H44.4362V13.4453H43.0127V15.6292C43.0127 15.7943 43.0275 15.9446 43.0569 16.0802C43.0923 16.2158 43.1571 16.3219 43.2514 16.3985C43.3458 16.4751 43.4813 16.5164 43.6582 16.5223C43.7937 16.5223 43.9116 16.4987 44.0118 16.4515C44.1179 16.4044 44.2034 16.3513 44.2683 16.2924L44.6219 16.9732C44.5099 17.0616 44.392 17.1353 44.2683 17.1942C44.1504 17.2473 44.0266 17.2856 43.8969 17.3092C43.7672 17.3328 43.6346 17.3446 43.499 17.3446ZM50.4636 17.3622C49.8152 17.3622 49.2729 17.2267 48.8367 16.9555C48.4064 16.6844 48.0822 16.3101 47.8641 15.8326C47.646 15.3493 47.537 14.7981 47.537 14.1792C47.537 13.7135 47.5959 13.2862 47.7138 12.8971C47.8376 12.5022 48.0203 12.1603 48.262 11.8715C48.5037 11.5826 48.8043 11.3616 49.1639 11.2083C49.5293 11.0492 49.9508 10.9696 50.4282 10.9696C50.8939 10.9696 51.3036 11.0433 51.6572 11.1907C52.0109 11.3321 52.3027 11.5384 52.5326 11.8096C52.7684 12.0807 52.9275 12.4079 53.01 12.791H52.0198C51.9667 12.5847 51.8665 12.4108 51.7191 12.2694C51.5777 12.1279 51.3979 12.0188 51.1798 11.9422C50.9676 11.8656 50.7259 11.8273 50.4548 11.8273C50.1011 11.8273 49.8005 11.8892 49.5529 12.0129C49.3053 12.1367 49.102 12.3077 48.9428 12.5258C48.7895 12.738 48.6776 12.9855 48.6068 13.2685C48.5361 13.5514 48.5007 13.852 48.5007 14.1703C48.5007 14.5948 48.5685 14.9838 48.7041 15.3375C48.8397 15.6911 49.0519 15.9741 49.3407 16.1863C49.6295 16.3985 50.0068 16.5046 50.4724 16.5046C50.832 16.5046 51.1415 16.4427 51.4008 16.3189C51.6602 16.1892 51.8636 16.0065 52.0109 15.7707C52.1583 15.529 52.2349 15.2373 52.2408 14.8954H50.3044V14.0731H53.1604V14.5329C53.1604 15.1046 53.0542 15.6027 52.842 16.0271C52.6298 16.4515 52.3233 16.7816 51.9225 17.0174C51.5217 17.2473 51.0354 17.3622 50.4636 17.3622ZM56.1545 17.3446C55.6652 17.3446 55.2556 17.2443 54.9255 17.0439C54.5954 16.8435 54.3449 16.5665 54.1739 16.2128C54.0089 15.8532 53.9263 15.4406 53.9263 14.9749C53.9263 14.5034 54.0118 14.0878 54.1828 13.7283C54.3596 13.3687 54.6131 13.0858 54.9431 12.8794C55.2791 12.6731 55.6829 12.57 56.1545 12.57C56.514 12.57 56.8265 12.6378 57.0917 12.7733C57.357 12.903 57.5751 13.0799 57.746 13.3038C57.9228 13.5278 58.0525 13.7784 58.135 14.0554C58.2176 14.3266 58.2529 14.6095 58.2411 14.9042C58.2411 14.9691 58.2382 15.0309 58.2323 15.0899C58.2264 15.1488 58.2205 15.2107 58.2146 15.2756H54.8459C54.8636 15.5114 54.9225 15.7265 55.0227 15.921C55.1288 16.1155 55.2762 16.2717 55.4648 16.3896C55.6534 16.5016 55.8863 16.5576 56.1633 16.5576C56.3166 16.5576 56.4639 16.54 56.6054 16.5046C56.7528 16.4633 56.8825 16.4014 56.9944 16.3189C57.1123 16.2305 57.1949 16.1185 57.242 15.9829H58.1616C58.0849 16.2953 57.9464 16.5547 57.746 16.761C57.5515 16.9614 57.3128 17.1088 57.0298 17.2031C56.7528 17.2974 56.461 17.3446 56.1545 17.3446ZM54.8636 14.5505H57.3393C57.3334 14.3207 57.2803 14.1173 57.1801 13.9405C57.0799 13.7577 56.9414 13.6163 56.7646 13.5161C56.5877 13.4099 56.3755 13.3569 56.128 13.3569C55.8568 13.3569 55.6299 13.4129 55.4471 13.5249C55.2703 13.6369 55.1318 13.7843 55.0316 13.967C54.9373 14.1438 54.8813 14.3383 54.8636 14.5505ZM59.1803 17.2915V12.6319H60.0468L60.091 13.2862C60.2089 13.1152 60.3504 12.9796 60.5154 12.8794C60.6805 12.7733 60.8573 12.6967 61.0459 12.6496C61.2346 12.5965 61.4173 12.57 61.5941 12.57C62.0421 12.57 62.3928 12.6672 62.6463 12.8618C62.9057 13.0504 63.0884 13.3068 63.1945 13.631C63.3065 13.9493 63.3625 14.3118 63.3625 14.7185V17.2915H62.4429V14.9042C62.4429 14.7156 62.4311 14.5299 62.4076 14.3472C62.384 14.1645 62.3339 14.0024 62.2573 13.8609C62.1865 13.7135 62.0834 13.5986 61.9478 13.5161C61.8122 13.4276 61.6295 13.3834 61.3996 13.3834C61.1167 13.3834 60.8779 13.4601 60.6834 13.6133C60.4889 13.7666 60.3415 13.9729 60.2413 14.2322C60.1411 14.4916 60.091 14.7834 60.091 15.1076V17.2915H59.1803ZM66.4987 17.3446C66.0095 17.3446 65.5998 17.2443 65.2697 17.0439C64.9396 16.8435 64.6891 16.5665 64.5181 16.2128C64.3531 15.8532 64.2706 15.4406 64.2706 14.9749C64.2706 14.5034 64.356 14.0878 64.527 13.7283C64.7038 13.3687 64.9573 13.0858 65.2874 12.8794C65.6234 12.6731 66.0271 12.57 66.4987 12.57C66.8583 12.57 67.1707 12.6378 67.4359 12.7733C67.7012 12.903 67.9193 13.0799 68.0902 13.3038C68.2671 13.5278 68.3967 13.7784 68.4793 14.0554C68.5618 14.3266 68.5972 14.6095 68.5854 14.9042C68.5854 14.9691 68.5824 15.0309 68.5765 15.0899C68.5706 15.1488 68.5647 15.2107 68.5588 15.2756H65.1901C65.2078 15.5114 65.2667 15.7265 65.3669 15.921C65.473 16.1155 65.6204 16.2717 65.809 16.3896C65.9977 16.5016 66.2305 16.5576 66.5075 16.5576C66.6608 16.5576 66.8082 16.54 66.9496 16.5046C67.097 16.4633 67.2267 16.4014 67.3387 16.3189C67.4566 16.2305 67.5391 16.1185 67.5862 15.9829H68.5058C68.4292 16.2953 68.2906 16.5547 68.0902 16.761C67.8957 16.9614 67.657 17.1088 67.374 17.2031C67.097 17.2974 66.8052 17.3446 66.4987 17.3446ZM65.2078 14.5505H67.6835C67.6776 14.3207 67.6246 14.1173 67.5243 13.9405C67.4241 13.7577 67.2856 13.6163 67.1088 13.5161C66.9319 13.4099 66.7197 13.3569 66.4722 13.3569C66.201 13.3569 65.9741 13.4129 65.7914 13.5249C65.6145 13.6369 65.476 13.7843 65.3758 13.967C65.2815 14.1438 65.2255 14.3383 65.2078 14.5505ZM69.5245 17.2915V12.6319H70.3822L70.4264 13.3038C70.5443 13.1211 70.6799 12.9767 70.8331 12.8706C70.9864 12.7645 71.1544 12.6879 71.3371 12.6407C71.5198 12.5936 71.7114 12.57 71.9118 12.57C71.9649 12.57 72.015 12.57 72.0621 12.57C72.1093 12.57 72.1535 12.57 72.1948 12.57V13.4453H71.9118C71.5758 13.4453 71.2958 13.5131 71.0718 13.6487C70.8538 13.7843 70.6917 13.9729 70.5855 14.2146C70.4853 14.4562 70.4352 14.7333 70.4352 15.0457V17.2915H69.5245ZM74.3688 17.3446C74.1566 17.3446 73.9503 17.318 73.7499 17.265C73.5554 17.206 73.3815 17.1206 73.2282 17.0086C73.075 16.8907 72.9512 16.7463 72.8569 16.5753C72.7684 16.3985 72.7242 16.1922 72.7242 15.9564C72.7242 15.6735 72.7773 15.4406 72.8834 15.2579C72.9954 15.0693 73.1427 14.9248 73.3255 14.8246C73.5082 14.7185 73.7175 14.6449 73.9532 14.6036C74.1949 14.5564 74.4454 14.5329 74.7048 14.5329H75.8454C75.8454 14.303 75.81 14.1026 75.7393 13.9316C75.6686 13.7548 75.5566 13.6192 75.4033 13.5249C75.2559 13.4247 75.0585 13.3746 74.8109 13.3746C74.6635 13.3746 74.5221 13.3923 74.3865 13.4276C74.2568 13.4571 74.1448 13.5072 74.0505 13.5779C73.9562 13.6487 73.8913 13.743 73.856 13.8609H72.9011C72.9364 13.6369 73.016 13.4453 73.1398 13.2862C73.2636 13.1211 73.4168 12.9855 73.5996 12.8794C73.7823 12.7733 73.9768 12.6967 74.1831 12.6496C74.3953 12.5965 74.6105 12.57 74.8286 12.57C75.5006 12.57 75.9839 12.7674 76.2786 13.1624C76.5793 13.5514 76.7296 14.0878 76.7296 14.7716V17.2915H75.9426L75.9073 16.6991C75.7717 16.8818 75.6096 17.0204 75.421 17.1147C75.2382 17.209 75.0555 17.2709 74.8728 17.3003C74.6901 17.3298 74.5221 17.3446 74.3688 17.3446ZM74.5103 16.5753C74.7755 16.5753 75.0084 16.5311 75.2088 16.4427C75.4092 16.3484 75.5654 16.2158 75.6774 16.0448C75.7894 15.868 75.8454 15.6617 75.8454 15.4259V15.2314H75.0143C74.8433 15.2314 74.6753 15.2373 74.5103 15.249C74.3511 15.2549 74.2038 15.2785 74.0682 15.3198C73.9385 15.3551 73.8324 15.417 73.7499 15.5055C73.6732 15.5939 73.6349 15.7206 73.6349 15.8857C73.6349 16.0448 73.6762 16.1745 73.7587 16.2747C73.8412 16.3749 73.9503 16.4515 74.0859 16.5046C74.2214 16.5517 74.3629 16.5753 74.5103 16.5753ZM79.6261 17.3446C79.1251 17.3446 78.7655 17.209 78.5474 16.9378C78.3352 16.6608 78.2291 16.2747 78.2291 15.7796V13.4453H77.4864V12.6319H78.2291V11.2791H79.1398V12.6319H80.5633V13.4453H79.1398V15.6292C79.1398 15.7943 79.1545 15.9446 79.184 16.0802C79.2194 16.2158 79.2842 16.3219 79.3785 16.3985C79.4728 16.4751 79.6084 16.5164 79.7852 16.5223C79.9208 16.5223 80.0387 16.4987 80.1389 16.4515C80.245 16.4044 80.3305 16.3513 80.3953 16.2924L80.749 16.9732C80.637 17.0616 80.5191 17.1353 80.3953 17.1942C80.2774 17.2473 80.1537 17.2856 80.024 17.3092C79.8943 17.3328 79.7617 17.3446 79.6261 17.3446ZM83.4835 17.3446C83.0002 17.3446 82.5905 17.2473 82.2545 17.0528C81.9185 16.8524 81.6621 16.5724 81.4853 16.2128C81.3143 15.8532 81.2289 15.4377 81.2289 14.9661C81.2289 14.4887 81.3173 14.0731 81.4941 13.7194C81.671 13.3598 81.9274 13.0799 82.2634 12.8794C82.5994 12.6731 83.009 12.57 83.4924 12.57C83.9757 12.57 84.3854 12.6731 84.7214 12.8794C85.0574 13.0799 85.3108 13.3598 85.4818 13.7194C85.6527 14.079 85.7382 14.4975 85.7382 14.9749C85.7382 15.4406 85.6498 15.8532 85.4729 16.2128C85.302 16.5724 85.0485 16.8524 84.7125 17.0528C84.3825 17.2473 83.9728 17.3446 83.4835 17.3446ZM83.4835 16.5311C83.8018 16.5311 84.0583 16.4604 84.2528 16.3189C84.4532 16.1774 84.6006 15.9888 84.6949 15.753C84.7892 15.5114 84.8363 15.249 84.8363 14.9661C84.8363 14.6832 84.7892 14.4238 84.6949 14.188C84.6006 13.9522 84.4532 13.7636 84.2528 13.6222C84.0583 13.4748 83.8018 13.4011 83.4835 13.4011C83.1711 13.4011 82.9147 13.4748 82.7143 13.6222C82.5139 13.7636 82.3665 13.9522 82.2722 14.188C82.1838 14.4238 82.1396 14.6832 82.1396 14.9661C82.1396 15.2549 82.1838 15.5172 82.2722 15.753C82.3665 15.9888 82.5139 16.1774 82.7143 16.3189C82.9147 16.4604 83.1711 16.5311 83.4835 16.5311ZM86.6728 17.2915V12.6319H87.5305L87.5747 13.3038C87.6926 13.1211 87.8281 12.9767 87.9814 12.8706C88.1347 12.7645 88.3027 12.6879 88.4854 12.6407C88.6681 12.5936 88.8597 12.57 89.0601 12.57C89.1131 12.57 89.1633 12.57 89.2104 12.57C89.2576 12.57 89.3018 12.57 89.343 12.57V13.4453H89.0601C88.7241 13.4453 88.4441 13.5131 88.2201 13.6487C88.002 13.7843 87.8399 13.9729 87.7338 14.2146C87.6336 14.4562 87.5835 14.7333 87.5835 15.0457V17.2915H86.6728Z" fill="white"/>
<path d="M108.591 25.8477L110.358 32.4513C110.632 33.2094 109.905 33.9465 109.143 33.6842L102.425 32.0006C101.21 31.5826 101.11 29.9045 102.265 29.3443L102.98 28.9978C104.165 28.4232 105.117 27.4596 105.678 26.2676L105.934 25.7233C106.48 24.5631 108.156 24.6416 108.591 25.8477Z" fill="#46B3F0"/>
</svg>
