<svg width="118" height="34" viewBox="0 0 118 34" fill="none" xmlns="http://www.w3.org/2000/svg">
<path d="M5.79028 14.7917C5.79028 7.11814 12.011 0.897461 19.6845 0.897461H103.685C111.358 0.897461 117.579 7.11814 117.579 14.7917C117.579 22.4653 111.358 28.686 103.685 28.686H19.6845C12.011 28.686 5.79028 22.4653 5.79028 14.7917Z" fill="#FF745E"/>
<g filter="url(#filter0_i_9280_145)">
<path d="M18.4159 11.9473C17.9534 11.9473 17.5785 12.3223 17.5785 12.7847C17.5785 13.2472 17.9534 13.6222 18.4159 13.6222C18.8784 13.6222 19.2533 13.2472 19.2533 12.7847C19.2533 12.3223 18.8784 11.9473 18.4159 11.9473Z" fill="white"/>
<path fill-rule="evenodd" clip-rule="evenodd" d="M17.4521 9.79688C16.3044 9.79688 15.374 10.7273 15.374 11.875V17.7083C15.374 18.8561 16.3044 19.7865 17.4521 19.7865H23.2855C24.4332 19.7865 25.3636 18.856 25.3636 17.7083V11.875C25.3636 10.7273 24.4332 9.79688 23.2855 9.79688H17.4521ZM16.0303 11.875C16.0303 11.0897 16.6669 10.4531 17.4521 10.4531H23.2855C24.0708 10.4531 24.7074 11.0897 24.7074 11.875V13.3735C24.3774 13.2969 24.0339 13.2564 23.6812 13.2564C21.8228 13.2564 20.2269 14.3775 19.5318 15.9797C18.9857 15.4456 18.238 15.1158 17.4131 15.1158C16.9152 15.1158 16.4449 15.2361 16.0303 15.4491V11.875Z" fill="white"/>
</g>
<path d="M33.1939 17.2915V11.0403H34.1311V17.2915H33.1939ZM35.4261 17.2915V12.6319H36.2837L36.3368 13.1801C36.4429 13.0268 36.5608 12.9089 36.6904 12.8264C36.826 12.738 36.9704 12.6731 37.1237 12.6319C37.2769 12.5906 37.4332 12.57 37.5923 12.57C37.9047 12.57 38.1611 12.6348 38.3615 12.7645C38.5679 12.8942 38.727 13.071 38.839 13.295C38.951 13.1359 39.0777 13.0032 39.2192 12.8971C39.3607 12.7851 39.5169 12.7026 39.6878 12.6496C39.8588 12.5965 40.0415 12.57 40.236 12.57C40.5838 12.57 40.8638 12.6466 41.076 12.7999C41.2941 12.9472 41.4503 13.1476 41.5446 13.4011C41.6448 13.6546 41.6949 13.9464 41.6949 14.2764V17.2915H40.7754V14.639C40.7754 14.4975 40.7695 14.356 40.7577 14.2146C40.7459 14.0731 40.7105 13.9405 40.6516 13.8167C40.5985 13.687 40.5189 13.5838 40.4128 13.5072C40.3126 13.4247 40.1682 13.3834 39.9796 13.3834C39.7969 13.3834 39.6436 13.4247 39.5198 13.5072C39.4019 13.5897 39.3047 13.7017 39.228 13.8432C39.1573 13.9788 39.1043 14.1261 39.0689 14.2853C39.0394 14.4444 39.0247 14.6036 39.0247 14.7627V17.2915H38.1051V14.6301C38.1051 14.4945 38.0992 14.356 38.0874 14.2146C38.0757 14.0731 38.0462 13.9405 37.999 13.8167C37.9519 13.687 37.8723 13.5838 37.7603 13.5072C37.6542 13.4247 37.5098 13.3834 37.3271 13.3834C37.0618 13.3834 36.8555 13.4601 36.7081 13.6133C36.5667 13.7607 36.4694 13.9434 36.4163 14.1615C36.3633 14.3737 36.3368 14.5771 36.3368 14.7716V17.2915H35.4261ZM44.2509 17.3446C44.0387 17.3446 43.8324 17.318 43.632 17.265C43.4374 17.206 43.2635 17.1206 43.1103 17.0086C42.957 16.8907 42.8332 16.7463 42.7389 16.5753C42.6505 16.3985 42.6063 16.1922 42.6063 15.9564C42.6063 15.6735 42.6594 15.4406 42.7655 15.2579C42.8774 15.0693 43.0248 14.9248 43.2075 14.8246C43.3903 14.7185 43.5995 14.6449 43.8353 14.6036C44.077 14.5564 44.3275 14.5329 44.5869 14.5329H45.7275C45.7275 14.303 45.6921 14.1026 45.6214 13.9316C45.5506 13.7548 45.4386 13.6192 45.2854 13.5249C45.138 13.4247 44.9405 13.3746 44.693 13.3746C44.5456 13.3746 44.4041 13.3923 44.2686 13.4276C44.1389 13.4571 44.0269 13.5072 43.9326 13.5779C43.8383 13.6487 43.7734 13.743 43.7381 13.8609H42.7831C42.8185 13.6369 42.8981 13.4453 43.0219 13.2862C43.1457 13.1211 43.2989 12.9855 43.4816 12.8794C43.6644 12.7733 43.8589 12.6967 44.0652 12.6496C44.2774 12.5965 44.4926 12.57 44.7107 12.57C45.3826 12.57 45.866 12.7674 46.1607 13.1624C46.4613 13.5514 46.6116 14.0878 46.6116 14.7716V17.2915H45.8247L45.7894 16.6991C45.6538 16.8818 45.4917 17.0204 45.3031 17.1147C45.1203 17.209 44.9376 17.2709 44.7549 17.3003C44.5721 17.3298 44.4041 17.3446 44.2509 17.3446ZM44.3923 16.5753C44.6576 16.5753 44.8904 16.5311 45.0908 16.4427C45.2913 16.3484 45.4475 16.2158 45.5595 16.0448C45.6715 15.868 45.7275 15.6617 45.7275 15.4259V15.2314H44.8963C44.7254 15.2314 44.5574 15.2373 44.3923 15.249C44.2332 15.2549 44.0858 15.2785 43.9503 15.3198C43.8206 15.3551 43.7145 15.417 43.632 15.5055C43.5553 15.5939 43.517 15.7206 43.517 15.8857C43.517 16.0448 43.5583 16.1745 43.6408 16.2747C43.7233 16.3749 43.8324 16.4515 43.9679 16.5046C44.1035 16.5517 44.245 16.5753 44.3923 16.5753ZM49.7999 19.4047C49.4698 19.4047 49.1633 19.3516 48.8804 19.2455C48.5975 19.1453 48.3558 18.9832 48.1554 18.7592C47.9608 18.5411 47.8282 18.2612 47.7575 17.9193H48.7036C48.7448 18.0784 48.8244 18.2052 48.9423 18.2995C49.0602 18.3997 49.1987 18.4704 49.3579 18.5117C49.517 18.5529 49.6762 18.5736 49.8353 18.5736C50.1359 18.5736 50.3776 18.5117 50.5603 18.3879C50.7431 18.2641 50.8727 18.0961 50.9494 17.8839C51.0319 17.6776 51.0732 17.4418 51.0732 17.1766V16.6372C50.973 16.8082 50.8403 16.9467 50.6753 17.0528C50.5102 17.1589 50.3334 17.2355 50.1448 17.2827C49.962 17.3239 49.7734 17.3446 49.5789 17.3446C49.1014 17.3446 48.7124 17.2385 48.4118 17.0262C48.1112 16.814 47.8872 16.5311 47.7398 16.1774C47.5983 15.8179 47.5276 15.42 47.5276 14.9838C47.5276 14.5358 47.6013 14.1291 47.7486 13.7636C47.9019 13.3982 48.1347 13.1093 48.4471 12.8971C48.7596 12.679 49.1545 12.57 49.6319 12.57C49.909 12.57 50.1772 12.6201 50.4366 12.7203C50.6959 12.8146 50.9111 12.9679 51.082 13.1801L51.1351 12.6319H51.9927V17.0705C51.9927 17.5479 51.9161 17.9605 51.7628 18.3083C51.6096 18.662 51.3708 18.9331 51.0466 19.1218C50.7224 19.3104 50.3069 19.4047 49.7999 19.4047ZM49.7469 16.5311C50.0416 16.5311 50.2862 16.4604 50.4808 16.3189C50.6812 16.1715 50.8315 15.977 50.9317 15.7353C51.0319 15.4937 51.082 15.2284 51.082 14.9396C51.082 14.6449 51.0319 14.3825 50.9317 14.1527C50.8315 13.9169 50.6841 13.7312 50.4896 13.5956C50.2951 13.4601 50.0446 13.3923 49.738 13.3923C49.4197 13.3923 49.1663 13.4659 48.9777 13.6133C48.789 13.7548 48.6505 13.9464 48.5621 14.188C48.4796 14.4238 48.4383 14.6861 48.4383 14.9749C48.4383 15.2697 48.4825 15.5349 48.5709 15.7707C48.6593 16.0065 48.7979 16.1922 48.9865 16.3277C49.181 16.4633 49.4345 16.5311 49.7469 16.5311ZM55.161 17.3446C54.6717 17.3446 54.2621 17.2443 53.932 17.0439C53.6019 16.8435 53.3514 16.5665 53.1804 16.2128C53.0154 15.8532 52.9328 15.4406 52.9328 14.9749C52.9328 14.5034 53.0183 14.0878 53.1893 13.7283C53.3661 13.3687 53.6196 13.0858 53.9497 12.8794C54.2856 12.6731 54.6894 12.57 55.161 12.57C55.5205 12.57 55.833 12.6378 56.0982 12.7733C56.3635 12.903 56.5816 13.0799 56.7525 13.3038C56.9293 13.5278 57.059 13.7784 57.1415 14.0554C57.2241 14.3266 57.2594 14.6095 57.2476 14.9042C57.2476 14.9691 57.2447 15.0309 57.2388 15.0899C57.2329 15.1488 57.227 15.2107 57.2211 15.2756H53.8524C53.8701 15.5114 53.929 15.7265 54.0292 15.921C54.1353 16.1155 54.2827 16.2717 54.4713 16.3896C54.6599 16.5016 54.8928 16.5576 55.1698 16.5576C55.3231 16.5576 55.4704 16.54 55.6119 16.5046C55.7593 16.4633 55.889 16.4014 56.001 16.3189C56.1188 16.2305 56.2014 16.1185 56.2485 15.9829H57.1681C57.0914 16.2953 56.9529 16.5547 56.7525 16.761C56.558 16.9614 56.3193 17.1088 56.0363 17.2031C55.7593 17.2974 55.4675 17.3446 55.161 17.3446ZM53.8701 14.5505H56.3458C56.3399 14.3207 56.2868 14.1173 56.1866 13.9405C56.0864 13.7577 55.9479 13.6163 55.7711 13.5161C55.5942 13.4099 55.382 13.3569 55.1345 13.3569C54.8633 13.3569 54.6364 13.4129 54.4536 13.5249C54.2768 13.6369 54.1383 13.7843 54.0381 13.967C53.9438 14.1438 53.8878 14.3383 53.8701 14.5505ZM63.3718 17.3622C62.7234 17.3622 62.1811 17.2267 61.7449 16.9555C61.3146 16.6844 60.9904 16.3101 60.7723 15.8326C60.5542 15.3493 60.4451 14.7981 60.4451 14.1792C60.4451 13.7135 60.5041 13.2862 60.622 12.8971C60.7458 12.5022 60.9285 12.1603 61.1702 11.8715C61.4118 11.5826 61.7125 11.3616 62.072 11.2083C62.4375 11.0492 62.8589 10.9696 63.3364 10.9696C63.8021 10.9696 64.2117 11.0433 64.5654 11.1907C64.9191 11.3321 65.2109 11.5384 65.4408 11.8096C65.6765 12.0807 65.8357 12.4079 65.9182 12.791H64.9279C64.8749 12.5847 64.7747 12.4108 64.6273 12.2694C64.4858 12.1279 64.3061 12.0188 64.088 11.9422C63.8758 11.8656 63.6341 11.8273 63.3629 11.8273C63.0093 11.8273 62.7086 11.8892 62.4611 12.0129C62.2135 12.1367 62.0101 12.3077 61.851 12.5258C61.6977 12.738 61.5857 12.9855 61.515 13.2685C61.4443 13.5514 61.4089 13.852 61.4089 14.1703C61.4089 14.5948 61.4767 14.9838 61.6123 15.3375C61.7478 15.6911 61.96 15.9741 62.2489 16.1863C62.5377 16.3985 62.9149 16.5046 63.3806 16.5046C63.7402 16.5046 64.0496 16.4427 64.309 16.3189C64.5684 16.1892 64.7717 16.0065 64.9191 15.7707C65.0665 15.529 65.1431 15.2373 65.149 14.8954H63.2126V14.0731H66.0685V14.5329C66.0685 15.1046 65.9624 15.6027 65.7502 16.0271C65.538 16.4515 65.2315 16.7816 64.8307 17.0174C64.4298 17.2473 63.9435 17.3622 63.3718 17.3622ZM69.0626 17.3446C68.5734 17.3446 68.1637 17.2443 67.8336 17.0439C67.5035 16.8435 67.253 16.5665 67.0821 16.2128C66.917 15.8532 66.8345 15.4406 66.8345 14.9749C66.8345 14.5034 66.92 14.0878 67.0909 13.7283C67.2678 13.3687 67.5212 13.0858 67.8513 12.8794C68.1873 12.6731 68.5911 12.57 69.0626 12.57C69.4222 12.57 69.7346 12.6378 69.9999 12.7733C70.2651 12.903 70.4832 13.0799 70.6542 13.3038C70.831 13.5278 70.9607 13.7784 71.0432 14.0554C71.1257 14.3266 71.1611 14.6095 71.1493 14.9042C71.1493 14.9691 71.1464 15.0309 71.1405 15.0899C71.1346 15.1488 71.1287 15.2107 71.1228 15.2756H67.7541C67.7717 15.5114 67.8307 15.7265 67.9309 15.921C68.037 16.1155 68.1844 16.2717 68.373 16.3896C68.5616 16.5016 68.7944 16.5576 69.0715 16.5576C69.2247 16.5576 69.3721 16.54 69.5136 16.5046C69.6609 16.4633 69.7906 16.4014 69.9026 16.3189C70.0205 16.2305 70.103 16.1185 70.1502 15.9829H71.0697C70.9931 16.2953 70.8546 16.5547 70.6542 16.761C70.4597 16.9614 70.2209 17.1088 69.938 17.2031C69.6609 17.2974 69.3692 17.3446 69.0626 17.3446ZM67.7717 14.5505H70.2475C70.2416 14.3207 70.1885 14.1173 70.0883 13.9405C69.9881 13.7577 69.8496 13.6163 69.6727 13.5161C69.4959 13.4099 69.2837 13.3569 69.0361 13.3569C68.765 13.3569 68.538 13.4129 68.3553 13.5249C68.1785 13.6369 68.0399 13.7843 67.9397 13.967C67.8454 14.1438 67.7894 14.3383 67.7717 14.5505ZM72.0885 17.2915V12.6319H72.955L72.9992 13.2862C73.1171 13.1152 73.2585 12.9796 73.4236 12.8794C73.5886 12.7733 73.7655 12.6967 73.9541 12.6496C74.1427 12.5965 74.3255 12.57 74.5023 12.57C74.9503 12.57 75.301 12.6672 75.5545 12.8618C75.8138 13.0504 75.9966 13.3068 76.1027 13.631C76.2147 13.9493 76.2707 14.3118 76.2707 14.7185V17.2915H75.3511V14.9042C75.3511 14.7156 75.3393 14.5299 75.3157 14.3472C75.2922 14.1645 75.2421 14.0024 75.1654 13.8609C75.0947 13.7135 74.9915 13.5986 74.856 13.5161C74.7204 13.4276 74.5377 13.3834 74.3078 13.3834C74.0248 13.3834 73.7861 13.4601 73.5916 13.6133C73.3971 13.7666 73.2497 13.9729 73.1495 14.2322C73.0493 14.4916 72.9992 14.7834 72.9992 15.1076V17.2915H72.0885ZM79.4069 17.3446C78.9176 17.3446 78.508 17.2443 78.1779 17.0439C77.8478 16.8435 77.5973 16.5665 77.4263 16.2128C77.2613 15.8532 77.1787 15.4406 77.1787 14.9749C77.1787 14.5034 77.2642 14.0878 77.4352 13.7283C77.612 13.3687 77.8655 13.0858 78.1955 12.8794C78.5315 12.6731 78.9353 12.57 79.4069 12.57C79.7664 12.57 80.0789 12.6378 80.3441 12.7733C80.6094 12.903 80.8275 13.0799 80.9984 13.3038C81.1752 13.5278 81.3049 13.7784 81.3874 14.0554C81.47 14.3266 81.5053 14.6095 81.4935 14.9042C81.4935 14.9691 81.4906 15.0309 81.4847 15.0899C81.4788 15.1488 81.4729 15.2107 81.467 15.2756H78.0983C78.116 15.5114 78.1749 15.7265 78.2751 15.921C78.3812 16.1155 78.5286 16.2717 78.7172 16.3896C78.9058 16.5016 79.1387 16.5576 79.4157 16.5576C79.569 16.5576 79.7163 16.54 79.8578 16.5046C80.0052 16.4633 80.1349 16.4014 80.2468 16.3189C80.3647 16.2305 80.4473 16.1185 80.4944 15.9829H81.414C81.3373 16.2953 81.1988 16.5547 80.9984 16.761C80.8039 16.9614 80.5652 17.1088 80.2822 17.2031C80.0052 17.2974 79.7134 17.3446 79.4069 17.3446ZM78.116 14.5505H80.5917C80.5858 14.3207 80.5327 14.1173 80.4325 13.9405C80.3323 13.7577 80.1938 13.6163 80.017 13.5161C79.8401 13.4099 79.6279 13.3569 79.3804 13.3569C79.1092 13.3569 78.8823 13.4129 78.6995 13.5249C78.5227 13.6369 78.3842 13.7843 78.284 13.967C78.1897 14.1438 78.1337 14.3383 78.116 14.5505ZM82.4327 17.2915V12.6319H83.2904L83.3346 13.3038C83.4525 13.1211 83.588 12.9767 83.7413 12.8706C83.8946 12.7645 84.0625 12.6879 84.2453 12.6407C84.428 12.5936 84.6196 12.57 84.82 12.57C84.873 12.57 84.9231 12.57 84.9703 12.57C85.0175 12.57 85.0617 12.57 85.1029 12.57V13.4453H84.82C84.484 13.4453 84.204 13.5131 83.98 13.6487C83.7619 13.7843 83.5998 13.9729 83.4937 14.2146C83.3935 14.4562 83.3434 14.7333 83.3434 15.0457V17.2915H82.4327ZM87.277 17.3446C87.0648 17.3446 86.8585 17.318 86.6581 17.265C86.4635 17.206 86.2896 17.1206 86.1364 17.0086C85.9831 16.8907 85.8593 16.7463 85.765 16.5753C85.6766 16.3985 85.6324 16.1922 85.6324 15.9564C85.6324 15.6735 85.6855 15.4406 85.7916 15.2579C85.9036 15.0693 86.0509 14.9248 86.2336 14.8246C86.4164 14.7185 86.6256 14.6449 86.8614 14.6036C87.1031 14.5564 87.3536 14.5329 87.613 14.5329H88.7536C88.7536 14.303 88.7182 14.1026 88.6475 13.9316C88.5767 13.7548 88.4647 13.6192 88.3115 13.5249C88.1641 13.4247 87.9666 13.3746 87.7191 13.3746C87.5717 13.3746 87.4302 13.3923 87.2947 13.4276C87.165 13.4571 87.053 13.5072 86.9587 13.5779C86.8644 13.6487 86.7995 13.743 86.7642 13.8609H85.8092C85.8446 13.6369 85.9242 13.4453 86.048 13.2862C86.1718 13.1211 86.325 12.9855 86.5077 12.8794C86.6905 12.7733 86.885 12.6967 87.0913 12.6496C87.3035 12.5965 87.5187 12.57 87.7368 12.57C88.4087 12.57 88.8921 12.7674 89.1868 13.1624C89.4874 13.5514 89.6377 14.0878 89.6377 14.7716V17.2915H88.8508L88.8155 16.6991C88.6799 16.8818 88.5178 17.0204 88.3292 17.1147C88.1464 17.209 87.9637 17.2709 87.781 17.3003C87.5982 17.3298 87.4302 17.3446 87.277 17.3446ZM87.4185 16.5753C87.6837 16.5753 87.9165 16.5311 88.117 16.4427C88.3174 16.3484 88.4736 16.2158 88.5856 16.0448C88.6976 15.868 88.7536 15.6617 88.7536 15.4259V15.2314H87.9224C87.7515 15.2314 87.5835 15.2373 87.4185 15.249C87.2593 15.2549 87.1119 15.2785 86.9764 15.3198C86.8467 15.3551 86.7406 15.417 86.6581 15.5055C86.5814 15.5939 86.5431 15.7206 86.5431 15.8857C86.5431 16.0448 86.5844 16.1745 86.6669 16.2747C86.7494 16.3749 86.8585 16.4515 86.994 16.5046C87.1296 16.5517 87.2711 16.5753 87.4185 16.5753ZM92.5343 17.3446C92.0332 17.3446 91.6737 17.209 91.4556 16.9378C91.2434 16.6608 91.1373 16.2747 91.1373 15.7796V13.4453H90.3945V12.6319H91.1373V11.2791H92.048V12.6319H93.4715V13.4453H92.048V15.6292C92.048 15.7943 92.0627 15.9446 92.0922 16.0802C92.1275 16.2158 92.1924 16.3219 92.2867 16.3985C92.381 16.4751 92.5166 16.5164 92.6934 16.5223C92.829 16.5223 92.9469 16.4987 93.0471 16.4515C93.1532 16.4044 93.2387 16.3513 93.3035 16.2924L93.6572 16.9732C93.5452 17.0616 93.4273 17.1353 93.3035 17.1942C93.1856 17.2473 93.0618 17.2856 92.9321 17.3092C92.8025 17.3328 92.6698 17.3446 92.5343 17.3446ZM96.3917 17.3446C95.9084 17.3446 95.4987 17.2473 95.1627 17.0528C94.8267 16.8524 94.5703 16.5724 94.3935 16.2128C94.2225 15.8532 94.137 15.4377 94.137 14.9661C94.137 14.4887 94.2255 14.0731 94.4023 13.7194C94.5791 13.3598 94.8356 13.0799 95.1715 12.8794C95.5075 12.6731 95.9172 12.57 96.4006 12.57C96.8839 12.57 97.2936 12.6731 97.6296 12.8794C97.9656 13.0799 98.219 13.3598 98.39 13.7194C98.5609 14.079 98.6464 14.4975 98.6464 14.9749C98.6464 15.4406 98.558 15.8532 98.3811 16.2128C98.2102 16.5724 97.9567 16.8524 97.6207 17.0528C97.2906 17.2473 96.881 17.3446 96.3917 17.3446ZM96.3917 16.5311C96.71 16.5311 96.9664 16.4604 97.1609 16.3189C97.3614 16.1774 97.5087 15.9888 97.603 15.753C97.6974 15.5114 97.7445 15.249 97.7445 14.9661C97.7445 14.6832 97.6974 14.4238 97.603 14.188C97.5087 13.9522 97.3614 13.7636 97.1609 13.6222C96.9664 13.4748 96.71 13.4011 96.3917 13.4011C96.0793 13.4011 95.8229 13.4748 95.6225 13.6222C95.4221 13.7636 95.2747 13.9522 95.1804 14.188C95.092 14.4238 95.0478 14.6832 95.0478 14.9661C95.0478 15.2549 95.092 15.5172 95.1804 15.753C95.2747 15.9888 95.4221 16.1774 95.6225 16.3189C95.8229 16.4604 96.0793 16.5311 96.3917 16.5311ZM99.581 17.2915V12.6319H100.439L100.483 13.3038C100.601 13.1211 100.736 12.9767 100.89 12.8706C101.043 12.7645 101.211 12.6879 101.394 12.6407C101.576 12.5936 101.768 12.57 101.968 12.57C102.021 12.57 102.071 12.57 102.119 12.57C102.166 12.57 102.21 12.57 102.251 12.57V13.4453H101.968C101.632 13.4453 101.352 13.5131 101.128 13.6487C100.91 13.7843 100.748 13.9729 100.642 14.2146C100.542 14.4562 100.492 14.7333 100.492 15.0457V17.2915H99.581Z" fill="white"/>
<path d="M8.6284 31.9117L2.02479 33.6795C1.26664 33.9529 0.529565 33.2264 0.791892 32.4644L2.47548 25.7455C2.89344 24.5314 4.5716 24.4306 5.13178 25.5861L5.47823 26.3007C6.05287 27.486 7.01652 28.4384 8.20846 28.9991L8.7528 29.2551C9.913 29.8009 9.83452 31.4768 8.6284 31.9117Z" fill="#FF745E"/>
<defs>
<filter id="filter0_i_9280_145" x="15.374" y="9.79688" width="10.9519" height="10.9521" filterUnits="userSpaceOnUse" color-interpolation-filters="sRGB">
<feFlood flood-opacity="0" result="BackgroundImageFix"/>
<feBlend mode="normal" in="SourceGraphic" in2="BackgroundImageFix" result="shape"/>
<feColorMatrix in="SourceAlpha" type="matrix" values="0 0 0 0 0 0 0 0 0 0 0 0 0 0 0 0 0 0 127 0" result="hardAlpha"/>
<feOffset dx="0.962374" dy="0.962374"/>
<feGaussianBlur stdDeviation="0.72178"/>
<feComposite in2="hardAlpha" operator="arithmetic" k2="-1" k3="1"/>
<feColorMatrix type="matrix" values="0 0 0 0 1 0 0 0 0 1 0 0 0 0 1 0 0 0 0.5 0"/>
<feBlend mode="normal" in2="shape" result="effect1_innerShadow_9280_145"/>
</filter>
</defs>
</svg>
