<svg
  width="36"
  height="36"
  viewBox="0 0 36 36"
  fill="none"
  xmlns="http://www.w3.org/2000/svg"
>
  <g filter="url(#filter0_d_9289_13240)">
    <g filter="url(#filter1_i_9289_13240)">
      <path
        fill-rule="evenodd"
        clip-rule="evenodd"
        d="M8.73781 24.3018L8.73897 24.3004L8.74798 24.2896C8.7565 24.2794 8.76992 24.2632 8.78764 24.2413C8.8231 24.1974 8.87562 24.1311 8.94036 24.0452C9.07012 23.8731 9.24739 23.6245 9.43411 23.3229C9.76981 22.7807 10.1141 22.1021 10.2869 21.4087C9.20858 19.876 8.5752 18.0067 8.5752 15.9912C8.5752 10.7859 12.7949 6.56616 18.0002 6.56616C23.2055 6.56616 27.4252 10.7859 27.4252 15.9912C27.4252 21.1964 23.2055 25.4162 18.0002 25.4162C16.821 25.4162 15.691 25.1993 14.649 24.8028C13.5928 25.1989 12.2807 25.3471 11.2519 25.4026C10.6812 25.4334 10.1746 25.4366 9.81031 25.4322C9.62792 25.43 9.48055 25.4258 9.37793 25.4222C9.32661 25.4203 9.28643 25.4186 9.2586 25.4174L9.22626 25.4158L9.21731 25.4154L9.21385 25.4152L9.2502 24.7412C9.21332 25.4152 9.21385 25.4152 9.21385 25.4152C8.95726 25.4012 8.73037 25.2426 8.62944 25.0063C8.5286 24.7702 8.57089 24.4968 8.73781 24.3018ZM13.6251 14.8663C13.0038 14.8663 12.5001 15.37 12.5001 15.9913C12.5001 16.6127 13.0038 17.1163 13.6251 17.1163H13.6351C14.2564 17.1163 14.7601 16.6127 14.7601 15.9913C14.7601 15.37 14.2564 14.8663 13.6351 14.8663H13.6251ZM18.0001 14.8663C17.3788 14.8663 16.8751 15.37 16.8751 15.9913C16.8751 16.6127 17.3788 17.1163 18.0001 17.1163H18.0101C18.6314 17.1163 19.1351 16.6127 19.1351 15.9913C19.1351 15.37 18.6314 14.8663 18.0101 14.8663H18.0001ZM22.3751 14.8663C21.7538 14.8663 21.2501 15.37 21.2501 15.9913C21.2501 16.6127 21.7538 17.1163 22.3751 17.1163H22.3851C23.0064 17.1163 23.5101 16.6127 23.5101 15.9913C23.5101 15.37 23.0064 14.8663 22.3851 14.8663H22.3751Z"
        fill="url(#paint0_radial_9289_13240)"
      />
    </g>
  </g>
  <defs>
    <filter
      id="filter0_d_9289_13240"
      x="-2"
      y="-2"
      width="40"
      height="40"
      filterUnits="userSpaceOnUse"
      color-interpolation-filters="sRGB"
    >
      <feFlood flood-opacity="0" result="BackgroundImageFix" />
      <feColorMatrix
        in="SourceAlpha"
        type="matrix"
        values="0 0 0 0 0 0 0 0 0 0 0 0 0 0 0 0 0 0 127 0"
        result="hardAlpha"
      />
      <feOffset dy="2" />
      <feGaussianBlur stdDeviation="4" />
      <feComposite in2="hardAlpha" operator="out" />
      <feColorMatrix
        type="matrix"
        values="0 0 0 0 0.498039 0 0 0 0 0.407843 0 0 0 0 1 0 0 0 0.25 0"
      />
      <feBlend
        mode="normal"
        in2="BackgroundImageFix"
        result="effect1_dropShadow_9289_13240"
      />
      <feBlend
        mode="normal"
        in="SourceGraphic"
        in2="effect1_dropShadow_9289_13240"
        result="shape"
      />
    </filter>
    <filter
      id="filter1_i_9289_13240"
      x="8.5752"
      y="6.56616"
      width="20.3734"
      height="20.3915"
      filterUnits="userSpaceOnUse"
      color-interpolation-filters="sRGB"
    >
      <feFlood flood-opacity="0" result="BackgroundImageFix" />
      <feBlend
        mode="normal"
        in="SourceGraphic"
        in2="BackgroundImageFix"
        result="shape"
      />
      <feColorMatrix
        in="SourceAlpha"
        type="matrix"
        values="0 0 0 0 0 0 0 0 0 0 0 0 0 0 0 0 0 0 127 0"
        result="hardAlpha"
      />
      <feOffset dx="1.52381" dy="1.52381" />
      <feGaussianBlur stdDeviation="1.14286" />
      <feComposite
        in2="hardAlpha"
        operator="arithmetic"
        k2="-1"
        k3="1"
      />
      <feColorMatrix
        type="matrix"
        values="0 0 0 0 1 0 0 0 0 1 0 0 0 0 1 0 0 0 0.5 0"
      />
      <feBlend
        mode="normal"
        in2="shape"
        result="effect1_innerShadow_9289_13240"
      />
    </filter>
    <radialGradient
      id="paint0_radial_9289_13240"
      cx="0"
      cy="0"
      r="1"
      gradientUnits="userSpaceOnUse"
      gradientTransform="translate(18.8131 22.0965) rotate(-60.1772) scale(18.6241 18.6153)"
    >
      <stop stop-color="#7F68FF" />
      <stop offset="1" stop-color="#BEB2FF" />
    </radialGradient>
  </defs>
</svg>