<svg width="179" height="53" viewBox="0 0 179 53" fill="none" xmlns="http://www.w3.org/2000/svg">
<path d="M0.833496 22.0295C0.833496 9.87925 10.6832 0.0295105 22.8335 0.0295105H148.833C160.984 0.0295105 170.833 9.87925 170.833 22.0295C170.833 34.1798 160.984 44.0295 148.833 44.0295H22.8335C10.6832 44.0295 0.833496 34.1798 0.833496 22.0295Z" fill="#8D79FF" fill-opacity="0.1"/>
<g filter="url(#filter0_d_9274_1514)">
<g filter="url(#filter1_i_9274_1514)">
<path fill-rule="evenodd" clip-rule="evenodd" d="M15.7992 31.0231L15.8005 31.0216L15.8102 31.01C15.8195 30.9989 15.834 30.9813 15.8532 30.9576C15.8916 30.9101 15.9485 30.8382 16.0186 30.7452C16.1592 30.5587 16.3513 30.2894 16.5535 29.9627C16.9172 29.3753 17.2902 28.6402 17.4774 27.8889C16.3092 26.2285 15.623 24.2034 15.623 22.0199C15.623 16.3809 20.1944 11.8095 25.8335 11.8095C31.4725 11.8095 36.0439 16.3809 36.0439 22.0199C36.0439 27.659 31.4725 32.2304 25.8335 32.2304C24.556 32.2304 23.3319 31.9954 22.203 31.5659C21.0588 31.995 19.6373 32.1555 18.5229 32.2157C17.9046 32.2491 17.3557 32.2526 16.9611 32.2477C16.7635 32.2453 16.6039 32.2408 16.4927 32.2369C16.4371 32.2349 16.3935 32.2331 16.3634 32.2317L16.3284 32.23L16.3187 32.2295L16.3149 32.2293L16.3543 31.4991C16.3144 32.2293 16.3149 32.2293 16.3149 32.2293C16.0369 32.2141 15.7912 32.0424 15.6818 31.7863C15.5726 31.5305 15.6184 31.2344 15.7992 31.0231ZM21.0938 20.8014C20.4207 20.8014 19.875 21.347 19.875 22.0201C19.875 22.6932 20.4207 23.2389 21.0938 23.2389H21.1046C21.7777 23.2389 22.3234 22.6932 22.3234 22.0201C22.3234 21.347 21.7777 20.8014 21.1046 20.8014H21.0938ZM25.8334 20.8014C25.1603 20.8014 24.6146 21.347 24.6146 22.0201C24.6146 22.6932 25.1603 23.2389 25.8334 23.2389H25.8442C26.5173 23.2389 27.063 22.6932 27.063 22.0201C27.063 21.347 26.5173 20.8014 25.8442 20.8014H25.8334ZM30.573 20.8014C29.8999 20.8014 29.3542 21.347 29.3542 22.0201C29.3542 22.6932 29.8999 23.2389 30.573 23.2389H30.5838C31.2569 23.2389 31.8025 22.6932 31.8025 22.0201C31.8025 21.347 31.2569 20.8014 30.5838 20.8014H30.573Z" fill="url(#paint0_radial_9274_1514)"/>
</g>
</g>
<path d="M50.5086 27.0295V18.4895H47.3726V17.1315H55.1146V18.4895H51.9926V27.0295H50.5086ZM58.7311 27.1135C57.9564 27.1135 57.3077 26.9548 56.7851 26.6375C56.2624 26.3202 55.8657 25.8815 55.5951 25.3215C55.3337 24.7522 55.2031 24.0988 55.2031 23.3615C55.2031 22.6148 55.3384 21.9568 55.6091 21.3875C55.8891 20.8182 56.2904 20.3702 56.8131 20.0435C57.3451 19.7168 57.9844 19.5535 58.7311 19.5535C59.3004 19.5535 59.7951 19.6608 60.2151 19.8755C60.6351 20.0808 60.9804 20.3608 61.2511 20.7155C61.5311 21.0702 61.7364 21.4668 61.8671 21.9055C61.9977 22.3348 62.0537 22.7828 62.0351 23.2495C62.0351 23.3522 62.0304 23.4502 62.0211 23.5435C62.0117 23.6368 62.0024 23.7348 61.9931 23.8375H56.6591C56.6871 24.2108 56.7804 24.5515 56.9391 24.8595C57.1071 25.1675 57.3404 25.4148 57.6391 25.6015C57.9377 25.7788 58.3064 25.8675 58.7451 25.8675C58.9877 25.8675 59.2211 25.8395 59.4451 25.7835C59.6784 25.7182 59.8837 25.6202 60.0611 25.4895C60.2477 25.3495 60.3784 25.1722 60.4531 24.9575H61.9091C61.7877 25.4522 61.5684 25.8628 61.2511 26.1895C60.9431 26.5068 60.5651 26.7402 60.1171 26.8895C59.6784 27.0388 59.2164 27.1135 58.7311 27.1135ZM56.6871 22.6895H60.6071C60.5977 22.3255 60.5137 22.0035 60.3551 21.7235C60.1964 21.4342 59.9771 21.2102 59.6971 21.0515C59.4171 20.8835 59.0811 20.7995 58.6891 20.7995C58.2597 20.7995 57.9004 20.8882 57.6111 21.0655C57.3311 21.2428 57.1117 21.4762 56.9531 21.7655C56.8037 22.0455 56.7151 22.3535 56.6871 22.6895ZM62.6574 27.0295L65.2754 23.2635L62.7834 19.6515H64.5054L66.2414 22.2975L67.9214 19.6515H69.5874L67.1094 23.3055L69.7694 27.0295H68.0614L66.1574 24.3415L64.2814 27.0295H62.6574ZM73.6652 27.1135C72.8719 27.1135 72.3026 26.8988 71.9572 26.4695C71.6212 26.0308 71.4532 25.4195 71.4532 24.6355V20.9395H70.2772V19.6515H71.4532V17.5095H72.8952V19.6515H75.1492V20.9395H72.8952V24.3975C72.8952 24.6588 72.9186 24.8968 72.9652 25.1115C73.0212 25.3262 73.1239 25.4942 73.2732 25.6155C73.4226 25.7368 73.6372 25.8022 73.9172 25.8115C74.1319 25.8115 74.3186 25.7742 74.4772 25.6995C74.6452 25.6248 74.7806 25.5408 74.8832 25.4475L75.4432 26.5255C75.2659 26.6655 75.0792 26.7822 74.8832 26.8755C74.6966 26.9595 74.5006 27.0202 74.2952 27.0575C74.0899 27.0948 73.8799 27.1135 73.6652 27.1135ZM84.6929 27.1415C83.6662 27.1415 82.8075 26.9268 82.1169 26.4975C81.4355 26.0682 80.9222 25.4755 80.5769 24.7195C80.2315 23.9542 80.0589 23.0815 80.0589 22.1015C80.0589 21.3642 80.1522 20.6875 80.3389 20.0715C80.5349 19.4462 80.8242 18.9048 81.2069 18.4475C81.5895 17.9902 82.0655 17.6402 82.6349 17.3975C83.2135 17.1455 83.8809 17.0195 84.6369 17.0195C85.3742 17.0195 86.0229 17.1362 86.5829 17.3695C87.1429 17.5935 87.6049 17.9202 87.9689 18.3495C88.3422 18.7788 88.5942 19.2968 88.7249 19.9035H87.1569C87.0729 19.5768 86.9142 19.3015 86.6809 19.0775C86.4569 18.8535 86.1722 18.6808 85.8269 18.5595C85.4909 18.4382 85.1082 18.3775 84.6789 18.3775C84.1189 18.3775 83.6429 18.4755 83.2509 18.6715C82.8589 18.8675 82.5369 19.1382 82.2849 19.4835C82.0422 19.8195 81.8649 20.2115 81.7529 20.6595C81.6409 21.1075 81.5849 21.5835 81.5849 22.0875C81.5849 22.7595 81.6922 23.3755 81.9069 23.9355C82.1215 24.4955 82.4575 24.9435 82.9149 25.2795C83.3722 25.6155 83.9695 25.7835 84.7069 25.7835C85.2762 25.7835 85.7662 25.6855 86.1769 25.4895C86.5875 25.2842 86.9095 24.9948 87.1429 24.6215C87.3762 24.2388 87.4975 23.7768 87.5069 23.2355H84.4409V21.9335H88.9629V22.6615C88.9629 23.5668 88.7949 24.3555 88.4589 25.0275C88.1229 25.6995 87.6375 26.2222 87.0029 26.5955C86.3682 26.9595 85.5982 27.1415 84.6929 27.1415ZM93.7037 27.1135C92.9291 27.1135 92.2804 26.9548 91.7577 26.6375C91.2351 26.3202 90.8384 25.8815 90.5677 25.3215C90.3064 24.7522 90.1757 24.0988 90.1757 23.3615C90.1757 22.6148 90.3111 21.9568 90.5817 21.3875C90.8617 20.8182 91.2631 20.3702 91.7857 20.0435C92.3177 19.7168 92.9571 19.5535 93.7037 19.5535C94.2731 19.5535 94.7677 19.6608 95.1877 19.8755C95.6077 20.0808 95.9531 20.3608 96.2237 20.7155C96.5037 21.0702 96.7091 21.4668 96.8397 21.9055C96.9704 22.3348 97.0264 22.7828 97.0077 23.2495C97.0077 23.3522 97.0031 23.4502 96.9937 23.5435C96.9844 23.6368 96.9751 23.7348 96.9657 23.8375H91.6317C91.6597 24.2108 91.7531 24.5515 91.9117 24.8595C92.0797 25.1675 92.3131 25.4148 92.6117 25.6015C92.9104 25.7788 93.2791 25.8675 93.7177 25.8675C93.9604 25.8675 94.1937 25.8395 94.4177 25.7835C94.6511 25.7182 94.8564 25.6202 95.0337 25.4895C95.2204 25.3495 95.3511 25.1722 95.4257 24.9575H96.8817C96.7604 25.4522 96.5411 25.8628 96.2237 26.1895C95.9157 26.5068 95.5377 26.7402 95.0897 26.8895C94.6511 27.0388 94.1891 27.1135 93.7037 27.1135ZM91.6597 22.6895H95.5797C95.5704 22.3255 95.4864 22.0035 95.3277 21.7235C95.1691 21.4342 94.9497 21.2102 94.6697 21.0515C94.3897 20.8835 94.0537 20.7995 93.6617 20.7995C93.2324 20.7995 92.8731 20.8882 92.5837 21.0655C92.3037 21.2428 92.0844 21.4762 91.9257 21.7655C91.7764 22.0455 91.6877 22.3535 91.6597 22.6895ZM98.4948 27.0295V19.6515H99.8668L99.9368 20.6875C100.123 20.4168 100.347 20.2022 100.609 20.0435C100.87 19.8755 101.15 19.7542 101.449 19.6795C101.747 19.5955 102.037 19.5535 102.317 19.5535C103.026 19.5535 103.581 19.7075 103.983 20.0155C104.393 20.3142 104.683 20.7202 104.851 21.2335C105.028 21.7375 105.117 22.3115 105.117 22.9555V27.0295H103.661V23.2495C103.661 22.9508 103.642 22.6568 103.605 22.3675C103.567 22.0782 103.488 21.8215 103.367 21.5975C103.255 21.3642 103.091 21.1822 102.877 21.0515C102.662 20.9115 102.373 20.8415 102.009 20.8415C101.561 20.8415 101.183 20.9628 100.875 21.2055C100.567 21.4482 100.333 21.7748 100.175 22.1855C100.016 22.5962 99.9368 23.0582 99.9368 23.5715V27.0295H98.4948ZM110.083 27.1135C109.308 27.1135 108.659 26.9548 108.137 26.6375C107.614 26.3202 107.217 25.8815 106.947 25.3215C106.685 24.7522 106.555 24.0988 106.555 23.3615C106.555 22.6148 106.69 21.9568 106.961 21.3875C107.241 20.8182 107.642 20.3702 108.165 20.0435C108.697 19.7168 109.336 19.5535 110.083 19.5535C110.652 19.5535 111.147 19.6608 111.567 19.8755C111.987 20.0808 112.332 20.3608 112.603 20.7155C112.883 21.0702 113.088 21.4668 113.219 21.9055C113.349 22.3348 113.405 22.7828 113.387 23.2495C113.387 23.3522 113.382 23.4502 113.373 23.5435C113.363 23.6368 113.354 23.7348 113.345 23.8375H108.011C108.039 24.2108 108.132 24.5515 108.291 24.8595C108.459 25.1675 108.692 25.4148 108.991 25.6015C109.289 25.7788 109.658 25.8675 110.097 25.8675C110.339 25.8675 110.573 25.8395 110.797 25.7835C111.03 25.7182 111.235 25.6202 111.413 25.4895C111.599 25.3495 111.73 25.1722 111.805 24.9575H113.261C113.139 25.4522 112.92 25.8628 112.603 26.1895C112.295 26.5068 111.917 26.7402 111.469 26.8895C111.03 27.0388 110.568 27.1135 110.083 27.1135ZM108.039 22.6895H111.959C111.949 22.3255 111.865 22.0035 111.707 21.7235C111.548 21.4342 111.329 21.2102 111.049 21.0515C110.769 20.8835 110.433 20.7995 110.041 20.7995C109.611 20.7995 109.252 20.8882 108.963 21.0655C108.683 21.2428 108.463 21.4762 108.305 21.7655C108.155 22.0455 108.067 22.3535 108.039 22.6895ZM114.874 27.0295V19.6515H116.232L116.302 20.7155C116.488 20.4262 116.703 20.1975 116.946 20.0295C117.188 19.8615 117.454 19.7402 117.744 19.6655C118.033 19.5908 118.336 19.5535 118.654 19.5535C118.738 19.5535 118.817 19.5535 118.892 19.5535C118.966 19.5535 119.036 19.5535 119.102 19.5535V20.9395H118.654C118.122 20.9395 117.678 21.0468 117.324 21.2615C116.978 21.4762 116.722 21.7748 116.554 22.1575C116.395 22.5402 116.316 22.9788 116.316 23.4735V27.0295H114.874ZM122.544 27.1135C122.208 27.1135 121.881 27.0715 121.564 26.9875C121.256 26.8942 120.981 26.7588 120.738 26.5815C120.495 26.3948 120.299 26.1662 120.15 25.8955C120.01 25.6155 119.94 25.2888 119.94 24.9155C119.94 24.4675 120.024 24.0988 120.192 23.8095C120.369 23.5108 120.603 23.2822 120.892 23.1235C121.181 22.9555 121.513 22.8388 121.886 22.7735C122.269 22.6988 122.665 22.6615 123.076 22.6615H124.882C124.882 22.2975 124.826 21.9802 124.714 21.7095C124.602 21.4295 124.425 21.2148 124.182 21.0655C123.949 20.9068 123.636 20.8275 123.244 20.8275C123.011 20.8275 122.787 20.8555 122.572 20.9115C122.367 20.9582 122.189 21.0375 122.04 21.1495C121.891 21.2615 121.788 21.4108 121.732 21.5975H120.22C120.276 21.2428 120.402 20.9395 120.598 20.6875C120.794 20.4262 121.037 20.2115 121.326 20.0435C121.615 19.8755 121.923 19.7542 122.25 19.6795C122.586 19.5955 122.927 19.5535 123.272 19.5535C124.336 19.5535 125.101 19.8662 125.568 20.4915C126.044 21.1075 126.282 21.9568 126.282 23.0395V27.0295H125.036L124.98 26.0915C124.765 26.3808 124.509 26.6002 124.21 26.7495C123.921 26.8988 123.631 26.9968 123.342 27.0435C123.053 27.0902 122.787 27.1135 122.544 27.1135ZM122.768 25.8955C123.188 25.8955 123.557 25.8255 123.874 25.6855C124.191 25.5362 124.439 25.3262 124.616 25.0555C124.793 24.7755 124.882 24.4488 124.882 24.0755V23.7675H123.566C123.295 23.7675 123.029 23.7768 122.768 23.7955C122.516 23.8048 122.283 23.8422 122.068 23.9075C121.863 23.9635 121.695 24.0615 121.564 24.2015C121.443 24.3415 121.382 24.5422 121.382 24.8035C121.382 25.0555 121.447 25.2608 121.578 25.4195C121.709 25.5782 121.881 25.6995 122.096 25.7835C122.311 25.8582 122.535 25.8955 122.768 25.8955ZM130.868 27.1135C130.075 27.1135 129.506 26.8988 129.16 26.4695C128.824 26.0308 128.656 25.4195 128.656 24.6355V20.9395H127.48V19.6515H128.656V17.5095H130.098V19.6515H132.352V20.9395H130.098V24.3975C130.098 24.6588 130.122 24.8968 130.168 25.1115C130.224 25.3262 130.327 25.4942 130.476 25.6155C130.626 25.7368 130.84 25.8022 131.12 25.8115C131.335 25.8115 131.522 25.7742 131.68 25.6995C131.848 25.6248 131.984 25.5408 132.086 25.4475L132.646 26.5255C132.469 26.6655 132.282 26.7822 132.086 26.8755C131.9 26.9595 131.704 27.0202 131.498 27.0575C131.293 27.0948 131.083 27.1135 130.868 27.1135ZM136.976 27.1135C136.211 27.1135 135.562 26.9595 135.03 26.6515C134.498 26.3342 134.092 25.8908 133.812 25.3215C133.542 24.7522 133.406 24.0942 133.406 23.3475C133.406 22.5915 133.546 21.9335 133.826 21.3735C134.106 20.8042 134.512 20.3608 135.044 20.0435C135.576 19.7168 136.225 19.5535 136.99 19.5535C137.756 19.5535 138.404 19.7168 138.936 20.0435C139.468 20.3608 139.87 20.8042 140.14 21.3735C140.411 21.9428 140.546 22.6055 140.546 23.3615C140.546 24.0988 140.406 24.7522 140.126 25.3215C139.856 25.8908 139.454 26.3342 138.922 26.6515C138.4 26.9595 137.751 27.1135 136.976 27.1135ZM136.976 25.8255C137.48 25.8255 137.886 25.7135 138.194 25.4895C138.512 25.2655 138.745 24.9668 138.894 24.5935C139.044 24.2108 139.118 23.7955 139.118 23.3475C139.118 22.8995 139.044 22.4888 138.894 22.1155C138.745 21.7422 138.512 21.4435 138.194 21.2195C137.886 20.9862 137.48 20.8695 136.976 20.8695C136.482 20.8695 136.076 20.9862 135.758 21.2195C135.441 21.4435 135.208 21.7422 135.058 22.1155C134.918 22.4888 134.848 22.8995 134.848 23.3475C134.848 23.8048 134.918 24.2202 135.058 24.5935C135.208 24.9668 135.441 25.2655 135.758 25.4895C136.076 25.7135 136.482 25.8255 136.976 25.8255ZM142.026 27.0295V19.6515H143.384L143.454 20.7155C143.641 20.4262 143.855 20.1975 144.098 20.0295C144.341 19.8615 144.607 19.7402 144.896 19.6655C145.185 19.5908 145.489 19.5535 145.806 19.5535C145.89 19.5535 145.969 19.5535 146.044 19.5535C146.119 19.5535 146.189 19.5535 146.254 19.5535V20.9395H145.806C145.274 20.9395 144.831 21.0468 144.476 21.2615C144.131 21.4762 143.874 21.7748 143.706 22.1575C143.547 22.5402 143.468 22.9788 143.468 23.4735V27.0295H142.026Z" fill="#8D79FF"/>
<path d="M175.941 39.5356L178.74 49.9917C179.173 51.1921 178.023 52.3592 176.816 51.9438L166.178 49.2781C164.255 48.6163 164.096 45.9591 165.925 45.0721L167.057 44.5236C168.934 43.6137 170.442 42.0879 171.329 40.2006L171.735 39.3387C172.599 37.5016 175.253 37.6259 175.941 39.5356Z" fill="#8D79FF"/>
<defs>
<filter id="filter0_d_9274_1514" x="4.8335" y="3.02951" width="42" height="42" filterUnits="userSpaceOnUse" color-interpolation-filters="sRGB">
<feFlood flood-opacity="0" result="BackgroundImageFix"/>
<feColorMatrix in="SourceAlpha" type="matrix" values="0 0 0 0 0 0 0 0 0 0 0 0 0 0 0 0 0 0 127 0" result="hardAlpha"/>
<feOffset dy="2"/>
<feGaussianBlur stdDeviation="4"/>
<feComposite in2="hardAlpha" operator="out"/>
<feColorMatrix type="matrix" values="0 0 0 0 0.498039 0 0 0 0 0.407843 0 0 0 0 1 0 0 0 0.25 0"/>
<feBlend mode="normal" in2="BackgroundImageFix" result="effect1_dropShadow_9274_1514"/>
<feBlend mode="normal" in="SourceGraphic" in2="effect1_dropShadow_9274_1514" result="shape"/>
</filter>
<filter id="filter1_i_9274_1514" x="15.623" y="11.8095" width="21.9447" height="21.9638" filterUnits="userSpaceOnUse" color-interpolation-filters="sRGB">
<feFlood flood-opacity="0" result="BackgroundImageFix"/>
<feBlend mode="normal" in="SourceGraphic" in2="BackgroundImageFix" result="shape"/>
<feColorMatrix in="SourceAlpha" type="matrix" values="0 0 0 0 0 0 0 0 0 0 0 0 0 0 0 0 0 0 127 0" result="hardAlpha"/>
<feOffset dx="1.52381" dy="1.52381"/>
<feGaussianBlur stdDeviation="1.14286"/>
<feComposite in2="hardAlpha" operator="arithmetic" k2="-1" k3="1"/>
<feColorMatrix type="matrix" values="0 0 0 0 1 0 0 0 0 1 0 0 0 0 1 0 0 0 0.5 0"/>
<feBlend mode="normal" in2="shape" result="effect1_innerShadow_9274_1514"/>
</filter>
<radialGradient id="paint0_radial_9274_1514" cx="0" cy="0" r="1" gradientUnits="userSpaceOnUse" gradientTransform="translate(26.7141 28.6341) rotate(-60.1772) scale(20.1761 20.1666)">
<stop stop-color="#7F68FF"/>
<stop offset="1" stop-color="#BEB2FF"/>
</radialGradient>
</defs>
</svg>
