<svg width="187" height="52" viewBox="0 0 187 52" fill="none" xmlns="http://www.w3.org/2000/svg">
<path d="M8 30C8 17.8497 17.8497 8 30 8H165C177.15 8 187 17.8497 187 30C187 42.1503 177.15 52 165 52H30C17.8497 52 8 42.1503 8 30Z" fill="#FFB128" fill-opacity="0.1"/>
<g filter="url(#filter0_d_9274_1526)">
<g filter="url(#filter1_i_9274_1526)">
<path fill-rule="evenodd" clip-rule="evenodd" d="M22.0312 25.8081C22.0312 23.6088 23.8142 21.8258 26.0135 21.8258H39.9865C42.1858 21.8258 43.9688 23.6088 43.9688 25.8081V34.1919C43.9688 36.3912 42.1858 38.1742 39.9865 38.1742H26.0135C23.8142 38.1742 22.0312 36.3912 22.0312 34.1919V25.8081ZM36.0444 29.3815C36.4959 29.6701 36.4959 30.3297 36.0444 30.6184L32.0179 33.1927C31.5293 33.5051 30.8884 33.1542 30.8884 32.5743V27.4255C30.8884 26.8456 31.5293 26.4947 32.0179 26.8071L36.0444 29.3815Z" fill="url(#paint0_radial_9274_1526)"/>
</g>
</g>
<path d="M57.963 35L54.281 25.102H55.905L58.999 33.74L62.079 25.102H63.675L60.021 35H57.963ZM64.7297 35V27.622H66.1717V35H64.7297ZM65.4437 26.642C65.1637 26.642 64.935 26.558 64.7577 26.39C64.5897 26.2127 64.5057 25.9887 64.5057 25.718C64.5057 25.4473 64.5943 25.228 64.7717 25.06C64.949 24.8827 65.173 24.794 65.4437 24.794C65.6957 24.794 65.915 24.8827 66.1017 25.06C66.2977 25.228 66.3957 25.4473 66.3957 25.718C66.3957 25.9887 66.3023 26.2127 66.1157 26.39C65.9383 26.558 65.7143 26.642 65.4437 26.642ZM70.9382 35.084C70.2009 35.084 69.5896 34.9207 69.1042 34.594C68.6282 34.258 68.2689 33.8053 68.0262 33.236C67.7929 32.6667 67.6762 32.0273 67.6762 31.318C67.6762 30.5993 67.7976 29.9553 68.0402 29.386C68.2829 28.8073 68.6516 28.3547 69.1462 28.028C69.6409 27.692 70.2662 27.524 71.0222 27.524C71.3022 27.524 71.5822 27.5567 71.8622 27.622C72.1516 27.6873 72.4176 27.79 72.6602 27.93C72.9122 28.0607 73.1269 28.238 73.3042 28.462V25.102H74.7462V35H73.3602L73.3042 33.992C73.1362 34.244 72.9262 34.454 72.6742 34.622C72.4316 34.7807 72.1609 34.8973 71.8622 34.972C71.5636 35.0467 71.2556 35.084 70.9382 35.084ZM71.1762 33.796C71.6522 33.796 72.0442 33.6793 72.3522 33.446C72.6696 33.2127 72.9076 32.9047 73.0662 32.522C73.2249 32.1393 73.3042 31.724 73.3042 31.276C73.3042 30.8187 73.2249 30.408 73.0662 30.044C72.9169 29.6707 72.6836 29.3767 72.3662 29.162C72.0582 28.938 71.6616 28.826 71.1762 28.826C70.6722 28.826 70.2709 28.9427 69.9722 29.176C69.6736 29.4 69.4542 29.7033 69.3142 30.086C69.1836 30.4687 69.1182 30.8887 69.1182 31.346C69.1182 31.682 69.1556 31.9993 69.2302 32.298C69.3049 32.5873 69.4216 32.8487 69.5802 33.082C69.7482 33.306 69.9629 33.4833 70.2242 33.614C70.4856 33.7353 70.8029 33.796 71.1762 33.796ZM79.7628 35.084C78.9881 35.084 78.3395 34.9253 77.8168 34.608C77.2941 34.2907 76.8975 33.852 76.6268 33.292C76.3655 32.7227 76.2348 32.0693 76.2348 31.332C76.2348 30.5853 76.3701 29.9273 76.6408 29.358C76.9208 28.7887 77.3221 28.3407 77.8448 28.014C78.3768 27.6873 79.0161 27.524 79.7628 27.524C80.3321 27.524 80.8268 27.6313 81.2468 27.846C81.6668 28.0513 82.0121 28.3313 82.2828 28.686C82.5628 29.0407 82.7681 29.4373 82.8988 29.876C83.0295 30.3053 83.0855 30.7533 83.0668 31.22C83.0668 31.3227 83.0621 31.4207 83.0528 31.514C83.0435 31.6073 83.0341 31.7053 83.0248 31.808H77.6908C77.7188 32.1813 77.8121 32.522 77.9708 32.83C78.1388 33.138 78.3721 33.3853 78.6708 33.572C78.9695 33.7493 79.3381 33.838 79.7768 33.838C80.0195 33.838 80.2528 33.81 80.4768 33.754C80.7101 33.6887 80.9155 33.5907 81.0928 33.46C81.2795 33.32 81.4101 33.1427 81.4848 32.928H82.9408C82.8195 33.4227 82.6001 33.8333 82.2828 34.16C81.9748 34.4773 81.5968 34.7107 81.1488 34.86C80.7101 35.0093 80.2481 35.084 79.7628 35.084ZM77.7188 30.66H81.6388C81.6295 30.296 81.5455 29.974 81.3868 29.694C81.2281 29.4047 81.0088 29.1807 80.7288 29.022C80.4488 28.854 80.1128 28.77 79.7208 28.77C79.2915 28.77 78.9321 28.8587 78.6428 29.036C78.3628 29.2133 78.1435 29.4467 77.9848 29.736C77.8355 30.016 77.7468 30.324 77.7188 30.66ZM87.8439 35.084C87.0785 35.084 86.4299 34.93 85.8979 34.622C85.3659 34.3047 84.9599 33.8613 84.6799 33.292C84.4092 32.7227 84.2739 32.0647 84.2739 31.318C84.2739 30.562 84.4139 29.904 84.6939 29.344C84.9739 28.7747 85.3799 28.3313 85.9119 28.014C86.4439 27.6873 87.0925 27.524 87.8579 27.524C88.6232 27.524 89.2719 27.6873 89.8039 28.014C90.3359 28.3313 90.7372 28.7747 91.0079 29.344C91.2785 29.9133 91.4139 30.576 91.4139 31.332C91.4139 32.0693 91.2739 32.7227 90.9939 33.292C90.7232 33.8613 90.3219 34.3047 89.7899 34.622C89.2672 34.93 88.6185 35.084 87.8439 35.084ZM87.8439 33.796C88.3479 33.796 88.7539 33.684 89.0619 33.46C89.3792 33.236 89.6125 32.9373 89.7619 32.564C89.9112 32.1813 89.9859 31.766 89.9859 31.318C89.9859 30.87 89.9112 30.4593 89.7619 30.086C89.6125 29.7127 89.3792 29.414 89.0619 29.19C88.7539 28.9567 88.3479 28.84 87.8439 28.84C87.3492 28.84 86.9432 28.9567 86.6259 29.19C86.3085 29.414 86.0752 29.7127 85.9259 30.086C85.7859 30.4593 85.7159 30.87 85.7159 31.318C85.7159 31.7753 85.7859 32.1907 85.9259 32.564C86.0752 32.9373 86.3085 33.236 86.6259 33.46C86.9432 33.684 87.3492 33.796 87.8439 33.796ZM101.104 35.112C100.077 35.112 99.2182 34.8973 98.5275 34.468C97.8462 34.0387 97.3328 33.446 96.9875 32.69C96.6422 31.9247 96.4695 31.052 96.4695 30.072C96.4695 29.3347 96.5628 28.658 96.7495 28.042C96.9455 27.4167 97.2348 26.8753 97.6175 26.418C98.0002 25.9607 98.4762 25.6107 99.0455 25.368C99.6242 25.116 100.292 24.99 101.048 24.99C101.785 24.99 102.434 25.1067 102.994 25.34C103.554 25.564 104.016 25.8907 104.38 26.32C104.753 26.7493 105.005 27.2673 105.136 27.874H103.568C103.484 27.5473 103.325 27.272 103.092 27.048C102.868 26.824 102.583 26.6513 102.238 26.53C101.902 26.4087 101.519 26.348 101.09 26.348C100.53 26.348 100.054 26.446 99.6615 26.642C99.2695 26.838 98.9475 27.1087 98.6955 27.454C98.4528 27.79 98.2755 28.182 98.1635 28.63C98.0515 29.078 97.9955 29.554 97.9955 30.058C97.9955 30.73 98.1028 31.346 98.3175 31.906C98.5322 32.466 98.8682 32.914 99.3255 33.25C99.7828 33.586 100.38 33.754 101.118 33.754C101.687 33.754 102.177 33.656 102.588 33.46C102.998 33.2547 103.32 32.9653 103.554 32.592C103.787 32.2093 103.908 31.7473 103.918 31.206H100.852V29.904H105.374V30.632C105.374 31.5373 105.206 32.326 104.87 32.998C104.534 33.67 104.048 34.1927 103.414 34.566C102.779 34.93 102.009 35.112 101.104 35.112ZM110.114 35.084C109.34 35.084 108.691 34.9253 108.168 34.608C107.646 34.2907 107.249 33.852 106.978 33.292C106.717 32.7227 106.586 32.0693 106.586 31.332C106.586 30.5853 106.722 29.9273 106.992 29.358C107.272 28.7887 107.674 28.3407 108.196 28.014C108.728 27.6873 109.368 27.524 110.114 27.524C110.684 27.524 111.178 27.6313 111.598 27.846C112.018 28.0513 112.364 28.3313 112.634 28.686C112.914 29.0407 113.12 29.4373 113.25 29.876C113.381 30.3053 113.437 30.7533 113.418 31.22C113.418 31.3227 113.414 31.4207 113.404 31.514C113.395 31.6073 113.386 31.7053 113.376 31.808H108.042C108.07 32.1813 108.164 32.522 108.322 32.83C108.49 33.138 108.724 33.3853 109.022 33.572C109.321 33.7493 109.69 33.838 110.128 33.838C110.371 33.838 110.604 33.81 110.828 33.754C111.062 33.6887 111.267 33.5907 111.444 33.46C111.631 33.32 111.762 33.1427 111.836 32.928H113.292C113.171 33.4227 112.952 33.8333 112.634 34.16C112.326 34.4773 111.948 34.7107 111.5 34.86C111.062 35.0093 110.6 35.084 110.114 35.084ZM108.07 30.66H111.99C111.981 30.296 111.897 29.974 111.738 29.694C111.58 29.4047 111.36 29.1807 111.08 29.022C110.8 28.854 110.464 28.77 110.072 28.77C109.643 28.77 109.284 28.8587 108.994 29.036C108.714 29.2133 108.495 29.4467 108.336 29.736C108.187 30.016 108.098 30.324 108.07 30.66ZM114.905 35V27.622H116.277L116.347 28.658C116.534 28.3873 116.758 28.1727 117.019 28.014C117.281 27.846 117.561 27.7247 117.859 27.65C118.158 27.566 118.447 27.524 118.727 27.524C119.437 27.524 119.992 27.678 120.393 27.986C120.804 28.2847 121.093 28.6907 121.261 29.204C121.439 29.708 121.527 30.282 121.527 30.926V35H120.071V31.22C120.071 30.9213 120.053 30.6273 120.015 30.338C119.978 30.0487 119.899 29.792 119.777 29.568C119.665 29.3347 119.502 29.1527 119.287 29.022C119.073 28.882 118.783 28.812 118.419 28.812C117.971 28.812 117.593 28.9333 117.285 29.176C116.977 29.4187 116.744 29.7453 116.585 30.156C116.427 30.5667 116.347 31.0287 116.347 31.542V35H114.905ZM126.493 35.084C125.719 35.084 125.07 34.9253 124.547 34.608C124.025 34.2907 123.628 33.852 123.357 33.292C123.096 32.7227 122.965 32.0693 122.965 31.332C122.965 30.5853 123.101 29.9273 123.371 29.358C123.651 28.7887 124.053 28.3407 124.575 28.014C125.107 27.6873 125.747 27.524 126.493 27.524C127.063 27.524 127.557 27.6313 127.977 27.846C128.397 28.0513 128.743 28.3313 129.013 28.686C129.293 29.0407 129.499 29.4373 129.629 29.876C129.76 30.3053 129.816 30.7533 129.797 31.22C129.797 31.3227 129.793 31.4207 129.783 31.514C129.774 31.6073 129.765 31.7053 129.755 31.808H124.421C124.449 32.1813 124.543 32.522 124.701 32.83C124.869 33.138 125.103 33.3853 125.401 33.572C125.7 33.7493 126.069 33.838 126.507 33.838C126.75 33.838 126.983 33.81 127.207 33.754C127.441 33.6887 127.646 33.5907 127.823 33.46C128.01 33.32 128.141 33.1427 128.215 32.928H129.671C129.55 33.4227 129.331 33.8333 129.013 34.16C128.705 34.4773 128.327 34.7107 127.879 34.86C127.441 35.0093 126.979 35.084 126.493 35.084ZM124.449 30.66H128.369C128.36 30.296 128.276 29.974 128.117 29.694C127.959 29.4047 127.739 29.1807 127.459 29.022C127.179 28.854 126.843 28.77 126.451 28.77C126.022 28.77 125.663 28.8587 125.373 29.036C125.093 29.2133 124.874 29.4467 124.715 29.736C124.566 30.016 124.477 30.324 124.449 30.66ZM131.284 35V27.622H132.642L132.712 28.686C132.899 28.3967 133.114 28.168 133.356 28C133.599 27.832 133.865 27.7107 134.154 27.636C134.444 27.5613 134.747 27.524 135.064 27.524C135.148 27.524 135.228 27.524 135.302 27.524C135.377 27.524 135.447 27.524 135.512 27.524V28.91H135.064C134.532 28.91 134.089 29.0173 133.734 29.232C133.389 29.4467 133.132 29.7453 132.964 30.128C132.806 30.5107 132.726 30.9493 132.726 31.444V35H131.284ZM138.955 35.084C138.619 35.084 138.292 35.042 137.975 34.958C137.667 34.8647 137.391 34.7293 137.149 34.552C136.906 34.3653 136.71 34.1367 136.561 33.866C136.421 33.586 136.351 33.2593 136.351 32.886C136.351 32.438 136.435 32.0693 136.603 31.78C136.78 31.4813 137.013 31.2527 137.303 31.094C137.592 30.926 137.923 30.8093 138.297 30.744C138.679 30.6693 139.076 30.632 139.487 30.632H141.293C141.293 30.268 141.237 29.9507 141.125 29.68C141.013 29.4 140.835 29.1853 140.593 29.036C140.359 28.8773 140.047 28.798 139.655 28.798C139.421 28.798 139.197 28.826 138.983 28.882C138.777 28.9287 138.6 29.008 138.451 29.12C138.301 29.232 138.199 29.3813 138.143 29.568H136.631C136.687 29.2133 136.813 28.91 137.009 28.658C137.205 28.3967 137.447 28.182 137.737 28.014C138.026 27.846 138.334 27.7247 138.661 27.65C138.997 27.566 139.337 27.524 139.683 27.524C140.747 27.524 141.512 27.8367 141.979 28.462C142.455 29.078 142.693 29.9273 142.693 31.01V35H141.447L141.391 34.062C141.176 34.3513 140.919 34.5707 140.621 34.72C140.331 34.8693 140.042 34.9673 139.753 35.014C139.463 35.0607 139.197 35.084 138.955 35.084ZM139.179 33.866C139.599 33.866 139.967 33.796 140.285 33.656C140.602 33.5067 140.849 33.2967 141.027 33.026C141.204 32.746 141.293 32.4193 141.293 32.046V31.738H139.977C139.706 31.738 139.44 31.7473 139.179 31.766C138.927 31.7753 138.693 31.8127 138.479 31.878C138.273 31.934 138.105 32.032 137.975 32.172C137.853 32.312 137.793 32.5127 137.793 32.774C137.793 33.026 137.858 33.2313 137.989 33.39C138.119 33.5487 138.292 33.67 138.507 33.754C138.721 33.8287 138.945 33.866 139.179 33.866ZM147.279 35.084C146.486 35.084 145.916 34.8693 145.571 34.44C145.235 34.0013 145.067 33.39 145.067 32.606V28.91H143.891V27.622H145.067V25.48H146.509V27.622H148.763V28.91H146.509V32.368C146.509 32.6293 146.532 32.8673 146.579 33.082C146.635 33.2967 146.738 33.4647 146.887 33.586C147.036 33.7073 147.251 33.7727 147.531 33.782C147.746 33.782 147.932 33.7447 148.091 33.67C148.259 33.5953 148.394 33.5113 148.497 33.418L149.057 34.496C148.88 34.636 148.693 34.7527 148.497 34.846C148.31 34.93 148.114 34.9907 147.909 35.028C147.704 35.0653 147.494 35.084 147.279 35.084ZM153.387 35.084C152.622 35.084 151.973 34.93 151.441 34.622C150.909 34.3047 150.503 33.8613 150.223 33.292C149.952 32.7227 149.817 32.0647 149.817 31.318C149.817 30.562 149.957 29.904 150.237 29.344C150.517 28.7747 150.923 28.3313 151.455 28.014C151.987 27.6873 152.636 27.524 153.401 27.524C154.166 27.524 154.815 27.6873 155.347 28.014C155.879 28.3313 156.28 28.7747 156.551 29.344C156.822 29.9133 156.957 30.576 156.957 31.332C156.957 32.0693 156.817 32.7227 156.537 33.292C156.266 33.8613 155.865 34.3047 155.333 34.622C154.81 34.93 154.162 35.084 153.387 35.084ZM153.387 33.796C153.891 33.796 154.297 33.684 154.605 33.46C154.922 33.236 155.156 32.9373 155.305 32.564C155.454 32.1813 155.529 31.766 155.529 31.318C155.529 30.87 155.454 30.4593 155.305 30.086C155.156 29.7127 154.922 29.414 154.605 29.19C154.297 28.9567 153.891 28.84 153.387 28.84C152.892 28.84 152.486 28.9567 152.169 29.19C151.852 29.414 151.618 29.7127 151.469 30.086C151.329 30.4593 151.259 30.87 151.259 31.318C151.259 31.7753 151.329 32.1907 151.469 32.564C151.618 32.9373 151.852 33.236 152.169 33.46C152.486 33.684 152.892 33.796 153.387 33.796ZM158.437 35V27.622H159.795L159.865 28.686C160.051 28.3967 160.266 28.168 160.509 28C160.751 27.832 161.017 27.7107 161.307 27.636C161.596 27.5613 161.899 27.524 162.217 27.524C162.301 27.524 162.38 27.524 162.455 27.524C162.529 27.524 162.599 27.524 162.665 27.524V28.91H162.217C161.685 28.91 161.241 29.0173 160.887 29.232C160.541 29.4467 160.285 29.7453 160.117 30.128C159.958 30.5107 159.879 30.9493 159.879 31.444V35H158.437Z" fill="#FFB128"/>
<path d="M2.89211 12.4939L0.0931271 2.03782C-0.339763 0.83737 0.81044 -0.329705 2.01707 0.0856604L12.6556 2.75142C14.5781 3.41322 14.7376 6.07039 12.908 6.95739L11.7765 7.50595C9.89979 8.41581 8.39177 9.94166 7.50401 11.8289L7.09859 12.6909C6.23447 14.5279 3.58079 14.4036 2.89211 12.4939Z" fill="#FFB128"/>
<defs>
<filter id="filter0_d_9274_1526" x="12" y="11" width="42" height="42" filterUnits="userSpaceOnUse" color-interpolation-filters="sRGB">
<feFlood flood-opacity="0" result="BackgroundImageFix"/>
<feColorMatrix in="SourceAlpha" type="matrix" values="0 0 0 0 0 0 0 0 0 0 0 0 0 0 0 0 0 0 127 0" result="hardAlpha"/>
<feOffset dy="2"/>
<feGaussianBlur stdDeviation="4"/>
<feComposite in2="hardAlpha" operator="out"/>
<feColorMatrix type="matrix" values="0 0 0 0 1 0 0 0 0 0.67451 0 0 0 0 0.0980392 0 0 0 0.25 0"/>
<feBlend mode="normal" in2="BackgroundImageFix" result="effect1_dropShadow_9274_1526"/>
<feBlend mode="normal" in="SourceGraphic" in2="effect1_dropShadow_9274_1526" result="shape"/>
</filter>
<filter id="filter1_i_9274_1526" x="22.0312" y="21.8258" width="23.4613" height="17.8721" filterUnits="userSpaceOnUse" color-interpolation-filters="sRGB">
<feFlood flood-opacity="0" result="BackgroundImageFix"/>
<feBlend mode="normal" in="SourceGraphic" in2="BackgroundImageFix" result="shape"/>
<feColorMatrix in="SourceAlpha" type="matrix" values="0 0 0 0 0 0 0 0 0 0 0 0 0 0 0 0 0 0 127 0" result="hardAlpha"/>
<feOffset dx="1.52381" dy="1.52381"/>
<feGaussianBlur stdDeviation="1.14286"/>
<feComposite in2="hardAlpha" operator="arithmetic" k2="-1" k3="1"/>
<feColorMatrix type="matrix" values="0 0 0 0 1 0 0 0 0 1 0 0 0 0 1 0 0 0 0.5 0"/>
<feBlend mode="normal" in2="shape" result="effect1_innerShadow_9274_1526"/>
</filter>
<radialGradient id="paint0_radial_9274_1526" cx="0" cy="0" r="1" gradientUnits="userSpaceOnUse" gradientTransform="translate(33.9461 35.2825) rotate(-52.4062) scale(17.6691 19.7862)">
<stop stop-color="#FFAC19"/>
<stop offset="1" stop-color="#FFCE78"/>
</radialGradient>
</defs>
</svg>
