<svg width="190" height="52" viewBox="0 0 190 52" fill="none" xmlns="http://www.w3.org/2000/svg">
<path d="M8.5 22C8.5 9.84974 18.3497 0 30.5 0H167.5C179.65 0 189.5 9.84974 189.5 22C189.5 34.1503 179.65 44 167.5 44H30.5C18.3497 44 8.5 34.1503 8.5 22Z" fill="#FF745E" fill-opacity="0.1"/>
<g filter="url(#filter0_d_9274_1518)">
<g filter="url(#filter1_i_9274_1518)">
<path d="M29.8731 16.7177C29.0142 16.7177 28.318 17.414 28.318 18.2729C28.318 19.1318 29.0142 19.828 29.8731 19.828C30.732 19.828 31.4283 19.1318 31.4283 18.2729C31.4283 17.414 30.732 16.7177 29.8731 16.7177Z" fill="url(#paint0_radial_9274_1518)"/>
<path fill-rule="evenodd" clip-rule="evenodd" d="M28.0833 12.724C25.9518 12.724 24.2239 14.4519 24.2239 16.5833V27.4167C24.2239 29.5481 25.9518 31.276 28.0833 31.276H38.9166C41.0481 31.276 42.776 29.5481 42.776 27.4167V16.5833C42.776 14.4519 41.0481 12.724 38.9166 12.724H28.0833ZM25.4426 16.5833C25.4426 15.125 26.6249 13.9427 28.0833 13.9427H38.9166C40.375 13.9427 41.5572 15.125 41.5572 16.5833V19.3662C40.9445 19.2239 40.3064 19.1488 39.6514 19.1488C36.2002 19.1488 33.2364 21.2308 31.9455 24.2064C30.9314 23.2144 29.5426 22.6019 28.0107 22.6019C27.086 22.6019 26.2127 22.8253 25.4426 23.2209V16.5833Z" fill="url(#paint1_radial_9274_1518)"/>
</g>
</g>
<path d="M55.8046 27V17.102H57.2886V27H55.8046ZM59.339 27V19.622H60.697L60.781 20.49C60.949 20.2473 61.1357 20.0607 61.341 19.93C61.5557 19.79 61.7844 19.6873 62.027 19.622C62.2697 19.5567 62.517 19.524 62.769 19.524C63.2637 19.524 63.6697 19.6267 63.987 19.832C64.3137 20.0373 64.5657 20.3173 64.743 20.672C64.9204 20.42 65.121 20.21 65.345 20.042C65.569 19.8647 65.8164 19.734 66.087 19.65C66.3577 19.566 66.647 19.524 66.955 19.524C67.5057 19.524 67.949 19.6453 68.285 19.888C68.6304 20.1213 68.8777 20.4387 69.027 20.84C69.1857 21.2413 69.265 21.7033 69.265 22.226V27H67.809V22.8C67.809 22.576 67.7997 22.352 67.781 22.128C67.7624 21.904 67.7064 21.694 67.613 21.498C67.529 21.2927 67.403 21.1293 67.235 21.008C67.0764 20.8773 66.8477 20.812 66.549 20.812C66.2597 20.812 66.017 20.8773 65.821 21.008C65.6344 21.1387 65.4804 21.316 65.359 21.54C65.247 21.7547 65.163 21.988 65.107 22.24C65.0604 22.492 65.037 22.744 65.037 22.996V27H63.581V22.786C63.581 22.5713 63.5717 22.352 63.553 22.128C63.5344 21.904 63.4877 21.694 63.413 21.498C63.3384 21.2927 63.2124 21.1293 63.035 21.008C62.867 20.8773 62.6384 20.812 62.349 20.812C61.929 20.812 61.6024 20.9333 61.369 21.176C61.145 21.4093 60.991 21.6987 60.907 22.044C60.823 22.38 60.781 22.702 60.781 23.01V27H59.339ZM73.3121 27.084C72.9761 27.084 72.6495 27.042 72.3321 26.958C72.0241 26.8647 71.7488 26.7293 71.5061 26.552C71.2635 26.3653 71.0675 26.1367 70.9181 25.866C70.7781 25.586 70.7081 25.2593 70.7081 24.886C70.7081 24.438 70.7921 24.0693 70.9601 23.78C71.1375 23.4813 71.3708 23.2527 71.6601 23.094C71.9495 22.926 72.2808 22.8093 72.6541 22.744C73.0368 22.6693 73.4335 22.632 73.8441 22.632H75.6501C75.6501 22.268 75.5941 21.9507 75.4821 21.68C75.3701 21.4 75.1928 21.1853 74.9501 21.036C74.7168 20.8773 74.4041 20.798 74.0121 20.798C73.7788 20.798 73.5548 20.826 73.3401 20.882C73.1348 20.9287 72.9575 21.008 72.8081 21.12C72.6588 21.232 72.5561 21.3813 72.5001 21.568H70.9881C71.0441 21.2133 71.1701 20.91 71.3661 20.658C71.5621 20.3967 71.8048 20.182 72.0941 20.014C72.3835 19.846 72.6915 19.7247 73.0181 19.65C73.3541 19.566 73.6948 19.524 74.0401 19.524C75.1041 19.524 75.8695 19.8367 76.3361 20.462C76.8121 21.078 77.0501 21.9273 77.0501 23.01V27H75.8041L75.7481 26.062C75.5335 26.3513 75.2768 26.5707 74.9781 26.72C74.6888 26.8693 74.3995 26.9673 74.1101 27.014C73.8208 27.0607 73.5548 27.084 73.3121 27.084ZM73.5361 25.866C73.9561 25.866 74.3248 25.796 74.6421 25.656C74.9595 25.5067 75.2068 25.2967 75.3841 25.026C75.5615 24.746 75.6501 24.4193 75.6501 24.046V23.738H74.3341C74.0635 23.738 73.7975 23.7473 73.5361 23.766C73.2841 23.7753 73.0508 23.8127 72.8361 23.878C72.6308 23.934 72.4628 24.032 72.3321 24.172C72.2108 24.312 72.1501 24.5127 72.1501 24.774C72.1501 25.026 72.2155 25.2313 72.3461 25.39C72.4768 25.5487 72.6495 25.67 72.8641 25.754C73.0788 25.8287 73.3028 25.866 73.5361 25.866ZM82.0984 30.346C81.5758 30.346 81.0904 30.262 80.6424 30.094C80.1944 29.9353 79.8118 29.6787 79.4944 29.324C79.1864 28.9787 78.9764 28.5353 78.8644 27.994H80.3624C80.4278 28.246 80.5538 28.4467 80.7404 28.596C80.9271 28.7547 81.1464 28.8667 81.3984 28.932C81.6504 28.9973 81.9024 29.03 82.1544 29.03C82.6304 29.03 83.0131 28.932 83.3024 28.736C83.5918 28.54 83.7971 28.274 83.9184 27.938C84.0491 27.6113 84.1144 27.238 84.1144 26.818V25.964C83.9558 26.2347 83.7458 26.454 83.4844 26.622C83.2231 26.79 82.9431 26.9113 82.6444 26.986C82.3551 27.0513 82.0564 27.084 81.7484 27.084C80.9924 27.084 80.3764 26.916 79.9004 26.58C79.4244 26.244 79.0698 25.796 78.8364 25.236C78.6124 24.6667 78.5004 24.0367 78.5004 23.346C78.5004 22.6367 78.6171 21.9927 78.8504 21.414C79.0931 20.8353 79.4618 20.378 79.9564 20.042C80.4511 19.6967 81.0764 19.524 81.8324 19.524C82.2711 19.524 82.6958 19.6033 83.1064 19.762C83.5171 19.9113 83.8578 20.154 84.1284 20.49L84.2124 19.622H85.5704V26.65C85.5704 27.406 85.4491 28.0593 85.2064 28.61C84.9638 29.17 84.5858 29.5993 84.0724 29.898C83.5591 30.1967 82.9011 30.346 82.0984 30.346ZM82.0144 25.796C82.4811 25.796 82.8684 25.684 83.1764 25.46C83.4938 25.2267 83.7318 24.9187 83.8904 24.536C84.0491 24.1533 84.1284 23.7333 84.1284 23.276C84.1284 22.8093 84.0491 22.394 83.8904 22.03C83.7318 21.6567 83.4984 21.3627 83.1904 21.148C82.8824 20.9333 82.4858 20.826 82.0004 20.826C81.4964 20.826 81.0951 20.9427 80.7964 21.176C80.4978 21.4 80.2784 21.7033 80.1384 22.086C80.0078 22.4593 79.9424 22.8747 79.9424 23.332C79.9424 23.7987 80.0124 24.2187 80.1524 24.592C80.2924 24.9653 80.5118 25.2593 80.8104 25.474C81.1184 25.6887 81.5198 25.796 82.0144 25.796ZM90.587 27.084C89.8124 27.084 89.1637 26.9253 88.641 26.608C88.1184 26.2907 87.7217 25.852 87.451 25.292C87.1897 24.7227 87.059 24.0693 87.059 23.332C87.059 22.5853 87.1944 21.9273 87.465 21.358C87.745 20.7887 88.1464 20.3407 88.669 20.014C89.201 19.6873 89.8404 19.524 90.587 19.524C91.1564 19.524 91.651 19.6313 92.071 19.846C92.491 20.0513 92.8364 20.3313 93.107 20.686C93.387 21.0407 93.5924 21.4373 93.723 21.876C93.8537 22.3053 93.9097 22.7533 93.891 23.22C93.891 23.3227 93.8864 23.4207 93.877 23.514C93.8677 23.6073 93.8584 23.7053 93.849 23.808H88.515C88.543 24.1813 88.6364 24.522 88.795 24.83C88.963 25.138 89.1964 25.3853 89.495 25.572C89.7937 25.7493 90.1624 25.838 90.601 25.838C90.8437 25.838 91.077 25.81 91.301 25.754C91.5344 25.6887 91.7397 25.5907 91.917 25.46C92.1037 25.32 92.2344 25.1427 92.309 24.928H93.765C93.6437 25.4227 93.4244 25.8333 93.107 26.16C92.799 26.4773 92.421 26.7107 91.973 26.86C91.5344 27.0093 91.0724 27.084 90.587 27.084ZM88.543 22.66H92.463C92.4537 22.296 92.3697 21.974 92.211 21.694C92.0524 21.4047 91.833 21.1807 91.553 21.022C91.273 20.854 90.937 20.77 90.545 20.77C90.1157 20.77 89.7564 20.8587 89.467 21.036C89.187 21.2133 88.9677 21.4467 88.809 21.736C88.6597 22.016 88.571 22.324 88.543 22.66ZM103.588 27.112C102.561 27.112 101.703 26.8973 101.012 26.468C100.331 26.0387 99.8172 25.446 99.4719 24.69C99.1266 23.9247 98.9539 23.052 98.9539 22.072C98.9539 21.3347 99.0472 20.658 99.2339 20.042C99.4299 19.4167 99.7192 18.8753 100.102 18.418C100.485 17.9607 100.961 17.6107 101.53 17.368C102.109 17.116 102.776 16.99 103.532 16.99C104.269 16.99 104.918 17.1067 105.478 17.34C106.038 17.564 106.5 17.8907 106.864 18.32C107.237 18.7493 107.489 19.2673 107.62 19.874H106.052C105.968 19.5473 105.809 19.272 105.576 19.048C105.352 18.824 105.067 18.6513 104.722 18.53C104.386 18.4087 104.003 18.348 103.574 18.348C103.014 18.348 102.538 18.446 102.146 18.642C101.754 18.838 101.432 19.1087 101.18 19.454C100.937 19.79 100.76 20.182 100.648 20.63C100.536 21.078 100.48 21.554 100.48 22.058C100.48 22.73 100.587 23.346 100.802 23.906C101.017 24.466 101.353 24.914 101.81 25.25C102.267 25.586 102.865 25.754 103.602 25.754C104.171 25.754 104.661 25.656 105.072 25.46C105.483 25.2547 105.805 24.9653 106.038 24.592C106.271 24.2093 106.393 23.7473 106.402 23.206H103.336V21.904H107.858V22.632C107.858 23.5373 107.69 24.326 107.354 24.998C107.018 25.67 106.533 26.1927 105.898 26.566C105.263 26.93 104.493 27.112 103.588 27.112ZM112.599 27.084C111.824 27.084 111.175 26.9253 110.653 26.608C110.13 26.2907 109.733 25.852 109.463 25.292C109.201 24.7227 109.071 24.0693 109.071 23.332C109.071 22.5853 109.206 21.9273 109.477 21.358C109.757 20.7887 110.158 20.3407 110.681 20.014C111.213 19.6873 111.852 19.524 112.599 19.524C113.168 19.524 113.663 19.6313 114.083 19.846C114.503 20.0513 114.848 20.3313 115.119 20.686C115.399 21.0407 115.604 21.4373 115.735 21.876C115.865 22.3053 115.921 22.7533 115.903 23.22C115.903 23.3227 115.898 23.4207 115.889 23.514C115.879 23.6073 115.87 23.7053 115.861 23.808H110.527C110.555 24.1813 110.648 24.522 110.807 24.83C110.975 25.138 111.208 25.3853 111.507 25.572C111.805 25.7493 112.174 25.838 112.613 25.838C112.855 25.838 113.089 25.81 113.313 25.754C113.546 25.6887 113.751 25.5907 113.929 25.46C114.115 25.32 114.246 25.1427 114.321 24.928H115.777C115.655 25.4227 115.436 25.8333 115.119 26.16C114.811 26.4773 114.433 26.7107 113.985 26.86C113.546 27.0093 113.084 27.084 112.599 27.084ZM110.555 22.66H114.475C114.465 22.296 114.381 21.974 114.223 21.694C114.064 21.4047 113.845 21.1807 113.565 21.022C113.285 20.854 112.949 20.77 112.557 20.77C112.127 20.77 111.768 20.8587 111.479 21.036C111.199 21.2133 110.979 21.4467 110.821 21.736C110.671 22.016 110.583 22.324 110.555 22.66ZM117.39 27V19.622H118.762L118.832 20.658C119.018 20.3873 119.242 20.1727 119.504 20.014C119.765 19.846 120.045 19.7247 120.344 19.65C120.642 19.566 120.932 19.524 121.212 19.524C121.921 19.524 122.476 19.678 122.878 19.986C123.288 20.2847 123.578 20.6907 123.746 21.204C123.923 21.708 124.012 22.282 124.012 22.926V27H122.556V23.22C122.556 22.9213 122.537 22.6273 122.5 22.338C122.462 22.0487 122.383 21.792 122.262 21.568C122.15 21.3347 121.986 21.1527 121.772 21.022C121.557 20.882 121.268 20.812 120.904 20.812C120.456 20.812 120.078 20.9333 119.77 21.176C119.462 21.4187 119.228 21.7453 119.07 22.156C118.911 22.5667 118.832 23.0287 118.832 23.542V27H117.39ZM128.978 27.084C128.203 27.084 127.554 26.9253 127.032 26.608C126.509 26.2907 126.112 25.852 125.842 25.292C125.58 24.7227 125.45 24.0693 125.45 23.332C125.45 22.5853 125.585 21.9273 125.856 21.358C126.136 20.7887 126.537 20.3407 127.06 20.014C127.592 19.6873 128.231 19.524 128.978 19.524C129.547 19.524 130.042 19.6313 130.462 19.846C130.882 20.0513 131.227 20.3313 131.498 20.686C131.778 21.0407 131.983 21.4373 132.114 21.876C132.244 22.3053 132.3 22.7533 132.282 23.22C132.282 23.3227 132.277 23.4207 132.268 23.514C132.258 23.6073 132.249 23.7053 132.24 23.808H126.906C126.934 24.1813 127.027 24.522 127.186 24.83C127.354 25.138 127.587 25.3853 127.886 25.572C128.184 25.7493 128.553 25.838 128.992 25.838C129.234 25.838 129.468 25.81 129.692 25.754C129.925 25.6887 130.13 25.5907 130.308 25.46C130.494 25.32 130.625 25.1427 130.7 24.928H132.156C132.034 25.4227 131.815 25.8333 131.498 26.16C131.19 26.4773 130.812 26.7107 130.364 26.86C129.925 27.0093 129.463 27.084 128.978 27.084ZM126.934 22.66H130.854C130.844 22.296 130.76 21.974 130.602 21.694C130.443 21.4047 130.224 21.1807 129.944 21.022C129.664 20.854 129.328 20.77 128.936 20.77C128.506 20.77 128.147 20.8587 127.858 21.036C127.578 21.2133 127.358 21.4467 127.2 21.736C127.05 22.016 126.962 22.324 126.934 22.66ZM133.769 27V19.622H135.127L135.197 20.686C135.383 20.3967 135.598 20.168 135.841 20C136.083 19.832 136.349 19.7107 136.639 19.636C136.928 19.5613 137.231 19.524 137.549 19.524C137.633 19.524 137.712 19.524 137.787 19.524C137.861 19.524 137.931 19.524 137.997 19.524V20.91H137.549C137.017 20.91 136.573 21.0173 136.219 21.232C135.873 21.4467 135.617 21.7453 135.449 22.128C135.29 22.5107 135.211 22.9493 135.211 23.444V27H133.769ZM141.439 27.084C141.103 27.084 140.776 27.042 140.459 26.958C140.151 26.8647 139.876 26.7293 139.633 26.552C139.39 26.3653 139.194 26.1367 139.045 25.866C138.905 25.586 138.835 25.2593 138.835 24.886C138.835 24.438 138.919 24.0693 139.087 23.78C139.264 23.4813 139.498 23.2527 139.787 23.094C140.076 22.926 140.408 22.8093 140.781 22.744C141.164 22.6693 141.56 22.632 141.971 22.632H143.777C143.777 22.268 143.721 21.9507 143.609 21.68C143.497 21.4 143.32 21.1853 143.077 21.036C142.844 20.8773 142.531 20.798 142.139 20.798C141.906 20.798 141.682 20.826 141.467 20.882C141.262 20.9287 141.084 21.008 140.935 21.12C140.786 21.232 140.683 21.3813 140.627 21.568H139.115C139.171 21.2133 139.297 20.91 139.493 20.658C139.689 20.3967 139.932 20.182 140.221 20.014C140.51 19.846 140.818 19.7247 141.145 19.65C141.481 19.566 141.822 19.524 142.167 19.524C143.231 19.524 143.996 19.8367 144.463 20.462C144.939 21.078 145.177 21.9273 145.177 23.01V27H143.931L143.875 26.062C143.66 26.3513 143.404 26.5707 143.105 26.72C142.816 26.8693 142.526 26.9673 142.237 27.014C141.948 27.0607 141.682 27.084 141.439 27.084ZM141.663 25.866C142.083 25.866 142.452 25.796 142.769 25.656C143.086 25.5067 143.334 25.2967 143.511 25.026C143.688 24.746 143.777 24.4193 143.777 24.046V23.738H142.461C142.19 23.738 141.924 23.7473 141.663 23.766C141.411 23.7753 141.178 23.8127 140.963 23.878C140.758 23.934 140.59 24.032 140.459 24.172C140.338 24.312 140.277 24.5127 140.277 24.774C140.277 25.026 140.342 25.2313 140.473 25.39C140.604 25.5487 140.776 25.67 140.991 25.754C141.206 25.8287 141.43 25.866 141.663 25.866ZM149.763 27.084C148.97 27.084 148.401 26.8693 148.055 26.44C147.719 26.0013 147.551 25.39 147.551 24.606V20.91H146.375V19.622H147.551V17.48H148.993V19.622H151.247V20.91H148.993V24.368C148.993 24.6293 149.017 24.8673 149.063 25.082C149.119 25.2967 149.222 25.4647 149.371 25.586C149.521 25.7073 149.735 25.7727 150.015 25.782C150.23 25.782 150.417 25.7447 150.575 25.67C150.743 25.5953 150.879 25.5113 150.981 25.418L151.541 26.496C151.364 26.636 151.177 26.7527 150.981 26.846C150.795 26.93 150.599 26.9907 150.393 27.028C150.188 27.0653 149.978 27.084 149.763 27.084ZM155.871 27.084C155.106 27.084 154.457 26.93 153.925 26.622C153.393 26.3047 152.987 25.8613 152.707 25.292C152.437 24.7227 152.301 24.0647 152.301 23.318C152.301 22.562 152.441 21.904 152.721 21.344C153.001 20.7747 153.407 20.3313 153.939 20.014C154.471 19.6873 155.12 19.524 155.885 19.524C156.651 19.524 157.299 19.6873 157.831 20.014C158.363 20.3313 158.765 20.7747 159.035 21.344C159.306 21.9133 159.441 22.576 159.441 23.332C159.441 24.0693 159.301 24.7227 159.021 25.292C158.751 25.8613 158.349 26.3047 157.817 26.622C157.295 26.93 156.646 27.084 155.871 27.084ZM155.871 25.796C156.375 25.796 156.781 25.684 157.089 25.46C157.407 25.236 157.64 24.9373 157.789 24.564C157.939 24.1813 158.013 23.766 158.013 23.318C158.013 22.87 157.939 22.4593 157.789 22.086C157.64 21.7127 157.407 21.414 157.089 21.19C156.781 20.9567 156.375 20.84 155.871 20.84C155.377 20.84 154.971 20.9567 154.653 21.19C154.336 21.414 154.103 21.7127 153.953 22.086C153.813 22.4593 153.743 22.87 153.743 23.318C153.743 23.7753 153.813 24.1907 153.953 24.564C154.103 24.9373 154.336 25.236 154.653 25.46C154.971 25.684 155.377 25.796 155.871 25.796ZM160.921 27V19.622H162.279L162.349 20.686C162.536 20.3967 162.75 20.168 162.993 20C163.236 19.832 163.502 19.7107 163.791 19.636C164.08 19.5613 164.384 19.524 164.701 19.524C164.785 19.524 164.864 19.524 164.939 19.524C165.014 19.524 165.084 19.524 165.149 19.524V20.91H164.701C164.169 20.91 163.726 21.0173 163.371 21.232C163.026 21.4467 162.769 21.7453 162.601 22.128C162.442 22.5107 162.363 22.9493 162.363 23.444V27H160.921Z" fill="#FF745E"/>
<path d="M12.9939 49.1079L2.53782 51.9069C1.33737 52.3398 0.170295 51.1896 0.58566 49.9829L3.25142 39.3444C3.91322 37.4219 6.57039 37.2624 7.45738 39.092L8.00595 40.2235C8.91581 42.1002 10.4417 43.6082 12.3289 44.496L13.1909 44.9014C15.0279 45.7655 14.9036 48.4192 12.9939 49.1079Z" fill="#FF745E"/>
<defs>
<filter id="filter0_d_9274_1518" x="12.5" y="3" width="42" height="42" filterUnits="userSpaceOnUse" color-interpolation-filters="sRGB">
<feFlood flood-opacity="0" result="BackgroundImageFix"/>
<feColorMatrix in="SourceAlpha" type="matrix" values="0 0 0 0 0 0 0 0 0 0 0 0 0 0 0 0 0 0 127 0" result="hardAlpha"/>
<feOffset dy="2"/>
<feGaussianBlur stdDeviation="4"/>
<feComposite in2="hardAlpha" operator="out"/>
<feColorMatrix type="matrix" values="0 0 0 0 1 0 0 0 0 0.435294 0 0 0 0 0.345098 0 0 0 0.25 0"/>
<feBlend mode="normal" in2="BackgroundImageFix" result="effect1_dropShadow_9274_1518"/>
<feBlend mode="normal" in="SourceGraphic" in2="effect1_dropShadow_9274_1518" result="shape"/>
</filter>
<filter id="filter1_i_9274_1518" x="24.2239" y="12.724" width="20.0758" height="20.0759" filterUnits="userSpaceOnUse" color-interpolation-filters="sRGB">
<feFlood flood-opacity="0" result="BackgroundImageFix"/>
<feBlend mode="normal" in="SourceGraphic" in2="BackgroundImageFix" result="shape"/>
<feColorMatrix in="SourceAlpha" type="matrix" values="0 0 0 0 0 0 0 0 0 0 0 0 0 0 0 0 0 0 127 0" result="hardAlpha"/>
<feOffset dx="1.52381" dy="1.52381"/>
<feGaussianBlur stdDeviation="1.14286"/>
<feComposite in2="hardAlpha" operator="arithmetic" k2="-1" k3="1"/>
<feColorMatrix type="matrix" values="0 0 0 0 1 0 0 0 0 1 0 0 0 0 1 0 0 0 0.5 0"/>
<feBlend mode="normal" in2="shape" result="effect1_innerShadow_9274_1518"/>
</filter>
<radialGradient id="paint0_radial_9274_1518" cx="0" cy="0" r="1" gradientUnits="userSpaceOnUse" gradientTransform="translate(30.1908 29.7896) rotate(-58.7716) scale(27.8187 27.8186)">
<stop stop-color="#FF6F58"/>
<stop offset="1" stop-color="#FFA293"/>
</radialGradient>
<radialGradient id="paint1_radial_9274_1518" cx="0" cy="0" r="1" gradientUnits="userSpaceOnUse" gradientTransform="translate(30.1908 29.7896) rotate(-58.7716) scale(27.8187 27.8186)">
<stop stop-color="#FF6F58"/>
<stop offset="1" stop-color="#FFA293"/>
</radialGradient>
</defs>
</svg>
