<svg width="185" height="53" viewBox="0 0 185 53" fill="none" xmlns="http://www.w3.org/2000/svg">
<path d="M0.514648 30.5474C0.514648 18.3972 10.3644 8.54742 22.5146 8.54742H154.515C166.665 8.54742 176.515 18.3972 176.515 30.5474C176.515 42.6977 166.665 52.5474 154.515 52.5474H22.5146C10.3644 52.5474 0.514648 42.6977 0.514648 30.5474Z" fill="#29AEFF" fill-opacity="0.1"/>
<g filter="url(#filter0_d_9274_1522)">
<g filter="url(#filter1_i_9274_1522)">
<path fill-rule="evenodd" clip-rule="evenodd" d="M16.2385 25.1308C16.2385 22.9993 17.9664 21.2714 20.0979 21.2714H30.9312C33.0627 21.2714 34.7906 22.9993 34.7906 25.1308V35.9641C34.7906 38.0956 33.0627 39.8235 30.9312 39.8235H20.0979C17.9664 39.8235 16.2385 38.0956 16.2385 35.9641V25.1308ZM27.0716 26.3473C27.1446 26.0188 26.9375 25.6933 26.6089 25.6203C26.2804 25.5473 25.9549 25.7544 25.8819 26.083L23.9565 34.747C23.8835 35.0756 24.0907 35.4011 24.4192 35.4741C24.7477 35.5471 25.0732 35.3399 25.1463 35.0114L27.0716 26.3473ZM29.0533 28.2151C28.8153 27.9772 28.4295 27.9771 28.1915 28.2151C27.9535 28.4531 27.9535 28.8389 28.1915 29.0769L29.6617 30.5473L28.1915 32.0175C27.9535 32.2555 27.9535 32.6414 28.1915 32.8793C28.4295 33.1173 28.8153 33.1173 29.0533 32.8793L30.9544 30.9782C31.1924 30.7402 31.1924 30.3544 30.9544 30.1164L29.0533 28.2151ZM22.8305 29.0843C23.0684 28.8463 23.0684 28.4605 22.8304 28.2225C22.5924 27.9845 22.2066 27.9846 21.9686 28.2226L20.0749 30.1164C19.837 30.3544 19.837 30.7402 20.0749 30.9782L21.9687 32.8719C22.2066 33.1099 22.5925 33.1099 22.8304 32.8719C23.0684 32.634 23.0684 32.2481 22.8304 32.0101L21.3676 30.5473L22.8305 29.0843Z" fill="url(#paint0_radial_9274_1522)"/>
</g>
</g>
<path d="M51.902 35.6594C50.8847 35.6594 50.0307 35.4448 49.34 35.0154C48.6587 34.5861 48.1453 33.9934 47.8 33.2374C47.4547 32.4814 47.282 31.6088 47.282 30.6194C47.282 29.6301 47.4547 28.7528 47.8 27.9874C48.1547 27.2221 48.6727 26.6248 49.354 26.1954C50.0447 25.7568 50.8987 25.5374 51.916 25.5374C52.6533 25.5374 53.2973 25.6588 53.848 25.9014C54.3987 26.1348 54.842 26.4708 55.178 26.9094C55.5233 27.3388 55.752 27.8521 55.864 28.4494H54.408C54.268 27.9734 53.9833 27.5954 53.554 27.3154C53.1247 27.0354 52.574 26.8954 51.902 26.8954C51.1553 26.8954 50.5533 27.0681 50.096 27.4134C49.648 27.7588 49.3213 28.2114 49.116 28.7714C48.9107 29.3221 48.808 29.9194 48.808 30.5634C48.808 31.2261 48.9153 31.8421 49.13 32.4114C49.3447 32.9808 49.6853 33.4381 50.152 33.7834C50.6187 34.1288 51.216 34.3014 51.944 34.3014C52.392 34.3014 52.7887 34.2408 53.134 34.1194C53.4793 33.9888 53.7687 33.8068 54.002 33.5734C54.2353 33.3308 54.394 33.0508 54.478 32.7334H56.032C55.9107 33.3401 55.6633 33.8628 55.29 34.3014C54.9167 34.7401 54.4453 35.0761 53.876 35.3094C53.3067 35.5428 52.6487 35.6594 51.902 35.6594ZM60.7365 35.6314C59.9711 35.6314 59.3225 35.4774 58.7905 35.1694C58.2585 34.8521 57.8525 34.4088 57.5725 33.8394C57.3018 33.2701 57.1665 32.6121 57.1665 31.8654C57.1665 31.1094 57.3065 30.4514 57.5865 29.8914C57.8665 29.3221 58.2725 28.8788 58.8045 28.5614C59.3365 28.2348 59.9851 28.0714 60.7505 28.0714C61.5158 28.0714 62.1645 28.2348 62.6965 28.5614C63.2285 28.8788 63.6298 29.3221 63.9005 29.8914C64.1711 30.4608 64.3065 31.1234 64.3065 31.8794C64.3065 32.6168 64.1665 33.2701 63.8865 33.8394C63.6158 34.4088 63.2145 34.8521 62.6825 35.1694C62.1598 35.4774 61.5111 35.6314 60.7365 35.6314ZM60.7365 34.3434C61.2405 34.3434 61.6465 34.2314 61.9545 34.0074C62.2718 33.7834 62.5051 33.4848 62.6545 33.1114C62.8038 32.7288 62.8785 32.3134 62.8785 31.8654C62.8785 31.4174 62.8038 31.0068 62.6545 30.6334C62.5051 30.2601 62.2718 29.9614 61.9545 29.7374C61.6465 29.5041 61.2405 29.3874 60.7365 29.3874C60.2418 29.3874 59.8358 29.5041 59.5185 29.7374C59.2011 29.9614 58.9678 30.2601 58.8185 30.6334C58.6785 31.0068 58.6085 31.4174 58.6085 31.8654C58.6085 32.3228 58.6785 32.7381 58.8185 33.1114C58.9678 33.4848 59.2011 33.7834 59.5185 34.0074C59.8358 34.2314 60.2418 34.3434 60.7365 34.3434ZM68.7683 35.6314C68.031 35.6314 67.4196 35.4681 66.9343 35.1414C66.4583 34.8054 66.099 34.3528 65.8563 33.7834C65.623 33.2141 65.5063 32.5748 65.5063 31.8654C65.5063 31.1468 65.6276 30.5028 65.8703 29.9334C66.113 29.3548 66.4816 28.9021 66.9763 28.5754C67.471 28.2394 68.0963 28.0714 68.8523 28.0714C69.1323 28.0714 69.4123 28.1041 69.6923 28.1694C69.9816 28.2348 70.2476 28.3374 70.4903 28.4774C70.7423 28.6081 70.957 28.7854 71.1343 29.0094V25.6494H72.5763V35.5474H71.1903L71.1343 34.5394C70.9663 34.7914 70.7563 35.0014 70.5043 35.1694C70.2616 35.3281 69.991 35.4448 69.6923 35.5194C69.3936 35.5941 69.0856 35.6314 68.7683 35.6314ZM69.0063 34.3434C69.4823 34.3434 69.8743 34.2268 70.1823 33.9934C70.4996 33.7601 70.7376 33.4521 70.8963 33.0694C71.055 32.6868 71.1343 32.2714 71.1343 31.8234C71.1343 31.3661 71.055 30.9554 70.8963 30.5914C70.747 30.2181 70.5136 29.9241 70.1963 29.7094C69.8883 29.4854 69.4916 29.3734 69.0063 29.3734C68.5023 29.3734 68.101 29.4901 67.8023 29.7234C67.5036 29.9474 67.2843 30.2508 67.1443 30.6334C67.0136 31.0161 66.9483 31.4361 66.9483 31.8934C66.9483 32.2294 66.9856 32.5468 67.0603 32.8454C67.135 33.1348 67.2516 33.3961 67.4103 33.6294C67.5783 33.8534 67.793 34.0308 68.0543 34.1614C68.3156 34.2828 68.633 34.3434 69.0063 34.3434ZM77.5929 35.6314C76.8182 35.6314 76.1696 35.4728 75.6469 35.1554C75.1242 34.8381 74.7276 34.3994 74.4569 33.8394C74.1956 33.2701 74.0649 32.6168 74.0649 31.8794C74.0649 31.1328 74.2002 30.4748 74.4709 29.9054C74.7509 29.3361 75.1522 28.8881 75.6749 28.5614C76.2069 28.2348 76.8462 28.0714 77.5929 28.0714C78.1622 28.0714 78.6569 28.1788 79.0769 28.3934C79.4969 28.5988 79.8422 28.8788 80.1129 29.2334C80.3929 29.5881 80.5982 29.9848 80.7289 30.4234C80.8596 30.8528 80.9156 31.3008 80.8969 31.7674C80.8969 31.8701 80.8922 31.9681 80.8829 32.0614C80.8736 32.1548 80.8642 32.2528 80.8549 32.3554H75.5209C75.5489 32.7288 75.6422 33.0694 75.8009 33.3774C75.9689 33.6854 76.2022 33.9328 76.5009 34.1194C76.7996 34.2968 77.1682 34.3854 77.6069 34.3854C77.8496 34.3854 78.0829 34.3574 78.3069 34.3014C78.5402 34.2361 78.7456 34.1381 78.9229 34.0074C79.1096 33.8674 79.2402 33.6901 79.3149 33.4754H80.7709C80.6496 33.9701 80.4302 34.3808 80.1129 34.7074C79.8049 35.0248 79.4269 35.2581 78.9789 35.4074C78.5402 35.5568 78.0782 35.6314 77.5929 35.6314ZM75.5489 31.2074H79.4689C79.4596 30.8434 79.3756 30.5214 79.2169 30.2414C79.0582 29.9521 78.8389 29.7281 78.5589 29.5694C78.2789 29.4014 77.9429 29.3174 77.5509 29.3174C77.1216 29.3174 76.7622 29.4061 76.4729 29.5834C76.1929 29.7608 75.9736 29.9941 75.8149 30.2834C75.6656 30.5634 75.5769 30.8714 75.5489 31.2074ZM90.5938 35.6594C89.5671 35.6594 88.7084 35.4448 88.0178 35.0154C87.3364 34.5861 86.8231 33.9934 86.4778 33.2374C86.1324 32.4721 85.9598 31.5994 85.9598 30.6194C85.9598 29.8821 86.0531 29.2054 86.2398 28.5894C86.4358 27.9641 86.7251 27.4228 87.1078 26.9654C87.4904 26.5081 87.9664 26.1581 88.5358 25.9154C89.1144 25.6634 89.7818 25.5374 90.5378 25.5374C91.2751 25.5374 91.9238 25.6541 92.4838 25.8874C93.0438 26.1114 93.5058 26.4381 93.8698 26.8674C94.2431 27.2968 94.4951 27.8148 94.6258 28.4214H93.0577C92.9738 28.0948 92.8151 27.8194 92.5818 27.5954C92.3578 27.3714 92.0731 27.1988 91.7278 27.0774C91.3918 26.9561 91.0091 26.8954 90.5798 26.8954C90.0198 26.8954 89.5438 26.9934 89.1518 27.1894C88.7598 27.3854 88.4378 27.6561 88.1858 28.0014C87.9431 28.3374 87.7658 28.7294 87.6538 29.1774C87.5418 29.6254 87.4858 30.1014 87.4858 30.6054C87.4858 31.2774 87.5931 31.8934 87.8078 32.4534C88.0224 33.0134 88.3584 33.4614 88.8158 33.7974C89.2731 34.1334 89.8704 34.3014 90.6078 34.3014C91.1771 34.3014 91.6671 34.2034 92.0778 34.0074C92.4884 33.8021 92.8104 33.5128 93.0438 33.1394C93.2771 32.7568 93.3984 32.2948 93.4078 31.7534H90.3418V30.4514H94.8638V31.1794C94.8638 32.0848 94.6958 32.8734 94.3598 33.5454C94.0238 34.2174 93.5384 34.7401 92.9038 35.1134C92.2691 35.4774 91.4991 35.6594 90.5938 35.6594ZM99.6046 35.6314C98.8299 35.6314 98.1813 35.4728 97.6586 35.1554C97.1359 34.8381 96.7393 34.3994 96.4686 33.8394C96.2073 33.2701 96.0766 32.6168 96.0766 31.8794C96.0766 31.1328 96.2119 30.4748 96.4826 29.9054C96.7626 29.3361 97.1639 28.8881 97.6866 28.5614C98.2186 28.2348 98.8579 28.0714 99.6046 28.0714C100.174 28.0714 100.669 28.1788 101.089 28.3934C101.509 28.5988 101.854 28.8788 102.125 29.2334C102.405 29.5881 102.61 29.9848 102.741 30.4234C102.871 30.8528 102.927 31.3008 102.909 31.7674C102.909 31.8701 102.904 31.9681 102.895 32.0614C102.885 32.1548 102.876 32.2528 102.867 32.3554H97.5326C97.5606 32.7288 97.6539 33.0694 97.8126 33.3774C97.9806 33.6854 98.2139 33.9328 98.5126 34.1194C98.8113 34.2968 99.1799 34.3854 99.6186 34.3854C99.8613 34.3854 100.095 34.3574 100.319 34.3014C100.552 34.2361 100.757 34.1381 100.935 34.0074C101.121 33.8674 101.252 33.6901 101.327 33.4754H102.783C102.661 33.9701 102.442 34.3808 102.125 34.7074C101.817 35.0248 101.439 35.2581 100.991 35.4074C100.552 35.5568 100.09 35.6314 99.6046 35.6314ZM97.5606 31.2074H101.481C101.471 30.8434 101.387 30.5214 101.229 30.2414C101.07 29.9521 100.851 29.7281 100.571 29.5694C100.291 29.4014 99.9546 29.3174 99.5626 29.3174C99.1333 29.3174 98.7739 29.4061 98.4846 29.5834C98.2046 29.7608 97.9853 29.9941 97.8266 30.2834C97.6773 30.5634 97.5886 30.8714 97.5606 31.2074ZM104.396 35.5474V28.1694H105.768L105.838 29.2054C106.024 28.9348 106.248 28.7201 106.51 28.5614C106.771 28.3934 107.051 28.2721 107.35 28.1974C107.648 28.1134 107.938 28.0714 108.218 28.0714C108.927 28.0714 109.482 28.2254 109.884 28.5334C110.294 28.8321 110.584 29.2381 110.752 29.7514C110.929 30.2554 111.018 30.8294 111.018 31.4734V35.5474H109.562V31.7674C109.562 31.4688 109.543 31.1748 109.506 30.8854C109.468 30.5961 109.389 30.3394 109.268 30.1154C109.156 29.8821 108.992 29.7001 108.778 29.5694C108.563 29.4294 108.274 29.3594 107.91 29.3594C107.462 29.3594 107.084 29.4808 106.776 29.7234C106.468 29.9661 106.234 30.2928 106.076 30.7034C105.917 31.1141 105.838 31.5761 105.838 32.0894V35.5474H104.396ZM115.984 35.6314C115.209 35.6314 114.56 35.4728 114.038 35.1554C113.515 34.8381 113.118 34.3994 112.848 33.8394C112.586 33.2701 112.456 32.6168 112.456 31.8794C112.456 31.1328 112.591 30.4748 112.862 29.9054C113.142 29.3361 113.543 28.8881 114.066 28.5614C114.598 28.2348 115.237 28.0714 115.984 28.0714C116.553 28.0714 117.048 28.1788 117.468 28.3934C117.888 28.5988 118.233 28.8788 118.504 29.2334C118.784 29.5881 118.989 29.9848 119.12 30.4234C119.25 30.8528 119.306 31.3008 119.288 31.7674C119.288 31.8701 119.283 31.9681 119.274 32.0614C119.264 32.1548 119.255 32.2528 119.246 32.3554H113.912C113.94 32.7288 114.033 33.0694 114.192 33.3774C114.36 33.6854 114.593 33.9328 114.892 34.1194C115.19 34.2968 115.559 34.3854 115.998 34.3854C116.24 34.3854 116.474 34.3574 116.698 34.3014C116.931 34.2361 117.136 34.1381 117.314 34.0074C117.5 33.8674 117.631 33.6901 117.706 33.4754H119.162C119.04 33.9701 118.821 34.3808 118.504 34.7074C118.196 35.0248 117.818 35.2581 117.37 35.4074C116.931 35.5568 116.469 35.6314 115.984 35.6314ZM113.94 31.2074H117.86C117.85 30.8434 117.766 30.5214 117.608 30.2414C117.449 29.9521 117.23 29.7281 116.95 29.5694C116.67 29.4014 116.334 29.3174 115.942 29.3174C115.512 29.3174 115.153 29.4061 114.864 29.5834C114.584 29.7608 114.364 29.9941 114.206 30.2834C114.056 30.5634 113.968 30.8714 113.94 31.2074ZM120.775 35.5474V28.1694H122.133L122.203 29.2334C122.389 28.9441 122.604 28.7154 122.847 28.5474C123.089 28.3794 123.355 28.2581 123.645 28.1834C123.934 28.1088 124.237 28.0714 124.555 28.0714C124.639 28.0714 124.718 28.0714 124.793 28.0714C124.867 28.0714 124.937 28.0714 125.003 28.0714V29.4574H124.555C124.023 29.4574 123.579 29.5648 123.225 29.7794C122.879 29.9941 122.623 30.2928 122.455 30.6754C122.296 31.0581 122.217 31.4968 122.217 31.9914V35.5474H120.775ZM128.445 35.6314C128.109 35.6314 127.782 35.5894 127.465 35.5054C127.157 35.4121 126.882 35.2768 126.639 35.0994C126.396 34.9128 126.2 34.6841 126.051 34.4134C125.911 34.1334 125.841 33.8068 125.841 33.4334C125.841 32.9854 125.925 32.6168 126.093 32.3274C126.27 32.0288 126.504 31.8001 126.793 31.6414C127.082 31.4734 127.414 31.3568 127.787 31.2914C128.17 31.2168 128.566 31.1794 128.977 31.1794H130.783C130.783 30.8154 130.727 30.4981 130.615 30.2274C130.503 29.9474 130.326 29.7328 130.083 29.5834C129.85 29.4248 129.537 29.3454 129.145 29.3454C128.912 29.3454 128.688 29.3734 128.473 29.4294C128.268 29.4761 128.09 29.5554 127.941 29.6674C127.792 29.7794 127.689 29.9288 127.633 30.1154H126.121C126.177 29.7608 126.303 29.4574 126.499 29.2054C126.695 28.9441 126.938 28.7294 127.227 28.5614C127.516 28.3934 127.824 28.2721 128.151 28.1974C128.487 28.1134 128.828 28.0714 129.173 28.0714C130.237 28.0714 131.002 28.3841 131.469 29.0094C131.945 29.6254 132.183 30.4748 132.183 31.5574V35.5474H130.937L130.881 34.6094C130.666 34.8988 130.41 35.1181 130.111 35.2674C129.822 35.4168 129.532 35.5148 129.243 35.5614C128.954 35.6081 128.688 35.6314 128.445 35.6314ZM128.669 34.4134C129.089 34.4134 129.458 34.3434 129.775 34.2034C130.092 34.0541 130.34 33.8441 130.517 33.5734C130.694 33.2934 130.783 32.9668 130.783 32.5934V32.2854H129.467C129.196 32.2854 128.93 32.2948 128.669 32.3134C128.417 32.3228 128.184 32.3601 127.969 32.4254C127.764 32.4814 127.596 32.5794 127.465 32.7194C127.344 32.8594 127.283 33.0601 127.283 33.3214C127.283 33.5734 127.348 33.7788 127.479 33.9374C127.61 34.0961 127.782 34.2174 127.997 34.3014C128.212 34.3761 128.436 34.4134 128.669 34.4134ZM136.769 35.6314C135.976 35.6314 135.407 35.4168 135.061 34.9874C134.725 34.5488 134.557 33.9374 134.557 33.1534V29.4574H133.381V28.1694H134.557V26.0274H135.999V28.1694H138.253V29.4574H135.999V32.9154C135.999 33.1768 136.023 33.4148 136.069 33.6294C136.125 33.8441 136.228 34.0121 136.377 34.1334C136.527 34.2548 136.741 34.3201 137.021 34.3294C137.236 34.3294 137.423 34.2921 137.581 34.2174C137.749 34.1428 137.885 34.0588 137.987 33.9654L138.547 35.0434C138.37 35.1834 138.183 35.3001 137.987 35.3934C137.801 35.4774 137.605 35.5381 137.399 35.5754C137.194 35.6128 136.984 35.6314 136.769 35.6314ZM142.877 35.6314C142.112 35.6314 141.463 35.4774 140.931 35.1694C140.399 34.8521 139.993 34.4088 139.713 33.8394C139.442 33.2701 139.307 32.6121 139.307 31.8654C139.307 31.1094 139.447 30.4514 139.727 29.8914C140.007 29.3221 140.413 28.8788 140.945 28.5614C141.477 28.2348 142.126 28.0714 142.891 28.0714C143.656 28.0714 144.305 28.2348 144.837 28.5614C145.369 28.8788 145.77 29.3221 146.041 29.8914C146.312 30.4608 146.447 31.1234 146.447 31.8794C146.447 32.6168 146.307 33.2701 146.027 33.8394C145.756 34.4088 145.355 34.8521 144.823 35.1694C144.3 35.4774 143.652 35.6314 142.877 35.6314ZM142.877 34.3434C143.381 34.3434 143.787 34.2314 144.095 34.0074C144.412 33.7834 144.646 33.4848 144.795 33.1114C144.944 32.7288 145.019 32.3134 145.019 31.8654C145.019 31.4174 144.944 31.0068 144.795 30.6334C144.646 30.2601 144.412 29.9614 144.095 29.7374C143.787 29.5041 143.381 29.3874 142.877 29.3874C142.382 29.3874 141.976 29.5041 141.659 29.7374C141.342 29.9614 141.108 30.2601 140.959 30.6334C140.819 31.0068 140.749 31.4174 140.749 31.8654C140.749 32.3228 140.819 32.7381 140.959 33.1114C141.108 33.4848 141.342 33.7834 141.659 34.0074C141.976 34.2314 142.382 34.3434 142.877 34.3434ZM147.927 35.5474V28.1694H149.285L149.355 29.2334C149.542 28.9441 149.756 28.7154 149.999 28.5474C150.242 28.3794 150.508 28.2581 150.797 28.1834C151.086 28.1088 151.39 28.0714 151.707 28.0714C151.791 28.0714 151.87 28.0714 151.945 28.0714C152.02 28.0714 152.09 28.0714 152.155 28.0714V29.4574H151.707C151.175 29.4574 150.732 29.5648 150.377 29.7794C150.032 29.9941 149.775 30.2928 149.607 30.6754C149.448 31.0581 149.369 31.4968 149.369 31.9914V35.5474H147.927Z" fill="#29AEFF"/>
<path d="M172.021 3.43954L182.477 0.640551C183.677 0.207661 184.844 1.35786 184.429 2.56449L181.763 13.203C181.101 15.1255 178.444 15.285 177.557 13.4554L177.009 12.3239C176.099 10.4472 174.573 8.93919 172.686 8.05144L171.824 7.64601C169.987 6.78189 170.111 4.12821 172.021 3.43954Z" fill="#29AEFF"/>
<defs>
<filter id="filter0_d_9274_1522" x="4.51465" y="11.5474" width="42" height="42" filterUnits="userSpaceOnUse" color-interpolation-filters="sRGB">
<feFlood flood-opacity="0" result="BackgroundImageFix"/>
<feColorMatrix in="SourceAlpha" type="matrix" values="0 0 0 0 0 0 0 0 0 0 0 0 0 0 0 0 0 0 127 0" result="hardAlpha"/>
<feOffset dy="2"/>
<feGaussianBlur stdDeviation="4"/>
<feComposite in2="hardAlpha" operator="out"/>
<feColorMatrix type="matrix" values="0 0 0 0 0.0901961 0 0 0 0 0.654902 0 0 0 0 1 0 0 0 0.25 0"/>
<feBlend mode="normal" in2="BackgroundImageFix" result="effect1_dropShadow_9274_1522"/>
<feBlend mode="normal" in="SourceGraphic" in2="effect1_dropShadow_9274_1522" result="shape"/>
</filter>
<filter id="filter1_i_9274_1522" x="16.2385" y="21.2714" width="19.552" height="19.5521" filterUnits="userSpaceOnUse" color-interpolation-filters="sRGB">
<feFlood flood-opacity="0" result="BackgroundImageFix"/>
<feBlend mode="normal" in="SourceGraphic" in2="BackgroundImageFix" result="shape"/>
<feColorMatrix in="SourceAlpha" type="matrix" values="0 0 0 0 0 0 0 0 0 0 0 0 0 0 0 0 0 0 127 0" result="hardAlpha"/>
<feOffset dx="1" dy="1"/>
<feGaussianBlur stdDeviation="1"/>
<feComposite in2="hardAlpha" operator="arithmetic" k2="-1" k3="1"/>
<feColorMatrix type="matrix" values="0 0 0 0 1 0 0 0 0 1 0 0 0 0 1 0 0 0 0.5 0"/>
<feBlend mode="normal" in2="shape" result="effect1_innerShadow_9274_1522"/>
</filter>
<radialGradient id="paint0_radial_9274_1522" cx="0" cy="0" r="1" gradientUnits="userSpaceOnUse" gradientTransform="translate(26.3146 36.542) rotate(-60.1541) scale(18.3168 18.3168)">
<stop stop-color="#17A7FF"/>
<stop offset="1" stop-color="#84D0FF"/>
</radialGradient>
</defs>
</svg>
