<svg width="452" height="240" viewBox="0 0 452 240" fill="none" xmlns="http://www.w3.org/2000/svg">
<path d="M0.444336 157.739L49.4357 54.9009H91.8067L41.4912 157.739H0.444336ZM0.444336 179.366V157.739L11.9198 146.484H127.557V179.366H0.444336ZM73.9314 211.364V117.133H112.551V211.364H73.9314Z" fill="white" fill-opacity="0.9"/>
<path d="M324.443 157.739L373.435 54.9009H415.806L365.49 157.739H324.443ZM324.443 179.366V157.739L335.919 146.484H451.556V179.366H324.443ZM397.93 211.364V117.133H436.55V211.364H397.93Z" fill="white" fill-opacity="0.9"/>
<path d="M194.292 71.2805C194.702 71.0383 195.231 71.1747 195.473 71.5851L196.45 73.2329C200.328 79.74 201.88 81.853 203.528 82.8083C204.884 83.5934 206.285 83.3497 208.85 81.8455L209.192 81.6398C210.805 80.6344 218.187 75.5639 221.041 73.7432C221.442 73.4869 221.976 73.6049 222.232 74.0066C222.488 74.4083 222.37 74.9417 221.969 75.198L221.529 75.4807C218.349 77.5423 211.205 82.4489 209.94 83.2052C206.835 85.0619 204.822 85.4792 202.804 84.3804L202.663 84.3013C200.496 83.0455 198.81 80.6364 193.987 72.462C193.745 72.0516 193.881 71.5226 194.292 71.2805Z" fill="white"/>
<path d="M208.268 81.2587C208.74 81.1955 209.174 81.5271 209.238 81.9994C209.531 84.1941 210.235 86.3949 211.353 88.6041C211.568 89.0293 211.397 89.5483 210.972 89.7634C210.547 89.9785 210.028 89.8081 209.813 89.3829C208.61 87.0056 207.847 84.62 207.527 82.2283C207.464 81.7561 207.796 81.3219 208.268 81.2587Z" fill="white"/>
<path fill-rule="evenodd" clip-rule="evenodd" d="M308.784 133.947C308.645 134.299 308.34 134.787 307.985 135.248L308.291 135.565L308.645 135.942L308.723 136.017C308.758 136.048 308.785 136.066 308.804 136.071C308.919 136.088 308.998 136.193 308.983 136.309C308.966 136.421 308.861 136.503 308.747 136.486C308.643 136.484 308.267 136.337 307.818 135.972C307.737 135.906 307.656 135.83 307.574 135.747C307.315 136.035 307.053 136.284 306.827 136.438C306.495 136.667 306.207 136.685 306.07 136.592C305.934 136.502 305.805 136.198 306.024 135.584C306.059 135.473 306.177 135.414 306.287 135.449C306.397 135.484 306.457 135.601 306.423 135.712C306.389 135.826 306.385 135.93 306.384 136.013L306.512 135.926C306.557 135.894 306.603 135.858 306.646 135.815C306.8 135.663 306.972 135.479 307.145 135.279C306.871 134.961 306.592 134.587 306.366 134.156C306.256 133.946 306.168 133.722 306.085 133.488C306.027 133.357 306.087 133.203 306.218 133.145C306.35 133.087 306.503 133.147 306.561 133.278C306.812 133.804 307.134 134.258 307.451 134.647L307.556 134.774C307.845 134.396 308.093 134.014 308.206 133.722C308.268 133.564 308.448 133.485 308.607 133.545C308.768 133.609 308.847 133.788 308.784 133.947Z" fill="white"/>
<path fill-rule="evenodd" clip-rule="evenodd" d="M204.175 35.082L204.706 36.2616L205.916 36.6089C205.982 36.6277 206.019 36.696 206.001 36.7614C205.995 36.7816 205.984 36.8 205.969 36.8148L205.05 37.73L205.101 39.0473C205.104 39.1153 205.051 39.1726 204.983 39.1752C204.96 39.1761 204.937 39.1706 204.917 39.1592L203.876 38.5664C203.844 38.5479 203.805 38.5451 203.77 38.5589L202.657 39.0011C202.593 39.0262 202.522 38.9953 202.497 38.932C202.488 38.9106 202.486 38.8873 202.49 38.8646L202.724 37.5674L201.941 36.5331C201.9 36.4788 201.911 36.4015 201.965 36.3604C201.982 36.3478 202.001 36.3396 202.022 36.3366L203.269 36.1611L203.959 35.0668C203.995 35.0092 204.071 34.992 204.129 35.0283C204.149 35.0412 204.165 35.0599 204.175 35.082Z" fill="#7A5AF8"/>
<path d="M211.455 88.7811L211.953 88.5998C216.66 86.9106 220.632 86.1651 221.641 87.1917C222.526 88.0919 223.314 89.7222 224.062 92.1133C224.204 92.5681 223.95 93.0521 223.496 93.1942C223.041 93.3364 222.557 93.083 222.415 92.6282C221.768 90.5602 221.109 89.1685 220.485 88.4804L220.459 88.4535L220.437 88.4547C220.319 88.4305 220.142 88.4184 219.916 88.4227C219.419 88.4323 218.739 88.52 217.928 88.6808C216.258 89.0116 214.148 89.6269 212.052 90.4C208.548 91.6926 205.629 93.2114 204.016 94.5833C203.424 95.087 202.343 93.684 203.383 92.8802C205.255 91.434 208.093 90.021 211.455 88.7811Z" fill="white"/>
<path d="M209.084 72.4892C209.084 75.367 212.128 78.483 212.775 78.6603C213.235 78.7861 205.317 83.9454 205.317 83.9454C202.455 84.3219 200.775 81.9035 200.775 78.3008C200.775 77.8243 209.084 72.0127 209.084 72.4892Z" fill="white"/>
<path fill-rule="evenodd" clip-rule="evenodd" d="M199.748 73.9988C200.75 73.804 201.431 72.9689 201.269 72.1337C201.107 71.2984 200.162 70.7792 199.16 70.9741C198.158 71.1689 197.477 72.0039 197.639 72.8392C197.802 73.6745 198.746 74.1936 199.748 73.9988Z" fill="#FFB61D"/>
<path d="M342.469 46.2496C337.551 45.9981 333.678 49.7969 333.637 54.8962C333.603 59.1926 336.023 62.7305 339.347 63.4159C340.692 63.6931 343.273 63.3597 345.187 62.2861C348.094 60.7271 350.316 57.522 350.596 54.7913C351.053 50.3421 347.451 46.5043 342.469 46.2496Z" fill="white"/>
<path d="M253.342 45.3434C254.913 48.5164 257.353 55.8456 256.298 55.8104C253.367 55.7124 249.445 51.2078 246.702 45.1172L246.486 44.6273C244.091 39.0974 242.657 35.6233 244.322 34.9578C246.045 34.2694 250.1 38.7944 253.342 45.3434Z" fill="white"/>
<path fill-rule="evenodd" clip-rule="evenodd" d="M244.32 34.9C246.043 34.2117 250.157 38.5299 253.4 45.0789C254.971 48.252 256.037 51.2959 256.315 53.4787C256.315 53.4787 251.009 42.2991 247.773 38.2043C246.53 36.6313 244.32 34.9 244.32 34.9Z" fill="#E7EAEE"/>
<path d="M243.414 63.0467C243.541 62.5872 244.015 62.3172 244.475 62.4436C244.934 62.5699 245.204 63.0448 245.078 63.5043C244.915 64.0953 242.63 65.6455 237.644 68.7193L234.496 70.6456C228.283 74.4281 224.136 76.8486 223.618 76.8486C220.187 76.8486 217.096 73.6122 214.839 68.5056C212.868 64.0468 211.845 58.7393 212.307 55.2612C212.451 54.1757 216.068 51.3655 221.653 47.6006L222.452 47.0645C227.393 43.7733 231.616 41.3323 233.144 41.024C233.611 40.9298 234.066 41.2321 234.16 41.6991C234.219 41.9913 220.601 53.4702 219.271 61.0889C218.37 66.2474 221.775 75.0399 223.465 75.1194L223.618 75.123C223.481 75.123 223.525 75.0909 223.541 75.0819L223.696 75.0017C223.811 74.9415 223.947 74.8682 224.104 74.7821L224.822 74.3806C225.096 74.2249 225.402 74.0496 225.737 73.8563L226.593 73.3589C228.228 72.4045 230.268 71.1892 232.349 69.9304L234.327 68.7273C236.734 67.2571 238.908 65.9016 240.542 64.8489L241.383 64.302C241.905 63.96 242.345 63.6641 242.697 63.4188L242.825 63.3292C243.019 63.1923 243.181 63.0745 243.307 62.9779C243.307 62.9779 243.449 62.9216 243.414 63.0467Z" fill="white"/>
<path fill-rule="evenodd" clip-rule="evenodd" d="M245.125 45.8373C243.043 41.2125 242.121 36.974 242.816 34.4045C241.555 34.8056 239.979 35.5257 238.415 36.423C236.334 37.6168 234.682 38.9512 234.644 39.2408C234.242 42.2688 235.785 48.1595 238.351 53.4112C241.095 59.0286 244.359 62.6368 246.887 62.6368C247.128 62.6368 247.821 62.494 248.515 62.2516C249.502 61.9066 250.427 61.4042 251.185 60.7459C251.561 60.4187 251.951 60.0487 252.359 59.6359L252.849 59.1287C253.139 58.8226 253.438 58.493 253.904 57.9709L254.553 57.2458L254.585 57.2106C251.333 56.0252 247.93 51.8362 245.385 46.403L245.125 45.8373ZM232.933 39.0136C233.201 36.9961 240.745 32.6382 244.202 32.3463C244.35 32.2526 244.508 32.1716 244.678 32.104C247.667 30.9097 252.221 36.0255 255.874 43.2238L256.124 43.7235C257.773 47.0538 258.898 50.2672 259.205 52.6708C259.571 55.5419 258.74 57.4458 256.561 57.5449C256.504 57.774 256.356 57.9658 256.158 58.0809L256.124 58.0982L256.039 58.1832C255.953 58.271 255.853 58.38 255.697 58.5529L254.625 59.7495C254.236 60.1782 253.961 60.469 253.587 60.8477C253.151 61.2902 252.729 61.69 252.316 62.0486C250.646 63.4996 248.177 64.3623 246.887 64.3623C246.199 64.3623 245.504 64.2017 244.807 63.8952C244.057 64.6708 241.779 66.1718 237.646 68.7199L234.498 70.6462C228.285 74.4287 224.138 76.8492 223.62 76.8492C222.447 76.8492 221.313 76.4707 220.239 75.7683C220.227 75.777 220.215 75.7853 220.202 75.7934L219.763 76.0761C218.234 77.0671 215.79 78.7153 213.523 80.2439L213.379 80.3407C213.672 82.4354 214.339 84.5357 215.382 86.6436C219.09 85.4963 222.027 85.1085 222.875 85.9707C223.76 86.8709 224.548 88.5012 225.296 90.8924C225.438 91.3472 225.184 91.8311 224.729 91.9733C224.275 92.1154 223.791 91.862 223.649 91.4072C223.002 89.3392 222.343 87.9475 221.719 87.2594L221.693 87.2325L221.671 87.2337C221.553 87.2095 221.376 87.1974 221.15 87.2017C220.653 87.2113 219.973 87.299 219.162 87.4598C217.492 87.7907 215.382 88.406 213.286 89.179C208.495 90.9462 204.798 93.1361 204.038 94.7956C203.815 95.2812 203.844 95.992 204.11 97.0804L204.159 97.2765C204.199 97.4307 204.241 97.5835 204.295 97.777L204.607 98.8795C204.62 98.9278 204.633 98.9771 204.649 99.0393C204.769 99.5005 204.492 99.9714 204.03 100.091C203.569 100.211 203.098 99.9341 202.979 99.4728L202.825 98.9148L202.57 98.0143C202.541 97.9078 202.515 97.8094 202.489 97.7096C202.085 96.1507 202.02 95.0584 202.469 94.0772C203.231 92.4139 205.613 90.6911 208.93 89.1244L208.207 87.2585L208.029 86.787C207.756 86.0528 207.438 85.0577 207.243 84.3307C204.651 85.7275 202.846 85.9609 201.037 84.9759L200.897 84.8968C200.538 84.689 200.193 84.4496 199.844 84.1577L189.734 90.2984C189.827 90.5008 189.922 90.7047 190.018 90.9103C190.472 91.8834 189.671 92.5723 188.444 93.1084L188.312 93.1647C187.257 93.6017 186.305 93.7019 185.738 93.0798C183.387 90.4988 180.897 84.325 182.236 82.913C182.494 82.6419 183.172 82.2382 184.456 81.5648L184.539 81.5217C184.572 81.4974 184.607 81.4752 184.643 81.4553L194.096 76.3341C194.116 76.3233 194.136 76.3134 194.156 76.3044C193.571 75.337 192.93 74.2596 192.22 73.0574C192.138 72.9186 192.1 72.7662 192.101 72.6159C192.099 72.3863 192.189 72.1568 192.369 71.9862C194.314 70.1395 196.966 68.2139 200.295 66.1401L200.698 65.8906C202.135 65.0042 205.051 63.3412 207.528 61.9283C209.45 60.8325 211.107 59.8871 211.606 59.5714L211.727 59.4913C211.908 59.3587 212.124 59.3071 212.331 59.3299C212.167 57.833 212.152 56.4421 212.309 55.2619C212.453 54.1763 216.07 51.3662 221.655 47.6012L222.454 47.0652C227.134 43.9476 231.17 41.593 232.882 41.0911C232.837 40.3241 232.852 39.6252 232.933 39.0136ZM233.069 42.8412C231.392 43.4553 227.197 45.9461 222.619 49.032L221.886 49.5294C219.825 50.9356 217.921 52.3067 216.483 53.4241L216.083 53.7375C215.442 54.2461 214.922 54.6843 214.546 55.0357C214.357 55.212 214.208 55.3628 214.103 55.4829L214.03 55.5694C214.014 55.586 214.009 55.5797 214.015 55.5253L214.02 55.4891C214.018 55.503 214.016 55.515 214.015 55.5253L213.992 55.7105C213.163 62.9918 218.428 74.8829 223.467 75.12L223.586 75.1228C223.596 75.1233 223.607 75.1236 223.62 75.1236L223.586 75.1228C223.491 75.1178 223.528 75.0907 223.543 75.0825L223.698 75.0023C223.813 74.9422 223.949 74.8688 224.106 74.7827L224.824 74.3812C225.098 74.2256 225.404 74.0502 225.739 73.8569L226.595 73.3595C228.23 72.4051 230.27 71.1899 232.351 69.931L234.329 68.7279C236.736 67.2578 238.91 65.9022 240.544 64.8495L241.385 64.3026C241.907 63.9607 242.347 63.6647 242.699 63.4194L242.827 63.3298C243.009 63.2018 243.162 63.0905 243.284 62.9976C241.065 61.3651 238.88 58.3562 236.94 54.4522L236.8 54.1686C234.925 50.3305 233.57 46.1738 233.069 42.8412ZM212.569 61.0011C211.948 61.3919 210.11 62.4415 208.065 63.6096L208.064 63.6097L208.064 63.6098C205.643 64.9924 202.931 66.5409 201.603 67.3594C198.466 69.2936 195.936 71.0865 194.059 72.7745L194.683 73.8283C197.406 78.397 198.982 80.7996 200.25 82.1562C199.828 81.1568 199.609 79.8878 199.609 78.2957C199.609 78.2233 199.618 78.1531 199.634 78.0859C199.552 77.7561 199.67 77.3945 199.961 77.1808L200.549 76.744C200.901 76.4776 201.481 76.0344 202.14 75.5306L202.142 75.5296L202.143 75.5288C203.585 74.4263 205.407 73.0341 206.057 72.5684C208.103 71.1027 209.612 70.2803 210.985 69.9949C211.641 69.8586 212.15 70.2466 212.298 70.8476L212.322 70.9569C212.357 71.1357 212.363 71.3117 212.362 71.6959L212.362 71.8176C212.355 73.2533 212.497 74.0819 213.105 75.0389C213.521 75.6938 214.132 76.2914 214.984 76.8266C215.072 76.882 215.147 76.9507 215.207 77.0286C216.585 76.1034 217.875 75.2431 218.826 74.6271C217.328 73.1784 215.978 71.0798 214.841 68.5062C213.782 66.111 212.997 63.471 212.569 61.0011ZM257.493 52.8872C257.215 50.7044 256.149 47.6605 254.578 44.4874C251.335 37.9384 247.041 33.0162 245.318 33.7045C243.653 34.37 244.087 39.1071 246.482 44.637L246.699 45.1269C249.442 51.2175 253.363 55.7221 256.294 55.8201C257.349 55.8553 257.762 54.9935 257.493 52.8872ZM195.048 77.7646C196.546 80.1859 197.64 81.7858 198.593 82.8986L189.008 88.7204C188.025 86.5661 187.146 84.5611 186.293 82.524L194.918 77.8513C194.965 77.8259 195.008 77.7968 195.048 77.7646ZM213.727 87.188C212.797 85.2646 212.155 83.3358 211.803 81.4028C210.564 82.2364 209.487 82.9578 208.794 83.4078C208.914 84.0047 209.354 85.4146 209.733 86.4175L210.441 88.2402L210.509 88.4196C211.206 88.1254 211.934 87.8384 212.689 87.5601L213.187 87.3788C213.368 87.3138 213.548 87.2502 213.727 87.188ZM213.698 78.0444C212.816 77.4322 212.139 76.736 211.648 75.9642C210.854 74.7137 210.645 73.6459 210.636 72.0325L210.636 71.8881L210.514 71.9338C209.639 72.2734 208.595 72.8876 207.283 73.8139L207.062 73.9712C206.438 74.4185 204.661 75.7761 203.228 76.8715L203.227 76.8717L203.227 76.8723L203.226 76.8732C202.429 77.4819 201.739 78.0094 201.411 78.2543L201.334 78.3113C201.337 81.1783 202.053 82.4942 203.385 83.1327L203.492 83.1818C203.809 83.3224 204.036 83.3931 204.684 83.5704C204.697 83.5741 204.711 83.5782 204.724 83.5825C205.395 83.3565 206.165 82.9796 207.083 82.441L207.425 82.2353C208.185 81.762 210.222 80.388 212.464 78.8762L212.465 78.8752L212.466 78.8747L212.467 78.8743L212.467 78.8742L212.467 78.8741L212.47 78.8719L212.496 78.8547C212.892 78.5874 213.295 78.3159 213.698 78.0444ZM184.772 83.361L184.904 83.6758C185.821 85.8486 186.773 88.0002 187.854 90.347L188.274 91.2575C188.136 91.35 187.955 91.4483 187.756 91.5353C187.47 91.6602 187.179 91.7479 186.961 91.7773L186.892 91.7843L186.787 91.6584C185.97 90.6528 185.022 88.9443 184.337 87.2453C183.972 86.3405 183.712 85.5104 183.595 84.8727C183.547 84.6129 183.525 84.3947 183.527 84.2291L183.532 84.12C183.534 84.0935 183.534 84.0798 183.527 84.0778L183.553 84.0603C183.699 83.9597 184.072 83.7417 184.625 83.4408L184.772 83.361ZM196.673 81.459C196.34 81.1189 195.793 81.1136 195.453 81.4473C194.855 82.0342 194.016 82.5808 192.552 83.3939L191.061 84.221C190.668 84.4452 190.345 84.6387 190.053 84.8281C189.809 84.9864 189.591 85.1392 189.395 85.2906C189.018 85.5819 188.949 86.1238 189.24 86.5008C189.531 86.8779 190.073 86.9473 190.45 86.656C190.606 86.5357 190.786 86.4097 190.992 86.2757C191.183 86.1521 191.392 86.024 191.635 85.8822L192.11 85.6103L193.624 84.7716C195.078 83.9551 195.955 83.3722 196.661 82.6791C197.002 82.3455 197.007 81.7992 196.673 81.459Z" fill="#7A5AF8"/>
<path fill-rule="evenodd" clip-rule="evenodd" d="M336.848 79.0373C336.731 85.0361 330.383 95.0206 320.179 106.319C312.787 114.504 304.186 122.415 296.974 127.746L296.525 128.075L296.823 129.4C298.577 137.086 300.866 145.441 300.001 153.868C297.902 174.319 281.905 197.392 260.766 208.729C253.056 213.054 244.292 215.721 235.303 216.882L234.446 216.988C227.743 217.778 221.329 217.647 217.409 216.839C202.194 213.702 189.313 203.066 181.526 187.674C181.499 187.622 181.479 187.569 181.464 187.515C180.439 188.1 179.059 188.754 178.429 188.967L176.703 189.551C158.103 195.807 139.663 201.041 132.13 197.774C129.263 196.531 128.282 194.139 129.482 190.926C130.647 187.803 133.879 183.779 139.301 178.772L139.599 178.498C144.736 173.788 156.145 165.182 173.826 152.68L173.831 152.45C174.693 115.405 203.469 87.1645 239.639 89.4698C250.702 90.175 259.512 94.1065 263.913 96.5205L265.848 95.4822C283.999 85.777 298.562 78.955 309.674 74.8717C327.947 68.1566 336.984 71.2962 336.848 79.0373ZM310.269 78.8452C289.836 86.3539 257.543 103.241 212.582 130.406L211.216 131.232C176.206 152.426 153.023 168.527 140.765 179.764L140.16 180.322L139.588 180.859C130.386 189.553 128.754 194.424 132.817 196.185C139.771 199.201 158.446 194.117 176.734 188.118L178.429 187.559C180.06 187.019 181.142 186.709 181.811 186.566C181.84 186.545 181.872 186.526 181.906 186.509C182.135 186.393 182.391 186.389 182.612 186.476C182.66 186.485 182.691 186.5 182.707 186.521C182.856 186.601 182.983 186.727 183.065 186.889C190.625 201.832 203.083 210.938 217.757 213.963C221.566 214.748 227.993 214.864 234.68 214.036L235.082 213.986C243.864 212.851 252.418 211.427 259.936 207.21C280.593 196.132 296.245 173.557 298.285 153.686C299.156 145.193 298.044 136.857 295.086 129.098C294.842 129.269 294.6 129.437 294.36 129.6C293.906 129.91 294.075 129.408 294.868 128.096C294.91 127.925 295.005 127.769 295.14 127.651L295.385 127.265C295.47 127.13 295.56 126.99 295.654 126.844L296.677 125.981C306.315 117.829 313.722 110.888 318.898 105.157L319.489 104.499C329.065 93.7827 335.018 84.3167 335.116 78.9997C335.224 73.167 327.528 72.5027 310.269 78.8452ZM223.632 187.96C225.947 195.035 222.445 199.586 216.28 199.821C210.584 200.038 205.396 196.449 205.661 191.349C205.889 186.94 208.908 182.228 212.624 180.497C217.118 178.404 221.336 180.943 223.632 187.96ZM213.531 182.463C210.558 183.848 208 187.841 207.812 191.47C207.624 195.085 211.62 197.85 216.194 197.676C220.977 197.493 223.431 194.304 221.579 188.641C219.65 182.745 216.716 180.979 213.531 182.463ZM255.186 169.62C246.93 176.022 245.769 183.689 250.561 188.079C253.998 191.227 259.077 191.401 263.82 188.345L263.913 188.284L263.878 188.277C263.55 188.19 263.286 187.925 263.211 187.58L263.197 187.492C263.137 186.985 263.499 186.525 264.006 186.465C265.165 186.327 266.172 186.047 267.025 185.647L267.142 185.59L267.283 185.444C267.84 184.858 268.383 184.22 268.91 183.531L269.085 183.299C269.282 183.035 269.595 182.906 269.901 182.931L269.925 182.933L269.937 182.91C271.045 180.721 270.782 177.755 269.161 174.599L269.064 174.413C265.897 168.427 259.976 165.907 255.186 169.62ZM310.167 103.268C309.692 104.956 308.246 107.273 306.03 110.016C302.165 114.798 296.36 120.364 291.286 124.17L292.412 122.933C292.401 122.923 292.391 122.91 292.383 122.894L291.995 122.181C289.456 117.546 286.627 112.975 282.055 109.248C270.222 114.127 256.653 120.796 244.291 127.77L240.239 130.06C210.4 146.963 194.701 157.082 177.914 169.522C178.547 172.376 179.346 175.161 180.302 177.859C180.452 178.282 178.492 179.867 178.133 179.671C174.784 181.915 169.539 183.545 166.554 183.629C163.644 183.712 161.963 182.534 162.829 180.185C163.553 178.221 166.282 175.419 171.194 171.663L171.754 171.238L172.886 170.388C191.369 156.55 209.668 145.32 243.444 126.267L244.857 125.473C268.023 112.543 294.849 100.893 307.136 99.8179C309.661 99.5969 310.807 100.995 310.167 103.268ZM175.663 171.192L171.791 174.114C168.336 176.734 165.845 178.671 164.5 179.914L164.401 180.006C162.759 181.546 164.618 181.953 166.502 181.9C169.357 181.819 173.73 179.654 177.432 177.684C176.747 175.565 176.157 173.398 175.663 171.192ZM236.242 161.846C236.704 161.963 236.983 162.433 236.866 162.894C236.749 163.356 236.279 163.636 235.817 163.518C233.497 162.929 232.127 163.155 231.682 163.78C231.387 164.195 231.55 164.901 232.102 165.353C232.533 165.705 233.107 165.874 233.502 165.788C233.845 165.713 234.038 165.448 234.038 164.786C234.038 164.309 234.424 163.923 234.9 163.923C235.377 163.923 235.763 164.309 235.763 164.786C235.763 166.227 235.042 167.218 233.869 167.474C232.925 167.679 231.826 167.357 231.009 166.688C229.803 165.702 229.409 163.998 230.276 162.78C231.226 161.445 233.308 161.101 236.242 161.846ZM198.338 158.665C199.669 159.063 200.242 160.085 200.423 161.618L200.441 161.784L200.463 162.036C200.466 162.078 200.469 162.121 200.472 162.168L200.517 163.043L200.531 163.241C200.538 163.327 200.545 163.398 200.554 163.461L200.577 163.593L200.591 163.651L200.615 163.673C200.882 163.933 200.952 164.342 200.78 164.68L200.736 164.756C200.478 165.157 199.944 165.272 199.543 165.014C198.992 164.658 198.867 164.292 198.8 163.243L198.746 162.216C198.739 162.123 198.732 162.043 198.723 161.952C198.625 160.947 198.38 160.478 197.843 160.318C196.336 159.866 195.471 160.327 195.197 161.334C194.953 162.232 195.306 163.175 195.925 163.437L196.081 163.496C196.486 163.668 196.7 164.123 196.563 164.551C196.419 165.005 195.933 165.255 195.479 165.111C193.836 164.587 193.056 162.635 193.532 160.882C194.064 158.925 195.915 157.938 198.338 158.665ZM260.592 145.452C262.981 148.811 262.537 153.085 258.704 155.019C258.278 155.234 257.759 155.063 257.545 154.637C257.33 154.212 257.025 152.832 257.45 152.618C260.225 151.217 261.019 149.029 259.186 146.452C257.405 143.949 254.927 143.674 253.224 146.379C251.418 149.246 251.549 150.93 252.849 151.688C253.881 152.289 255.543 152.163 256 151.671L256.044 151.617C256.321 151.229 256.859 151.138 257.247 151.414C257.636 151.691 257.726 152.229 257.45 152.618C256.491 153.965 253.754 154.213 251.98 153.178C249.709 151.854 249.492 149.067 251.763 145.459C254.196 141.597 258.163 142.037 260.592 145.452ZM224.818 140.504C225.266 140.504 225.635 140.846 225.677 141.283L225.681 141.366C225.681 141.518 225.822 141.688 226.328 142.06L226.807 142.403C227.329 142.784 227.581 143.02 227.819 143.397C228.363 144.257 228.672 145.133 228.672 146.162C228.672 148.799 224.71 152.386 220.386 153.981C215.203 155.895 210.956 154.476 209.801 149.157C209.7 148.691 209.995 148.232 210.461 148.131C210.926 148.03 211.386 148.325 211.487 148.791C212.384 152.919 215.48 153.953 219.789 152.363C223.51 150.989 226.946 147.878 226.946 146.162C226.946 145.499 226.744 144.925 226.361 144.319L226.309 144.246C226.221 144.135 226.084 144.015 225.836 143.832L225.267 143.422C224.321 142.724 223.955 142.254 223.955 141.366C223.955 140.89 224.341 140.504 224.818 140.504ZM228.868 92.6967L228.323 92.758C198.882 96.2986 176.795 119.847 175.59 151.447L178.749 149.224C187.816 142.86 198.341 135.589 210.323 127.414L212.658 126.003C219.628 121.797 226.293 117.84 232.655 114.127C232.539 113.923 232.507 113.673 232.585 113.433C233.03 112.075 233.441 111.163 234.194 110.249C236.552 107.389 239.781 105.993 242.07 107.788C242.295 107.965 242.408 108.232 242.399 108.497L244.432 107.338C250.833 103.694 256.889 100.329 262.605 97.2376L260.372 96.6025C257.062 95.6705 252.942 94.5653 248.839 93.7144C248.877 96.4447 246.833 98.625 243.438 100.125C240.551 101.399 236.79 102.085 234.115 101.926C229.112 101.628 226.296 97.2393 228.868 92.6967ZM280.514 130.155C282.626 135.923 280.884 141.169 275.612 141.134C268.101 141.085 260.766 134.527 261.951 128.651C262.48 126.03 264.451 123.712 267.877 122.555C273.349 120.707 278.365 124.283 280.514 130.155ZM268.43 124.187C265.598 125.144 264.053 126.962 263.643 128.991C262.702 133.654 269.088 139.364 275.623 139.407C279.367 139.431 280.654 135.555 278.894 130.746C277.032 125.657 272.868 122.689 268.43 124.187ZM204.985 103.769L205.046 103.858L205.462 104.519C205.665 104.854 205.847 105.183 206.021 105.537C207.932 109.444 207.882 114.566 204.648 121.676C203.183 124.896 199.451 129.225 196.192 131.808C192.031 135.106 188.924 135.855 185.215 135.448L184.115 135.319L183.981 135.306C183.907 135.301 183.86 135.301 183.808 135.302L183.733 135.306C183.676 135.308 183.656 135.305 183.652 135.298L183.652 135.292L183.624 135.337C183.374 135.695 182.888 135.814 182.498 135.596C182.081 135.365 181.932 134.839 182.163 134.423C182.473 133.865 182.992 133.613 183.651 133.582C183.826 133.574 184.011 133.579 184.231 133.598L184.488 133.623L185.2 133.709C188.578 134.119 191.265 133.511 195.121 130.456C198.182 128.029 201.74 123.903 203.078 120.961C206.104 114.308 206.148 109.725 204.471 106.296C204.359 106.067 204.242 105.85 204.116 105.632L203.936 105.33L203.574 104.758C203.321 104.355 203.443 103.822 203.846 103.569C204.225 103.332 204.716 103.424 204.985 103.769ZM307.283 101.553C301.768 102.035 293.121 104.76 283.153 108.813L283.445 109.07C286.219 111.559 291.816 117.461 293.568 121.671L295.313 119.736C299.618 114.947 302.742 111.35 304.685 108.947L305.078 108.454C306.934 106.098 308.134 104.13 308.503 102.816L308.556 102.617C308.786 101.669 308.52 101.445 307.283 101.553ZM224.673 104.343C226.82 105.381 227.692 107.692 226.279 109.787C226.013 110.183 225.476 110.287 225.081 110.021C224.686 109.754 224.582 109.218 224.848 108.823C225.625 107.67 225.187 106.508 223.922 105.896C222.589 105.252 221.13 105.622 220.376 107.029C219.682 108.324 219.634 110.078 220.189 111.227C220.675 112.236 221.383 112.429 222.464 111.616C222.845 111.329 223.386 111.405 223.672 111.786C223.959 112.167 223.883 112.708 223.502 112.994C221.533 114.477 219.584 113.945 218.635 111.977C217.839 110.328 217.902 107.992 218.855 106.214C220.071 103.945 222.549 103.316 224.673 104.343ZM235.524 111.332C235.122 111.82 234.835 112.335 234.568 112.996C236.792 111.705 238.977 110.443 241.125 109.211L241.063 109.174L241.003 109.131C239.685 108.098 237.363 109.102 235.524 111.332ZM231.844 92.42L231.089 92.473L231.039 92.5367C228.056 96.3059 229.205 99.3653 233.278 99.7997C236.203 100.112 243.969 97.9414 244.88 97.1797C245.767 96.4378 246.889 94.7315 247.062 93.3494C244.426 92.8538 241.848 92.4894 239.549 92.3718C237.199 92.2517 234.881 92.2546 232.602 92.3754L231.844 92.42Z" fill="#7A5AF8"/>
<path d="M309.749 79.0565C328.022 72.3414 327.603 74.3337 310.344 80.6762C289.91 88.1849 212.78 135.234 212.78 135.234C177.77 156.427 175.151 153.156 209.085 132.532L211.177 131.264C211.571 131.025 250.205 106.642 277.812 93.5964C280.918 92.1285 307.668 79.821 309.749 79.0565Z" fill="#7A5AF8"/>
<path fill-rule="evenodd" clip-rule="evenodd" d="M385.793 33.8281C385.908 33.8413 385.988 33.9453 385.975 34.0595C385.975 34.2277 385.866 34.3186 385.721 34.3777C385.59 34.4303 385.38 34.4101 385.258 34.4267C383.924 34.5297 382.875 33.5476 382.413 32.2818C381.97 31.0659 382.088 29.612 382.893 28.7153C382.985 28.6096 383.146 28.599 383.251 28.6916C383.357 28.7842 383.958 28.9452 383.865 29.0509C383.201 29.8255 382.752 30.2955 383.378 32.1341C384.004 33.9727 385.707 33.8182 385.793 33.8281Z" fill="#E7EAEE"/>
<path fill-rule="evenodd" clip-rule="evenodd" d="M173.286 46.9811C172.935 46.7402 172.456 46.8293 172.215 47.1801C171.974 47.5308 172.063 48.0104 172.414 48.2512C172.8 48.5161 173.141 48.7606 173.441 48.9877C173.118 49.2452 172.795 49.5401 172.459 49.8757L171.778 50.5677C171.478 50.8698 171.481 51.3576 171.783 51.6571C172.085 51.9566 172.573 51.9544 172.872 51.6523L173.69 50.8261C174.022 50.5024 174.333 50.2317 174.647 50.0066C175.343 50.6966 175.554 51.2027 175.566 51.7058L175.566 51.8349L175.57 51.9137C175.609 52.3022 175.937 52.6053 176.336 52.6053C176.762 52.6053 177.106 52.2604 177.106 51.8349L177.106 51.6835C177.092 50.8989 176.815 50.1527 176.07 49.3001C176.563 49.1531 177.118 49.0709 177.792 49.0357C178.217 49.0135 178.543 48.6511 178.521 48.2262C178.499 47.8014 178.136 47.4749 177.711 47.4971C176.542 47.5582 175.634 47.753 174.825 48.1233C174.487 47.847 174.104 47.557 173.672 47.2501L173.286 46.9811Z" fill="#7A5AF8"/>
<path fill-rule="evenodd" clip-rule="evenodd" d="M288.717 215.785L289.252 215.788C292.238 215.815 294.572 216.084 298.968 216.79C299.472 216.871 299.815 217.345 299.734 217.849C299.653 218.354 299.179 218.697 298.675 218.616L297.234 218.389C293.597 217.831 291.501 217.634 288.717 217.634C279.056 217.634 272.889 223.681 273.933 232.957C273.99 233.464 273.625 233.922 273.118 233.979C272.61 234.036 272.153 233.671 272.096 233.163C270.922 222.732 278.006 215.785 288.717 215.785ZM296.198 219.502L296.108 219.422C296.021 219.348 295.887 219.358 295.813 219.446C295.737 219.533 295.749 219.665 295.836 219.74L295.929 219.819C296.016 219.894 296.147 219.883 296.223 219.796C296.297 219.708 296.288 219.576 296.198 219.502ZM279.448 221.446C279.116 221.18 278.632 221.232 278.365 221.564C277.289 222.903 276.505 224.208 276.015 225.482C275.54 226.72 275.377 228.802 275.501 231.778L275.531 232.406C275.553 232.831 275.915 233.157 276.34 233.135C276.765 233.113 277.091 232.75 277.069 232.325C276.906 229.216 277.045 227.098 277.454 226.034C277.882 224.92 278.585 223.75 279.566 222.529C279.833 222.197 279.78 221.713 279.448 221.446ZM287.855 218.896C288.233 218.7 288.698 218.848 288.894 219.226C289.089 219.603 288.942 220.068 288.564 220.264C286.999 221.074 285.804 222.433 284.971 224.37C284.078 226.449 283.346 228.305 282.777 229.935C282.637 230.337 282.198 230.549 281.796 230.409C281.395 230.268 281.183 229.829 281.323 229.428C281.904 227.76 282.649 225.872 283.556 223.762C284.524 221.51 285.96 219.878 287.855 218.896ZM292.333 218.868C292.053 218.548 291.566 218.516 291.246 218.796C289.96 219.922 288.972 220.947 288.281 221.876C287.594 222.799 286.791 224.179 285.86 226.025C285.669 226.405 285.821 226.868 286.201 227.059C286.581 227.251 287.044 227.098 287.236 226.718C288.13 224.945 288.893 223.634 289.517 222.796C290.136 221.965 291.051 221.015 292.261 219.955C292.581 219.674 292.614 219.188 292.333 218.868ZM289.52 227.566C289.2 227.846 288.713 227.814 288.433 227.494C288.152 227.174 288.185 226.687 288.505 226.407C289.715 225.346 290.63 224.397 291.249 223.566C291.873 222.727 292.636 221.417 293.53 219.643C293.722 219.264 294.185 219.111 294.565 219.302C294.945 219.494 295.097 219.957 294.906 220.337C293.975 222.183 293.172 223.563 292.485 224.485C291.794 225.415 290.806 226.439 289.52 227.566ZM283.688 219.522C283.338 219.28 282.858 219.368 282.617 219.718C280.894 222.212 279.795 224.076 279.308 225.341C278.82 226.612 278.483 228.324 278.287 230.489C278.249 230.912 278.562 231.287 278.985 231.325C279.409 231.363 279.784 231.051 279.822 230.627C280.006 228.593 280.317 227.012 280.747 225.894C281.147 224.852 282.08 223.245 283.538 221.098L283.884 220.594C284.126 220.243 284.038 219.764 283.688 219.522Z" fill="#543EE8"/>
<path fill-rule="evenodd" clip-rule="evenodd" d="M269.063 214.998L269.594 216.178L270.804 216.525C270.869 216.544 270.907 216.612 270.888 216.677C270.883 216.698 270.872 216.716 270.857 216.731L269.937 217.646L269.989 218.963C269.992 219.031 269.939 219.089 269.871 219.091C269.848 219.092 269.825 219.087 269.805 219.075L268.764 218.482C268.731 218.464 268.692 218.461 268.657 218.475L267.544 218.917C267.481 218.942 267.409 218.911 267.384 218.848C267.376 218.827 267.373 218.803 267.377 218.781L267.612 217.483L266.829 216.449C266.788 216.395 266.798 216.318 266.853 216.276C266.869 216.264 266.889 216.256 266.91 216.253L268.156 216.077L268.846 214.983C268.883 214.925 268.959 214.908 269.016 214.944C269.037 214.957 269.053 214.976 269.063 214.998Z" fill="#7A5AF8"/>
<path fill-rule="evenodd" clip-rule="evenodd" d="M311.933 49.8315C312.216 50.0829 312.57 50.5362 312.882 51.027L313.284 50.8484L313.76 50.6447C313.855 50.601 313.917 50.5668 313.936 50.5391C313.991 50.4371 314.117 50.3983 314.22 50.4524C314.32 50.5064 314.361 50.6329 314.306 50.7347C314.269 50.8315 314.002 51.135 313.506 51.4319C313.416 51.4857 313.317 51.5358 313.21 51.5845C313.393 51.9266 313.537 52.2571 313.604 52.5221C313.706 52.9129 313.625 53.1898 313.49 53.2871C313.359 53.3833 313.029 53.4013 312.527 52.9845C312.435 52.9141 312.42 52.7827 312.49 52.6914C312.56 52.6003 312.691 52.5835 312.784 52.6539C312.879 52.7243 312.976 52.7642 313.054 52.7931L313.016 52.6435C313.001 52.59 312.982 52.5343 312.957 52.4799C312.867 52.2831 312.752 52.0584 312.624 51.8276C312.231 51.9759 311.785 52.1104 311.302 52.1751C311.067 52.2068 310.827 52.2129 310.578 52.2109C310.435 52.2203 310.311 52.1116 310.301 51.9682C310.292 51.825 310.401 51.7009 310.544 51.6915C311.124 51.6355 311.661 51.4889 312.135 51.3239L312.29 51.2681C312.034 50.8674 311.759 50.5035 311.524 50.2981C311.396 50.1853 311.383 49.989 311.495 49.8603C311.61 49.7312 311.805 49.7183 311.933 49.8315Z" fill="#7A5AF8"/>
<path fill-rule="evenodd" clip-rule="evenodd" d="M240.165 131.702C239.543 131.713 238.571 131.822 237.807 132.096C237.154 132.33 238.371 139.562 240.853 140.246C243.353 141.112 245.777 140.224 244.816 136.34C244.797 136.259 244.692 136.036 244.571 135.78C244.394 135.405 244.184 134.961 244.164 134.79C244.094 134.183 243.841 133.664 243.348 133.322C242.714 132.338 241.682 131.676 240.165 131.702ZM240.971 138.498C239.662 137.608 239.046 133.701 240.334 133.501C241.267 134.15 242.172 135.067 242.714 136.781C242.586 137.706 242.074 138.221 241.626 138.672C241.578 138.72 241.531 138.767 241.485 138.815C241.321 138.726 241.149 138.618 240.971 138.498Z" fill="white"/>
<path fill-rule="evenodd" clip-rule="evenodd" d="M141.756 161.012C141.652 160.386 141.723 159.686 142.037 158.939C142.18 158.601 142.555 158.325 143.024 158.14C143.572 157.924 144.242 157.816 144.665 157.788C145.695 157.722 146.318 158.153 146.635 158.823C146.93 159.046 147.042 159.403 147.02 159.825C147.01 160.026 147.275 160.753 147.284 160.891C147.491 163.583 145.749 164.283 144.155 163.755C143.55 164.063 142.966 164.114 142.526 163.787C142.132 163.496 141.83 162.881 141.76 161.796C141.742 161.516 141.74 161.255 141.756 161.012ZM144.583 159.233C143.669 159.413 143.63 162.052 144.429 162.614C144.538 162.69 144.644 162.758 144.747 162.813C145.133 162.465 145.42 162.184 145.584 161.608C145.747 161.032 145.15 159.644 144.583 159.233Z" fill="#FFB61D"/>
<path fill-rule="evenodd" clip-rule="evenodd" d="M215.211 234.12C214.86 233.879 214.381 233.968 214.14 234.319C213.899 234.669 213.988 235.149 214.339 235.39C214.725 235.655 215.065 235.899 215.366 236.126C215.043 236.384 214.72 236.679 214.384 237.014L213.703 237.706C213.403 238.009 213.405 238.496 213.708 238.796C214.01 239.095 214.497 239.093 214.797 238.791L215.614 237.965C215.947 237.641 216.258 237.37 216.571 237.145C217.267 237.835 217.479 238.341 217.491 238.845L217.491 238.974L217.495 239.052C217.534 239.441 217.862 239.744 218.261 239.744C218.686 239.744 219.031 239.399 219.031 238.974L219.031 238.822C219.017 238.038 218.74 237.291 217.995 236.439C218.488 236.292 219.043 236.21 219.716 236.174C220.141 236.152 220.468 235.79 220.446 235.365C220.423 234.94 220.061 234.614 219.636 234.636C218.467 234.697 217.559 234.892 216.75 235.262C216.412 234.986 216.029 234.696 215.596 234.389L215.211 234.12Z" fill="#7A5AF8"/>
<path fill-rule="evenodd" clip-rule="evenodd" d="M215.211 234.12C214.86 233.879 214.381 233.968 214.14 234.319C213.899 234.669 213.988 235.149 214.339 235.39C214.725 235.655 215.065 235.899 215.366 236.126C215.043 236.384 214.72 236.679 214.384 237.014L213.703 237.706C213.403 238.009 213.405 238.496 213.708 238.796C214.01 239.095 214.497 239.093 214.797 238.791L215.614 237.965C215.947 237.641 216.258 237.37 216.571 237.145C217.267 237.835 217.479 238.341 217.491 238.845L217.491 238.974L217.495 239.052C217.534 239.441 217.862 239.744 218.261 239.744C218.686 239.744 219.031 239.399 219.031 238.974L219.031 238.822C219.017 238.038 218.74 237.291 217.995 236.439C218.488 236.292 219.043 236.21 219.716 236.174C220.141 236.152 220.468 235.79 220.446 235.365C220.423 234.94 220.061 234.614 219.636 234.636C218.467 234.697 217.559 234.892 216.75 235.262C216.412 234.986 216.029 234.696 215.596 234.389L215.211 234.12Z" fill="#7A5AF8"/>
<path fill-rule="evenodd" clip-rule="evenodd" d="M247.292 224.568L247.823 225.747L249.033 226.095C249.099 226.114 249.137 226.182 249.118 226.247C249.112 226.267 249.101 226.286 249.086 226.301L248.167 227.216L248.218 228.533C248.221 228.601 248.168 228.658 248.1 228.661C248.077 228.662 248.054 228.656 248.034 228.645L246.993 228.052C246.961 228.034 246.922 228.031 246.887 228.045L245.774 228.487C245.71 228.512 245.639 228.481 245.614 228.418C245.605 228.396 245.603 228.373 245.607 228.35L245.841 227.053L245.058 226.019C245.017 225.965 245.028 225.887 245.082 225.846C245.099 225.834 245.118 225.825 245.139 225.822L246.386 225.647L247.076 224.553C247.112 224.495 247.188 224.478 247.246 224.514C247.266 224.527 247.283 224.546 247.292 224.568Z" fill="#7A5AF8"/>
<path fill-rule="evenodd" clip-rule="evenodd" d="M180.507 216.456L181.41 217.383L182.665 217.295C182.733 217.29 182.792 217.342 182.797 217.41C182.798 217.431 182.795 217.451 182.786 217.47L182.235 218.645L182.734 219.865C182.759 219.928 182.729 220 182.666 220.026C182.645 220.035 182.622 220.037 182.599 220.033L181.418 219.832C181.381 219.826 181.343 219.837 181.315 219.862L180.421 220.658C180.37 220.703 180.292 220.699 180.247 220.648C180.231 220.631 180.221 220.609 180.217 220.587L179.994 219.288L178.904 218.584C178.847 218.547 178.83 218.47 178.867 218.413C178.879 218.395 178.895 218.381 178.913 218.371L180.024 217.78L180.298 216.516C180.313 216.449 180.379 216.407 180.445 216.421C180.469 216.426 180.49 216.438 180.507 216.456Z" fill="#7A5AF8"/>
<path fill-rule="evenodd" clip-rule="evenodd" d="M166.417 131.974L166.948 133.153L168.158 133.501C168.224 133.519 168.262 133.588 168.243 133.653C168.237 133.673 168.226 133.692 168.211 133.706L167.292 134.622L167.343 135.939C167.346 136.007 167.293 136.064 167.225 136.067C167.202 136.068 167.179 136.062 167.159 136.051L166.118 135.458C166.086 135.439 166.047 135.437 166.012 135.451L164.899 135.893C164.835 135.918 164.764 135.887 164.739 135.824C164.73 135.802 164.728 135.779 164.732 135.756L164.966 134.459L164.183 133.425C164.142 133.37 164.153 133.293 164.207 133.252C164.224 133.239 164.243 133.231 164.264 133.228L165.511 133.053L166.201 131.958C166.237 131.901 166.313 131.884 166.371 131.92C166.391 131.933 166.408 131.951 166.417 131.974Z" fill="#7A5AF8"/>
<path fill-rule="evenodd" clip-rule="evenodd" d="M166.293 133.144L166.518 133.645L167.032 133.793C167.06 133.801 167.076 133.83 167.068 133.858C167.066 133.866 167.061 133.874 167.055 133.88L166.664 134.269L166.686 134.828C166.687 134.857 166.665 134.882 166.636 134.883C166.626 134.883 166.616 134.881 166.608 134.876L166.166 134.624C166.152 134.616 166.135 134.615 166.12 134.621L165.648 134.809C165.621 134.82 165.59 134.806 165.58 134.78C165.576 134.77 165.575 134.761 165.577 134.751L165.676 134.2L165.344 133.761C165.326 133.737 165.331 133.705 165.354 133.687C165.361 133.682 165.369 133.678 165.378 133.677L165.908 133.603L166.201 133.138C166.216 133.113 166.248 133.106 166.273 133.121C166.282 133.127 166.288 133.135 166.293 133.144Z" fill="#E7EAEE"/>
<path fill-rule="evenodd" clip-rule="evenodd" d="M103.308 183.739L103.839 184.918L105.049 185.266C105.114 185.284 105.152 185.353 105.134 185.418C105.128 185.438 105.117 185.457 105.102 185.472L104.183 186.387L104.234 187.704C104.237 187.772 104.184 187.829 104.116 187.832C104.093 187.833 104.07 187.827 104.05 187.816L103.009 187.223C102.977 187.205 102.937 187.202 102.903 187.216L101.789 187.658C101.726 187.683 101.654 187.652 101.629 187.589C101.621 187.567 101.618 187.544 101.623 187.521L101.857 186.224L101.074 185.19C101.033 185.136 101.043 185.058 101.098 185.017C101.114 185.004 101.134 184.996 101.155 184.993L102.402 184.818L103.091 183.724C103.128 183.666 103.204 183.649 103.261 183.685C103.282 183.698 103.298 183.717 103.308 183.739Z" fill="#7A5AF8"/>
<path fill-rule="evenodd" clip-rule="evenodd" d="M156.645 77.795L157.03 78.064C157.463 78.371 159.078 79.8935 159.416 80.1699C160.224 79.7991 161.132 79.6043 162.301 79.5433C162.725 79.5211 163.088 79.8475 163.11 80.2724C163.132 80.6973 162.806 81.0597 162.381 81.0819C161.708 81.1171 161.153 81.1992 160.66 81.346C161.406 82.1993 161.683 82.9455 161.697 83.73L161.698 83.8815C161.698 84.3069 161.353 84.6518 160.927 84.6518C160.528 84.6518 160.2 84.3487 160.161 83.9602L160.157 83.8815L160.157 83.7523C160.146 83.2491 159.933 82.7427 159.237 82.0523C158.923 82.2773 158.612 82.5483 158.279 82.8722L157.462 83.6984C157.162 84.0006 156.674 84.0027 156.372 83.7032C156.07 83.4037 156.068 82.916 156.367 82.6138L157.049 81.9219C157.384 81.586 157.708 81.291 158.031 81.0335C157.463 79.7359 155.333 78.3448 155.574 77.994C155.814 77.6433 156.294 77.5542 156.645 77.795Z" fill="#7A5AF8"/>
<path fill-rule="evenodd" clip-rule="evenodd" d="M305.28 166.645L306.329 167.401L307.551 167.097C307.617 167.08 307.684 167.121 307.7 167.187C307.706 167.207 307.705 167.228 307.7 167.249L307.361 168.501L308.064 169.616C308.101 169.673 308.084 169.75 308.026 169.786C308.006 169.798 307.984 169.805 307.961 169.805L306.763 169.812C306.726 169.812 306.69 169.829 306.667 169.859L305.924 170.798C305.882 170.852 305.804 170.861 305.751 170.818C305.733 170.804 305.719 170.785 305.712 170.763L305.266 169.523L304.07 169.019C304.008 168.992 303.978 168.92 304.005 168.857C304.013 168.838 304.026 168.821 304.042 168.808L305.034 168.033L305.085 166.74C305.087 166.672 305.145 166.619 305.213 166.622C305.237 166.623 305.26 166.631 305.28 166.645Z" fill="#7A5AF8"/>
<path fill-rule="evenodd" clip-rule="evenodd" d="M317.337 118.364L317.655 119.618L318.786 120.17C318.848 120.2 318.873 120.274 318.843 120.335C318.834 120.354 318.82 120.37 318.803 120.382L317.738 121.124L317.56 122.43C317.551 122.497 317.489 122.544 317.422 122.535C317.399 122.532 317.377 122.523 317.36 122.508L316.437 121.744C316.409 121.72 316.371 121.71 316.334 121.718L315.161 121.96C315.094 121.974 315.029 121.931 315.015 121.864C315.011 121.841 315.012 121.818 315.02 121.796L315.476 120.56L314.885 119.405C314.854 119.344 314.878 119.27 314.938 119.239C314.957 119.23 314.978 119.225 314.999 119.226L316.257 119.269L317.126 118.311C317.172 118.261 317.25 118.257 317.3 118.303C317.318 118.319 317.331 118.34 317.337 118.364Z" fill="#7A5AF8"/>
<path fill-rule="evenodd" clip-rule="evenodd" d="M289.88 67.8952L290.198 69.1491L291.329 69.7013C291.39 69.7312 291.416 69.805 291.386 69.8661C291.377 69.885 291.363 69.9012 291.346 69.9132L290.281 70.6549L290.103 71.961C290.094 72.0285 290.032 72.0757 289.965 72.0665C289.942 72.0634 289.92 72.054 289.903 72.0393L288.98 71.2748C288.952 71.2509 288.914 71.2414 288.877 71.2489L287.704 71.4911C287.637 71.5048 287.572 71.4619 287.558 71.3953C287.553 71.3727 287.555 71.3493 287.563 71.3277L288.019 70.0909L287.428 68.9363C287.397 68.8757 287.421 68.8015 287.481 68.7704C287.5 68.7608 287.521 68.7562 287.542 68.7569L288.8 68.8005L289.669 67.8427C289.715 67.7923 289.793 67.7885 289.843 67.8342C289.861 67.8505 289.874 67.8717 289.88 67.8952Z" fill="#7A5AF8"/>
<path fill-rule="evenodd" clip-rule="evenodd" d="M370.992 80.1898L371.46 80.148C371.989 80.105 372.469 80.081 372.905 80.0755C373.286 79.2723 373.856 78.5394 374.712 77.7415C375.023 77.4514 375.511 77.4685 375.801 77.7797C376.091 78.0909 376.074 78.5784 375.763 78.8685C375.27 79.3282 374.897 79.7479 374.614 80.177C375.734 80.351 376.426 80.7447 376.941 81.3364L377.039 81.4524C377.312 81.7783 377.27 82.2642 376.944 82.5376C376.638 82.794 376.192 82.7727 375.912 82.5005L375.858 82.4427L375.775 82.3438C375.443 81.9656 374.955 81.714 373.978 81.6328C373.882 82.0068 373.818 82.4148 373.771 82.8768L373.676 84.0351C373.641 84.4591 373.269 84.7742 372.845 84.739C372.421 84.7038 372.105 84.3316 372.141 83.9076L372.218 82.9396C372.259 82.4664 372.317 82.0326 372.4 81.6273C372.024 81.6465 371.606 81.6783 371.14 81.7233C370.717 81.7643 370.341 81.4542 370.3 81.0307C370.259 80.6072 370.569 80.2307 370.992 80.1898Z" fill="#7A5AF8"/>
<path fill-rule="evenodd" clip-rule="evenodd" d="M308.784 133.352C308.645 133.704 308.34 134.192 307.985 134.653L308.291 134.97L308.645 135.347L308.723 135.423C308.758 135.453 308.785 135.472 308.804 135.477C308.919 135.493 308.998 135.599 308.983 135.714C308.966 135.827 308.861 135.908 308.747 135.891C308.643 135.889 308.267 135.742 307.818 135.378C307.737 135.312 307.656 135.235 307.574 135.152C307.315 135.441 307.053 135.689 306.827 135.843C306.495 136.072 306.207 136.091 306.07 135.998C305.934 135.907 305.805 135.603 306.024 134.989C306.059 134.878 306.177 134.82 306.287 134.854C306.397 134.889 306.457 135.006 306.423 135.117C306.389 135.231 306.385 135.335 306.384 135.418L306.512 135.331C306.557 135.299 306.603 135.263 306.646 135.22C306.8 135.068 306.972 134.884 307.145 134.684C306.871 134.366 306.592 133.992 306.366 133.561C306.256 133.351 306.168 133.128 306.085 132.893C306.027 132.762 306.087 132.608 306.218 132.55C306.35 132.492 306.503 132.552 306.561 132.683C306.812 133.21 307.134 133.664 307.451 134.052L307.556 134.179C307.845 133.801 308.093 133.419 308.206 133.128C308.268 132.969 308.448 132.89 308.607 132.951C308.768 133.014 308.847 133.193 308.784 133.352Z" fill="#E7EAEE"/>
<path d="M267.499 110.715C285.587 102.255 300.711 97.7856 310.126 96.965C313.009 96.7137 314.317 98.3033 313.587 100.889C313.045 102.809 311.394 105.444 308.863 108.564C304.451 114.003 298.634 118.657 292.841 122.986C302.109 114.432 304.472 110.854 307.331 107.33L307.78 106.77C309.899 104.09 311.269 101.851 311.691 100.357L311.751 100.131C312.013 99.0523 311.709 98.7971 310.298 98.9201C301.095 99.7222 286.03 104.2 268.008 112.649C249.957 121.112 249.441 119.162 267.499 110.715Z" fill="white"/>
<path d="M184.771 83.3506L184.903 83.6654C185.819 85.8382 186.771 87.9898 187.852 90.3366L188.272 91.247C188.135 91.3396 187.954 91.4378 187.754 91.5249C187.468 91.6498 187.178 91.7375 186.96 91.7668L186.89 91.7738L186.785 91.6479C185.968 90.6424 185.02 88.9338 184.335 87.2349C183.97 86.33 183.711 85.5 183.593 84.8623C183.546 84.6025 183.524 84.3843 183.526 84.2187L183.531 84.1096C183.532 84.0831 183.532 84.0693 183.526 84.0673L183.552 84.0499C183.697 83.9492 184.07 83.7313 184.624 83.4304L184.771 83.3506Z" fill="white"/>
<path fill-rule="evenodd" clip-rule="evenodd" d="M207.637 75.4778C208.204 74.7848 208.938 74.8882 209.868 75.4521L210.106 75.6029L210.775 76.0458C210.962 76.1657 211.043 76.2071 211.152 76.2505C211.405 76.3513 211.528 76.638 211.428 76.891C211.327 77.1439 211.04 77.2674 210.787 77.1666L210.697 77.1296C210.526 77.0563 210.397 76.9802 210.051 76.7504L209.571 76.4309C209.492 76.3793 209.424 76.3361 209.356 76.2952C208.8 75.9579 208.548 75.9223 208.401 76.1017C208.309 76.2147 208.331 76.4556 208.515 76.9495L208.716 77.4677C209.116 78.5292 209.118 79.0038 208.406 79.4089C207.793 79.7576 207.478 79.5947 206.598 78.7318L206.384 78.5201C205.82 77.9569 205.524 77.7609 205.334 77.8012C205.271 77.8145 205.197 77.8594 205.107 77.9554C205.001 78.068 204.971 78.4282 205.036 79.0672L205.135 79.9017C205.251 80.9218 205.204 81.1861 204.783 81.4679C204.203 81.8561 203.432 81.4174 202.001 80.133C201.799 79.9511 201.782 79.6393 201.964 79.4368C202.146 79.2342 202.458 79.2174 202.66 79.3994C203.272 79.9484 203.733 80.306 204.056 80.4893L204.128 80.5287L204.189 80.5588L204.19 80.4971L204.186 80.3494C204.18 80.2284 204.165 80.0821 204.134 79.8336L204.072 79.3215C203.952 78.2829 203.989 77.7054 204.387 77.2808C204.609 77.045 204.857 76.8941 205.13 76.8365C205.763 76.7025 206.213 76.9731 206.96 77.7033L207.337 78.0743C207.744 78.4654 207.895 78.5653 207.918 78.5518C208.011 78.4993 207.997 78.3359 207.747 77.6946L207.638 77.4168C207.289 76.5215 207.223 75.9854 207.637 75.4778Z" fill="#7A5AF8"/>
<path fill-rule="evenodd" clip-rule="evenodd" d="M276.87 15.646L276.402 15.6878C275.978 15.7288 275.668 16.1053 275.709 16.5288C275.734 16.7837 275.88 16.9975 276.085 17.1184L276.004 17.1765C275.656 17.4221 275.574 17.9028 275.819 18.2502C276.065 18.5976 276.545 18.6802 276.893 18.4346L277.688 17.8716C277.665 18.0541 277.645 18.2425 277.628 18.4376L277.55 19.4056C277.515 19.8296 277.83 20.2019 278.254 20.2371C278.678 20.2723 279.051 19.9571 279.086 19.5331L279.181 18.3748C279.206 18.1281 279.236 17.8969 279.273 17.678C279.541 18.1889 279.595 18.583 279.538 18.9558L279.515 19.0829L279.506 19.1612C279.477 19.5506 279.748 19.9061 280.14 19.9753C280.559 20.0492 280.959 19.7695 281.033 19.3505L281.059 19.2013C281.141 18.6811 281.103 18.1574 280.893 17.576C281.004 17.6558 281.1 17.7446 281.185 17.8418L281.268 17.9407L281.322 17.9985C281.602 18.2707 282.048 18.2921 282.354 18.0357C282.679 17.7622 282.722 17.2763 282.449 16.9504L282.351 16.8344C282.316 16.7943 282.28 16.7551 282.244 16.7167C282.645 16.7392 283.001 16.4465 283.05 16.0415C283.102 15.6193 282.802 15.2349 282.38 15.1829C281.655 15.0939 281.022 15.0736 280.439 15.1256C280.648 14.8795 280.89 14.6296 281.172 14.3665C281.484 14.0764 281.501 13.589 281.211 13.2778C280.921 12.9666 280.433 12.9495 280.122 13.2396C279.599 13.7266 279.183 14.1894 278.852 14.6588C278.723 14.5223 278.588 14.3824 278.446 14.2388L278.113 13.9069C277.81 13.6089 277.322 13.6133 277.024 13.9169C276.726 14.2205 276.73 14.7083 277.034 15.0063C277.245 15.2138 277.44 15.4101 277.62 15.5961C277.382 15.6081 277.132 15.6248 276.87 15.646Z" fill="#543EE8"/>
<path fill-rule="evenodd" clip-rule="evenodd" d="M231.472 0.503729C231.33 0.357532 231.099 0.361613 230.956 0.512842C230.814 0.664072 230.814 0.905183 230.957 1.05138C231.093 1.19047 231.214 1.31936 231.322 1.43927C231.094 1.53613 230.864 1.66159 230.619 1.81651L230.246 2.05547C230.082 2.15966 230.047 2.3681 230.166 2.52104C230.286 2.67398 230.515 2.7135 230.679 2.60931L231.125 2.32431C231.359 2.18139 231.569 2.07326 231.781 1.99739C232.101 2.44325 232.168 2.72922 232.127 2.99436L232.116 3.05731L232.111 3.09603C232.096 3.28866 232.223 3.46337 232.408 3.49611C232.607 3.53103 232.797 3.39119 232.833 3.18377L232.846 3.10991C232.907 2.72532 232.842 2.33787 232.567 1.85942C232.754 1.85652 232.958 1.8704 233.189 1.89996C233.391 1.92571 233.571 1.79803 233.593 1.61477C233.614 1.43152 233.469 1.26209 233.267 1.23634C232.826 1.1799 232.456 1.17344 232.117 1.21918C231.977 1.04741 231.815 0.864011 231.629 0.666537L231.472 0.503729Z" fill="#E7EAEE"/>
<path fill-rule="evenodd" clip-rule="evenodd" d="M132.499 128.986L133.029 130.166L134.239 130.513C134.305 130.532 134.343 130.6 134.324 130.666C134.318 130.686 134.307 130.704 134.292 130.719L133.373 131.634L133.425 132.952C133.427 133.02 133.374 133.077 133.306 133.08C133.283 133.08 133.26 133.075 133.24 133.063L132.2 132.471C132.167 132.452 132.128 132.449 132.093 132.463L130.98 132.905C130.917 132.931 130.845 132.9 130.82 132.836C130.811 132.815 130.809 132.792 130.813 132.769L131.047 131.472L130.264 130.437C130.223 130.383 130.234 130.306 130.288 130.265C130.305 130.252 130.325 130.244 130.345 130.241L131.592 130.065L132.282 128.971C132.318 128.914 132.394 128.896 132.452 128.933C132.472 128.945 132.489 128.964 132.499 128.986Z" fill="#7A5AF8"/>
<path fill-rule="evenodd" clip-rule="evenodd" d="M139.576 63.5219L140.107 64.7016L141.317 65.0489C141.382 65.0677 141.42 65.1359 141.401 65.2014C141.395 65.2215 141.384 65.2399 141.37 65.2547L140.45 66.17L140.502 67.4872C140.504 67.5552 140.451 67.6125 140.383 67.6152C140.36 67.6161 140.338 67.6105 140.318 67.5991L139.277 67.0063C139.244 66.9878 139.205 66.9851 139.17 66.9989L138.057 67.441C137.994 67.4662 137.922 67.4352 137.897 67.372C137.888 67.3506 137.886 67.3272 137.89 67.3046L138.124 66.0074L137.341 64.973C137.3 64.9188 137.311 64.8415 137.365 64.8004C137.382 64.7877 137.402 64.7795 137.422 64.7766L138.669 64.6011L139.359 63.5068C139.395 63.4492 139.471 63.4319 139.529 63.4682C139.55 63.4811 139.566 63.4998 139.576 63.5219Z" fill="#7A5AF8"/>
<path d="M155.608 167.77C156.003 167.483 156.557 167.571 156.844 167.967C157.131 168.362 144.613 178.558 139.757 183.23L139.193 183.778C136.419 186.491 134.374 188.842 133.222 190.699C132 192.668 131.922 193.737 132.71 194.174C135.702 195.832 140.004 196.64 146.165 195.619L146.798 195.512C149.143 195.1 166.784 191.253 166.504 191.355L166.396 191.388C165.84 191.536 158.657 194.02 156.178 194.651L155.878 194.726C152.088 195.68 149.122 196.333 146.454 196.775C139.935 197.855 135.277 197.619 131.853 195.722C129.877 194.627 130.034 192.48 131.718 189.766C133.042 187.632 135.372 184.994 138.53 181.955C143.451 177.22 150.373 171.572 155.608 167.77Z" fill="white"/>
</svg>
