<svg width="452" height="240" viewBox="0 0 452 240" fill="none" xmlns="http://www.w3.org/2000/svg">
<path d="M49.4357 54.9008L0.444336 157.739V179.365H73.9314V211.364H112.551V179.365H127.557V146.484H112.551V117.133H73.9314V146.484H46.9978L91.8067 54.9008H49.4357Z" fill="#1D2939"/>
<path d="M324.443 157.739L373.435 54.9008H415.806L370.997 146.484H397.93V117.133H436.55V146.484H451.556V179.365H436.55V211.364H397.93V179.365H324.443V157.739Z" fill="#1D2939"/>
<path d="M194.292 71.2805C194.702 71.0384 195.231 71.1748 195.473 71.5852L196.45 73.2329C200.328 79.74 201.88 81.8531 203.528 82.8083C204.884 83.5935 206.285 83.3498 208.85 81.8456L209.192 81.6399C210.805 80.6344 218.187 75.5639 221.041 73.7433C221.442 73.487 221.976 73.6049 222.232 74.0066C222.488 74.4084 222.37 74.9418 221.969 75.198L221.529 75.4807C218.349 77.5424 211.205 82.449 209.94 83.2052C206.835 85.062 204.822 85.4792 202.804 84.3805L202.663 84.3014C200.496 83.0456 198.81 80.6365 193.987 72.4621C193.745 72.0517 193.881 71.5227 194.292 71.2805Z" fill="white"/>
<path d="M208.268 81.2585C208.74 81.1953 209.174 81.5269 209.238 81.9992C209.531 84.1939 210.235 86.3947 211.353 88.6039C211.568 89.0291 211.397 89.5481 210.972 89.7632C210.547 89.9782 210.028 89.8079 209.813 89.3827C208.61 87.0054 207.847 84.6198 207.527 82.2281C207.464 81.7558 207.796 81.3217 208.268 81.2585Z" fill="white"/>
<path fill-rule="evenodd" clip-rule="evenodd" d="M308.784 133.947C308.645 134.299 308.34 134.787 307.985 135.248L308.291 135.565L308.645 135.942L308.723 136.017C308.758 136.048 308.785 136.066 308.804 136.071C308.919 136.088 308.998 136.193 308.983 136.309C308.966 136.421 308.861 136.503 308.747 136.486C308.643 136.484 308.267 136.337 307.818 135.972C307.737 135.906 307.656 135.83 307.574 135.747C307.315 136.035 307.053 136.283 306.827 136.437C306.495 136.667 306.207 136.685 306.07 136.592C305.934 136.502 305.805 136.198 306.024 135.584C306.059 135.473 306.177 135.414 306.287 135.449C306.397 135.484 306.457 135.601 306.423 135.712C306.389 135.826 306.385 135.93 306.384 136.013L306.512 135.926C306.557 135.894 306.603 135.857 306.646 135.815C306.8 135.663 306.972 135.479 307.145 135.279C306.871 134.961 306.592 134.587 306.366 134.156C306.256 133.946 306.168 133.722 306.085 133.488C306.027 133.357 306.087 133.203 306.218 133.145C306.35 133.087 306.503 133.147 306.561 133.278C306.812 133.804 307.134 134.258 307.451 134.647L307.556 134.774C307.845 134.396 308.093 134.014 308.206 133.722C308.268 133.564 308.448 133.485 308.607 133.545C308.768 133.609 308.847 133.788 308.784 133.947Z" fill="white"/>
<path fill-rule="evenodd" clip-rule="evenodd" d="M204.175 35.082L204.706 36.2617L205.916 36.609C205.982 36.6278 206.019 36.6961 206.001 36.7615C205.995 36.7817 205.984 36.8 205.969 36.8148L205.05 37.7301L205.101 39.0473C205.104 39.1153 205.051 39.1726 204.983 39.1753C204.96 39.1762 204.937 39.1706 204.917 39.1592L203.876 38.5664C203.844 38.5479 203.805 38.5452 203.77 38.559L202.657 39.0012C202.593 39.0263 202.522 38.9954 202.497 38.9321C202.488 38.9107 202.486 38.8874 202.49 38.8647L202.724 37.5675L201.941 36.5332C201.9 36.4789 201.911 36.4016 201.965 36.3605C201.982 36.3478 202.001 36.3396 202.022 36.3367L203.269 36.1612L203.959 35.0669C203.995 35.0093 204.071 34.992 204.129 35.0283C204.149 35.0413 204.165 35.0599 204.175 35.082Z" fill="#7A5AF8"/>
<path d="M211.455 88.7811L211.953 88.5998C216.66 86.9106 220.632 86.1651 221.641 87.1917C222.526 88.0919 223.314 89.7222 224.062 92.1134C224.204 92.5682 223.95 93.0521 223.496 93.1943C223.041 93.3364 222.557 93.083 222.415 92.6282C221.768 90.5602 221.109 89.1685 220.485 88.4804L220.459 88.4535L220.437 88.4547C220.319 88.4305 220.142 88.4184 219.916 88.4227C219.419 88.4323 218.739 88.52 217.928 88.6808C216.258 89.0117 214.148 89.627 212.052 90.4C208.548 91.6927 205.629 93.2114 204.016 94.5833C203.424 95.087 202.343 93.684 203.383 92.8802C205.255 91.4341 208.093 90.021 211.455 88.7811Z" fill="white"/>
<path d="M209.084 72.4892C209.084 75.367 212.128 78.483 212.775 78.6603C213.235 78.7862 205.317 83.9454 205.317 83.9454C202.455 84.3219 200.775 81.9035 200.775 78.3008C200.775 77.8243 209.084 72.0127 209.084 72.4892Z" fill="white"/>
<path fill-rule="evenodd" clip-rule="evenodd" d="M199.748 73.9988C200.75 73.8039 201.431 72.9689 201.269 72.1336C201.107 71.2984 200.162 70.7792 199.16 70.974C198.158 71.1689 197.477 72.0039 197.639 72.8392C197.802 73.6744 198.746 74.1936 199.748 73.9988Z" fill="#FFB61D"/>
<path d="M342.469 46.2493C337.551 45.9978 333.678 49.7966 333.637 54.896C333.603 59.1924 336.023 62.7303 339.347 63.4157C340.692 63.6928 343.273 63.3595 345.187 62.2859C348.094 60.7269 350.316 57.5218 350.596 54.791C351.053 50.3419 347.451 46.504 342.469 46.2493Z" fill="white"/>
<path d="M253.342 45.3432C254.913 48.5163 257.353 55.8455 256.298 55.8102C253.367 55.7123 249.445 51.2077 246.702 45.117L246.486 44.6271C244.091 39.0973 242.657 35.6231 244.322 34.9577C246.045 34.2693 250.1 38.7942 253.342 45.3432Z" fill="white"/>
<path fill-rule="evenodd" clip-rule="evenodd" d="M244.32 34.9001C246.043 34.2117 250.157 38.5299 253.4 45.0789C254.971 48.252 256.037 51.2959 256.315 53.4788C256.315 53.4788 251.009 42.2991 247.773 38.2043C246.53 36.6314 244.32 34.9001 244.32 34.9001Z" fill="#E7EAEE"/>
<path d="M243.414 63.0465C243.541 62.5871 244.015 62.3171 244.475 62.4434C244.934 62.5698 245.204 63.0447 245.078 63.5041C244.915 64.0951 242.63 65.6453 237.644 68.7192L234.496 70.6454C228.283 74.428 224.136 76.8484 223.618 76.8484C220.187 76.8484 217.096 73.612 214.839 68.5054C212.868 64.0467 211.845 58.7392 212.307 55.2611C212.451 54.1755 216.068 51.3654 221.653 47.6005L222.452 47.0644C227.393 43.7731 231.616 41.3321 233.144 41.0239C233.611 40.9297 234.066 41.2319 234.16 41.699C234.219 41.9912 220.601 53.47 219.271 61.0887C218.37 66.2473 221.775 75.0397 223.465 75.1192L223.618 75.1228C223.481 75.1228 223.525 75.0908 223.541 75.0817L223.696 75.0015C223.811 74.9414 223.947 74.868 224.104 74.782L224.822 74.3804C225.096 74.2248 225.402 74.0494 225.737 73.8562L226.593 73.3588C228.228 72.4043 230.268 71.1891 232.349 69.9303L234.327 68.7272C236.734 67.257 238.908 65.9014 240.542 64.8487L241.383 64.3019C241.905 63.9599 242.345 63.6639 242.697 63.4187L242.825 63.3291C243.019 63.1922 243.181 63.0744 243.307 62.9777C243.307 62.9777 243.449 62.9214 243.414 63.0465Z" fill="white"/>
<path fill-rule="evenodd" clip-rule="evenodd" d="M245.125 45.837C243.043 41.2123 242.121 36.9738 242.816 34.4043C241.555 34.8053 239.979 35.5254 238.415 36.4228C236.334 37.6166 234.682 38.9509 234.644 39.2406C234.242 42.2685 235.785 48.1592 238.351 53.411C241.095 59.0284 244.359 62.6365 246.887 62.6365C247.128 62.6365 247.821 62.4938 248.515 62.2513C249.502 61.9064 250.427 61.404 251.185 60.7457C251.561 60.4185 251.951 60.0485 252.359 59.6356L252.849 59.1284C253.139 58.8224 253.438 58.4928 253.904 57.9707L254.553 57.2455L254.585 57.2104C251.333 56.025 247.93 51.836 245.385 46.4028L245.125 45.837ZM232.933 39.0133C233.201 36.9959 240.745 32.638 244.202 32.3461C244.35 32.2524 244.508 32.1714 244.678 32.1037C247.667 30.9094 252.221 36.0253 255.874 43.2236L256.124 43.7233C257.773 47.0536 258.898 50.267 259.205 52.6705C259.571 55.5417 258.74 57.4456 256.561 57.5446C256.504 57.7738 256.356 57.9656 256.158 58.0807L256.124 58.0979L256.039 58.183C255.953 58.2708 255.853 58.3798 255.697 58.5526L254.625 59.7493C254.236 60.178 253.961 60.4688 253.587 60.8475C253.151 61.29 252.729 61.6898 252.316 62.0484C250.646 63.4993 248.177 64.3621 246.887 64.3621C246.199 64.3621 245.504 64.2015 244.807 63.8949C244.057 64.6706 241.779 66.1716 237.646 68.7197L234.498 70.6459C228.285 74.4285 224.138 76.8489 223.62 76.8489C222.447 76.8489 221.313 76.4705 220.239 75.7681C220.227 75.7767 220.215 75.7851 220.202 75.7932L219.763 76.0759C218.234 77.0668 215.79 78.715 213.523 80.2437L213.379 80.3405C213.672 82.4352 214.339 84.5355 215.382 86.6433C219.09 85.4961 222.027 85.1082 222.875 85.9705C223.76 86.8707 224.548 88.501 225.296 90.8921C225.438 91.3469 225.184 91.8309 224.729 91.973C224.275 92.1152 223.791 91.8618 223.649 91.407C223.002 89.339 222.343 87.9472 221.719 87.2592L221.693 87.2323L221.671 87.2334C221.553 87.2093 221.376 87.1972 221.15 87.2015C220.653 87.2111 219.973 87.2988 219.162 87.4596C217.492 87.7904 215.382 88.4057 213.286 89.1788C208.495 90.946 204.798 93.1358 204.038 94.7953C203.815 95.281 203.844 95.9918 204.11 97.0802L204.159 97.2762C204.199 97.4304 204.241 97.5833 204.295 97.7767L204.607 98.8793C204.62 98.9276 204.633 98.9769 204.649 99.039C204.769 99.5003 204.492 99.9712 204.03 100.091C203.569 100.211 203.098 99.9338 202.979 99.4726L202.825 98.9146L202.57 98.014C202.541 97.9076 202.515 97.8092 202.489 97.7093C202.085 96.1505 202.02 95.0581 202.469 94.0769C203.231 92.4137 205.613 90.6909 208.93 89.1242L208.207 87.2583L208.029 86.7868C207.756 86.0526 207.438 85.0575 207.243 84.3304C204.651 85.7272 202.846 85.9607 201.037 84.9757L200.897 84.8966C200.538 84.6887 200.193 84.4493 199.844 84.1575L189.734 90.2982C189.827 90.5005 189.922 90.7045 190.018 90.9101C190.472 91.8832 189.671 92.5721 188.444 93.1082L188.312 93.1645C187.257 93.6014 186.305 93.7016 185.738 93.0796C183.387 90.4986 180.897 84.3248 182.236 82.9128C182.494 82.6416 183.172 82.2379 184.456 81.5646L184.539 81.5214C184.572 81.4972 184.607 81.475 184.643 81.455L194.096 76.3338C194.116 76.3231 194.136 76.3132 194.156 76.3042C193.571 75.3368 192.93 74.2593 192.22 73.0572C192.138 72.9184 192.1 72.766 192.101 72.6157C192.099 72.3861 192.189 72.1565 192.369 71.9859C194.314 70.1392 196.966 68.2137 200.295 66.1399L200.698 65.8904C202.135 65.0039 205.051 63.3409 207.528 61.9281C209.45 60.8322 211.107 59.8869 211.606 59.5712L211.727 59.491C211.908 59.3584 212.124 59.3069 212.331 59.3297C212.167 57.8328 212.152 56.4419 212.309 55.2616C212.453 54.1761 216.07 51.3659 221.655 47.601L222.454 47.0649C227.134 43.9474 231.17 41.5927 232.882 41.0909C232.837 40.3239 232.852 39.6249 232.933 39.0133ZM233.069 42.841C231.392 43.4551 227.197 45.9458 222.619 49.0318L221.886 49.5292C219.825 50.9354 217.921 52.3065 216.483 53.4239L216.083 53.7373C215.442 54.2458 214.922 54.6841 214.546 55.0355C214.357 55.2118 214.208 55.3626 214.103 55.4826L214.03 55.5692C214.014 55.5858 214.009 55.5794 214.015 55.5251L214.02 55.4889C214.018 55.5028 214.016 55.5148 214.015 55.5251L213.992 55.7103C213.163 62.9915 218.428 74.8827 223.467 75.1198L223.586 75.1226C223.596 75.1231 223.607 75.1234 223.62 75.1234L223.586 75.1226C223.491 75.1176 223.528 75.0905 223.543 75.0822L223.698 75.0021C223.813 74.9419 223.949 74.8686 224.106 74.7825L224.824 74.3809C225.098 74.2253 225.404 74.05 225.739 73.8567L226.595 73.3593C228.23 72.4049 230.27 71.1896 232.351 69.9308L234.329 68.7277C236.736 67.2575 238.91 65.902 240.544 64.8493L241.385 64.3024C241.907 63.9604 242.347 63.6645 242.699 63.4192L242.827 63.3296C243.009 63.2016 243.162 63.0903 243.284 62.9974C241.065 61.3649 238.88 58.356 236.94 54.452L236.8 54.1683C234.925 50.3303 233.57 46.1736 233.069 42.841ZM212.569 61.0009C211.948 61.3916 210.11 62.4412 208.065 63.6093L208.064 63.6095L208.064 63.6095C205.643 64.9921 202.931 66.5407 201.603 67.3592C198.466 69.2934 195.936 71.0863 194.059 72.7743L194.683 73.8281C197.406 78.3967 198.982 80.7993 200.25 82.156C199.828 81.1566 199.609 79.8876 199.609 78.2955C199.609 78.2231 199.618 78.1528 199.634 78.0857C199.552 77.7559 199.67 77.3942 199.961 77.1806L200.549 76.7438C200.901 76.4774 201.481 76.0342 202.14 75.5303L202.142 75.5294L202.143 75.5286C203.585 74.426 205.407 73.0339 206.057 72.5682C208.103 71.1025 209.612 70.2801 210.985 69.9947C211.641 69.8583 212.15 70.2464 212.298 70.8473L212.322 70.9567C212.357 71.1355 212.363 71.3114 212.362 71.6957L212.362 71.8174C212.355 73.2531 212.497 74.0817 213.105 75.0386C213.521 75.6936 214.132 76.2912 214.984 76.8263C215.072 76.8818 215.147 76.9505 215.207 77.0283C216.585 76.1032 217.875 75.2429 218.826 74.6268C217.328 73.1782 215.978 71.0796 214.841 68.506C213.782 66.1108 212.997 63.4707 212.569 61.0009ZM257.493 52.887C257.215 50.7041 256.149 47.6602 254.578 44.4871C251.335 37.9381 247.041 33.0159 245.318 33.7043C243.653 34.3697 244.087 39.1069 246.482 44.6367L246.699 45.1266C249.442 51.2173 253.363 55.7219 256.294 55.8198C257.349 55.8551 257.762 54.9933 257.493 52.887ZM195.048 77.7644C196.546 80.1857 197.64 81.7856 198.593 82.8984L189.008 88.7201C188.025 86.5659 187.146 84.5608 186.293 82.5238L194.918 77.851C194.965 77.8257 195.008 77.7966 195.048 77.7644ZM213.727 87.1877C212.797 85.2643 212.155 83.3355 211.803 81.4026C210.564 82.2361 209.487 82.9576 208.794 83.4076C208.914 84.0045 209.354 85.4144 209.733 86.4173L210.441 88.24L210.509 88.4194C211.206 88.1252 211.934 87.8382 212.689 87.5599L213.187 87.3786C213.368 87.3136 213.548 87.2499 213.727 87.1877ZM213.698 78.0442C212.816 77.432 212.139 76.7357 211.648 75.964C210.854 74.7135 210.645 73.6456 210.636 72.0323L210.636 71.8879L210.514 71.9336C209.639 72.2732 208.595 72.8874 207.283 73.8137L207.062 73.971C206.438 74.4183 204.661 75.7759 203.228 76.8713L203.227 76.8715L203.227 76.8721L203.226 76.873C202.429 77.4817 201.739 78.0092 201.411 78.2541L201.334 78.3111C201.337 81.178 202.053 82.494 203.385 83.1325L203.492 83.1816C203.809 83.3221 204.036 83.3928 204.684 83.5701C204.697 83.5739 204.711 83.5779 204.724 83.5823C205.395 83.3563 206.165 82.9793 207.083 82.4408L207.425 82.235C208.185 81.7618 210.222 80.3877 212.464 78.8759L212.465 78.875L212.466 78.8744L212.467 78.8741L212.467 78.874L212.467 78.8739L212.47 78.8717L212.496 78.8545C212.892 78.5872 213.295 78.3157 213.698 78.0442ZM184.772 83.3608L184.904 83.6756C185.821 85.8484 186.773 88 187.854 90.3468L188.274 91.2572C188.136 91.3498 187.955 91.4481 187.756 91.5351C187.47 91.66 187.179 91.7477 186.961 91.7771L186.892 91.784L186.787 91.6581C185.97 90.6526 185.022 88.9441 184.337 87.2451C183.972 86.3402 183.712 85.5102 183.595 84.8725C183.547 84.6127 183.525 84.3945 183.527 84.2289L183.532 84.1198C183.534 84.0933 183.534 84.0795 183.527 84.0775L183.553 84.0601C183.699 83.9595 184.072 83.7415 184.625 83.4406L184.772 83.3608ZM196.673 81.4588C196.34 81.1186 195.793 81.1134 195.453 81.4471C194.855 82.034 194.016 82.5805 192.552 83.3937L191.061 84.2207C190.668 84.445 190.345 84.6385 190.053 84.8279C189.809 84.9861 189.591 85.1389 189.395 85.2903C189.018 85.5817 188.949 86.1235 189.24 86.5006C189.531 86.8776 190.073 86.9471 190.45 86.6558C190.606 86.5355 190.786 86.4094 190.992 86.2755C191.183 86.1519 191.392 86.0237 191.635 85.8819L192.11 85.6101L193.624 84.7714C195.078 83.9549 195.955 83.372 196.661 82.6789C197.002 82.3452 197.007 81.799 196.673 81.4588Z" fill="#7A5AF8"/>
<path fill-rule="evenodd" clip-rule="evenodd" d="M336.848 79.0374C336.731 85.0363 330.383 95.0207 320.179 106.319C312.787 114.504 304.186 122.415 296.974 127.746L296.525 128.075L296.823 129.4C298.577 137.086 300.866 145.442 300.001 153.868C297.902 174.319 281.905 197.392 260.766 208.729C253.056 213.054 244.292 215.722 235.303 216.883L234.446 216.988C227.743 217.778 221.329 217.647 217.409 216.839C202.194 213.702 189.313 203.067 181.526 187.674C181.499 187.622 181.479 187.569 181.464 187.515C180.439 188.1 179.059 188.754 178.429 188.968L176.703 189.551C158.103 195.807 139.663 201.041 132.13 197.774C129.263 196.531 128.282 194.139 129.482 190.926C130.647 187.803 133.879 183.779 139.301 178.772L139.599 178.498C144.736 173.788 156.145 165.182 173.826 152.68L173.831 152.451C174.693 115.405 203.469 87.1646 239.639 89.47C250.702 90.1751 259.512 94.1066 263.913 96.5207L265.848 95.4823C283.999 85.7771 298.562 78.9551 309.674 74.8718C327.947 68.1567 336.984 71.2963 336.848 79.0374ZM310.269 78.8453C289.836 86.354 257.543 103.241 212.582 130.406L211.216 131.232C176.206 152.426 153.023 168.527 140.765 179.764L140.16 180.322L139.588 180.859C130.386 189.553 128.754 194.424 132.817 196.185C139.771 199.201 158.446 194.117 176.734 188.119L178.429 187.56C180.06 187.019 181.142 186.709 181.811 186.566C181.84 186.545 181.872 186.526 181.906 186.509C182.135 186.393 182.391 186.389 182.612 186.476C182.66 186.485 182.691 186.5 182.707 186.521C182.856 186.601 182.983 186.727 183.065 186.889C190.625 201.832 203.083 210.938 217.757 213.963C221.566 214.749 227.993 214.864 234.68 214.037L235.082 213.986C243.864 212.851 252.418 211.428 259.936 207.21C280.593 196.132 296.245 173.557 298.285 153.686C299.156 145.193 298.044 136.857 295.086 129.098C294.842 129.269 294.6 129.437 294.36 129.6C293.906 129.91 294.075 129.409 294.868 128.096C294.91 127.925 295.005 127.769 295.14 127.652L295.385 127.265C295.47 127.13 295.56 126.99 295.654 126.844L296.677 125.981C306.315 117.829 313.722 110.888 318.898 105.157L319.489 104.499C329.065 93.7828 335.018 84.3168 335.116 78.9998C335.224 73.1671 327.528 72.5028 310.269 78.8453ZM223.632 187.96C225.947 195.035 222.445 199.586 216.28 199.821C210.584 200.039 205.396 196.449 205.661 191.349C205.889 186.94 208.908 182.228 212.624 180.497C217.118 178.404 221.336 180.943 223.632 187.96ZM213.531 182.463C210.558 183.848 208 187.841 207.812 191.471C207.624 195.085 211.62 197.851 216.194 197.676C220.977 197.494 223.431 194.304 221.579 188.641C219.65 182.745 216.716 180.98 213.531 182.463ZM255.186 169.621C246.93 176.022 245.769 183.689 250.561 188.079C253.998 191.227 259.077 191.401 263.82 188.345L263.913 188.284L263.878 188.277C263.55 188.19 263.286 187.925 263.211 187.58L263.197 187.492C263.137 186.985 263.499 186.525 264.006 186.465C265.165 186.327 266.172 186.047 267.025 185.647L267.142 185.59L267.283 185.444C267.84 184.858 268.383 184.22 268.91 183.531L269.085 183.299C269.282 183.035 269.595 182.906 269.901 182.931L269.925 182.933L269.937 182.91C271.045 180.721 270.782 177.756 269.161 174.599L269.064 174.413C265.897 168.427 259.976 165.907 255.186 169.621ZM310.167 103.268C309.692 104.956 308.246 107.273 306.03 110.016C302.165 114.798 296.36 120.364 291.286 124.171L292.412 122.933C292.401 122.923 292.391 122.91 292.383 122.895L291.995 122.181C289.456 117.546 286.627 112.975 282.055 109.248C270.222 114.127 256.653 120.796 244.291 127.77L240.239 130.06C210.4 146.963 194.701 157.082 177.914 169.522C178.547 172.376 179.346 175.161 180.302 177.859C180.452 178.282 178.492 179.867 178.133 179.671C174.784 181.915 169.539 183.545 166.554 183.63C163.644 183.712 161.963 182.534 162.829 180.186C163.553 178.221 166.282 175.419 171.194 171.663L171.754 171.238L172.886 170.388C191.369 156.55 209.668 145.32 243.444 126.267L244.857 125.474C268.023 112.543 294.849 100.893 307.136 99.818C309.661 99.5971 310.807 100.995 310.167 103.268ZM175.663 171.192L171.791 174.114C168.336 176.734 165.845 178.671 164.5 179.914L164.401 180.006C162.759 181.546 164.618 181.953 166.502 181.9C169.357 181.819 173.73 179.654 177.432 177.684C176.747 175.565 176.157 173.398 175.663 171.192ZM236.242 161.846C236.704 161.963 236.983 162.433 236.866 162.895C236.749 163.356 236.279 163.636 235.817 163.518C233.497 162.929 232.127 163.155 231.682 163.78C231.387 164.195 231.55 164.902 232.102 165.353C232.533 165.705 233.107 165.874 233.502 165.788C233.845 165.713 234.038 165.448 234.038 164.786C234.038 164.309 234.424 163.923 234.9 163.923C235.377 163.923 235.763 164.309 235.763 164.786C235.763 166.227 235.042 167.219 233.869 167.474C232.925 167.679 231.826 167.357 231.009 166.688C229.803 165.702 229.409 163.998 230.276 162.78C231.226 161.445 233.308 161.101 236.242 161.846ZM198.338 158.665C199.669 159.063 200.242 160.085 200.423 161.618L200.441 161.784L200.463 162.036C200.466 162.078 200.469 162.121 200.472 162.168L200.517 163.043L200.531 163.241C200.538 163.328 200.545 163.398 200.554 163.461L200.577 163.593L200.591 163.651L200.615 163.673C200.882 163.933 200.952 164.342 200.78 164.68L200.736 164.756C200.478 165.157 199.944 165.272 199.543 165.014C198.992 164.658 198.867 164.292 198.8 163.243L198.746 162.216C198.739 162.123 198.732 162.043 198.723 161.952C198.625 160.947 198.38 160.479 197.843 160.318C196.336 159.866 195.471 160.327 195.197 161.334C194.953 162.232 195.306 163.175 195.925 163.438L196.081 163.496C196.486 163.668 196.7 164.123 196.563 164.551C196.419 165.005 195.933 165.255 195.479 165.111C193.836 164.587 193.056 162.635 193.532 160.882C194.064 158.925 195.915 157.939 198.338 158.665ZM260.592 145.452C262.981 148.811 262.537 153.085 258.704 155.019C258.278 155.234 257.759 155.063 257.545 154.637C257.33 154.212 257.025 152.832 257.45 152.618C260.225 151.217 261.019 149.029 259.186 146.453C257.405 143.949 254.927 143.674 253.224 146.379C251.418 149.246 251.549 150.93 252.849 151.688C253.881 152.289 255.543 152.163 256 151.671L256.044 151.617C256.321 151.229 256.859 151.138 257.247 151.414C257.636 151.691 257.726 152.23 257.45 152.618C256.491 153.965 253.754 154.213 251.98 153.178C249.709 151.854 249.492 149.067 251.763 145.459C254.196 141.597 258.163 142.037 260.592 145.452ZM224.818 140.504C225.266 140.504 225.635 140.846 225.677 141.283L225.681 141.367C225.681 141.518 225.822 141.688 226.328 142.06L226.807 142.403C227.329 142.784 227.581 143.021 227.819 143.397C228.363 144.257 228.672 145.133 228.672 146.162C228.672 148.799 224.71 152.386 220.386 153.982C215.203 155.895 210.956 154.476 209.801 149.157C209.7 148.692 209.995 148.232 210.461 148.131C210.926 148.03 211.386 148.325 211.487 148.791C212.384 152.919 215.48 153.953 219.789 152.363C223.51 150.99 226.946 147.878 226.946 146.162C226.946 145.499 226.744 144.925 226.361 144.319L226.309 144.246C226.221 144.135 226.084 144.015 225.836 143.832L225.267 143.422C224.321 142.724 223.955 142.254 223.955 141.367C223.955 140.89 224.341 140.504 224.818 140.504ZM228.868 92.6968L228.323 92.7581C198.882 96.2987 176.795 119.847 175.59 151.447L178.749 149.224C187.816 142.86 198.341 135.589 210.323 127.414L212.658 126.003C219.628 121.797 226.293 117.84 232.655 114.127C232.539 113.923 232.507 113.674 232.585 113.433C233.03 112.075 233.441 111.163 234.194 110.249C236.552 107.39 239.781 105.993 242.07 107.788C242.295 107.965 242.408 108.232 242.399 108.498L244.432 107.338C250.833 103.694 256.889 100.329 262.605 97.2378L260.372 96.6026C257.062 95.6706 252.942 94.5654 248.839 93.7145C248.877 96.4448 246.833 98.6251 243.438 100.125C240.551 101.4 236.79 102.085 234.115 101.926C229.112 101.628 226.296 97.2394 228.868 92.6968ZM280.514 130.155C282.626 135.923 280.884 141.169 275.612 141.135C268.101 141.086 260.766 134.527 261.951 128.652C262.48 126.03 264.451 123.712 267.877 122.555C273.349 120.707 278.365 124.283 280.514 130.155ZM268.43 124.188C265.598 125.144 264.053 126.962 263.643 128.991C262.702 133.654 269.088 139.364 275.623 139.407C279.367 139.431 280.654 135.555 278.894 130.746C277.032 125.657 272.868 122.689 268.43 124.188ZM204.985 103.769L205.046 103.858L205.462 104.519C205.665 104.854 205.847 105.183 206.021 105.537C207.932 109.445 207.882 114.566 204.648 121.676C203.183 124.897 199.451 129.225 196.192 131.808C192.031 135.106 188.924 135.855 185.215 135.448L184.115 135.319L183.981 135.307C183.907 135.301 183.86 135.301 183.808 135.302L183.733 135.306C183.676 135.308 183.656 135.305 183.652 135.298L183.652 135.292L183.624 135.337C183.374 135.696 182.888 135.814 182.498 135.597C182.081 135.365 181.932 134.84 182.163 134.423C182.473 133.866 182.992 133.613 183.651 133.582C183.826 133.574 184.011 133.58 184.231 133.598L184.488 133.623L185.2 133.709C188.578 134.119 191.265 133.511 195.121 130.456C198.182 128.03 201.74 123.903 203.078 120.961C206.104 114.308 206.148 109.725 204.471 106.296C204.359 106.067 204.242 105.85 204.116 105.632L203.936 105.331L203.574 104.759C203.321 104.355 203.443 103.822 203.846 103.569C204.225 103.332 204.716 103.424 204.985 103.769ZM307.283 101.553C301.768 102.035 293.121 104.76 283.153 108.813L283.445 109.071C286.219 111.559 291.816 117.461 293.568 121.671L295.313 119.736C299.618 114.947 302.742 111.351 304.685 108.947L305.078 108.454C306.934 106.098 308.134 104.13 308.503 102.817L308.556 102.617C308.786 101.669 308.52 101.445 307.283 101.553ZM224.673 104.343C226.82 105.381 227.692 107.692 226.279 109.788C226.013 110.183 225.476 110.287 225.081 110.021C224.686 109.754 224.582 109.218 224.848 108.823C225.625 107.67 225.187 106.508 223.922 105.896C222.589 105.252 221.13 105.622 220.376 107.029C219.682 108.324 219.634 110.079 220.189 111.227C220.675 112.236 221.383 112.429 222.464 111.616C222.845 111.329 223.386 111.406 223.672 111.786C223.959 112.167 223.883 112.708 223.502 112.995C221.533 114.477 219.584 113.945 218.635 111.977C217.839 110.328 217.902 107.992 218.855 106.214C220.071 103.945 222.549 103.316 224.673 104.343ZM235.524 111.333C235.122 111.821 234.835 112.336 234.568 112.996C236.792 111.705 238.977 110.443 241.125 109.211L241.063 109.175L241.003 109.131C239.685 108.098 237.363 109.102 235.524 111.333ZM231.844 92.4201L231.089 92.4731L231.039 92.5368C228.056 96.306 229.205 99.3655 233.278 99.7998C236.203 100.112 243.969 97.9415 244.88 97.1798C245.767 96.4379 246.889 94.7316 247.062 93.3495C244.426 92.8539 241.848 92.4896 239.549 92.372C237.199 92.2518 234.881 92.2547 232.602 92.3755L231.844 92.4201Z" fill="#7A5AF8"/>
<path d="M309.749 79.0561C328.022 72.341 327.603 74.3334 310.344 80.6758C289.91 88.1846 212.78 135.233 212.78 135.233C177.77 156.427 175.151 153.155 209.085 132.532L211.177 131.263C211.571 131.025 250.205 106.641 277.812 93.5961C280.918 92.1281 307.668 79.8206 309.749 79.0561Z" fill="#7A5AF8"/>
<path fill-rule="evenodd" clip-rule="evenodd" d="M385.793 33.828C385.908 33.8412 385.988 33.9451 385.975 34.0594C385.975 34.2275 385.866 34.3184 385.721 34.3775C385.59 34.4301 385.38 34.41 385.258 34.4265C383.924 34.5295 382.875 33.5474 382.413 32.2817C381.97 31.0658 382.088 29.6118 382.893 28.7151C382.985 28.6094 383.146 28.5988 383.251 28.6915C383.357 28.7841 383.958 28.9451 383.865 29.0508C383.201 29.8254 382.752 30.2954 383.378 32.1339C384.004 33.9725 385.707 33.8181 385.793 33.828Z" fill="#E7EAEE"/>
<path fill-rule="evenodd" clip-rule="evenodd" d="M173.286 46.9808C172.935 46.7399 172.456 46.829 172.215 47.1798C171.974 47.5305 172.063 48.0101 172.414 48.2509C172.8 48.5158 173.141 48.7603 173.441 48.9874C173.118 49.2449 172.795 49.5398 172.459 49.8754L171.778 50.5674C171.478 50.8695 171.481 51.3573 171.783 51.6568C172.085 51.9563 172.573 51.9541 172.872 51.652L173.69 50.8258C174.022 50.5021 174.333 50.2314 174.647 50.0063C175.343 50.6963 175.554 51.2028 175.566 51.7055L175.566 51.8346L175.57 51.9134C175.609 52.3018 175.937 52.605 176.336 52.605C176.762 52.605 177.106 52.2601 177.106 51.8346L177.106 51.6832C177.092 50.8986 176.815 50.1524 176.07 49.2998C176.563 49.1528 177.118 49.0706 177.792 49.0354C178.217 49.0132 178.543 48.6508 178.521 48.2259C178.499 47.8011 178.136 47.4746 177.711 47.4968C176.542 47.5579 175.634 47.7527 174.825 48.123C174.487 47.8467 174.104 47.5567 173.672 47.2498L173.286 46.9808Z" fill="#7A5AF8"/>
<path fill-rule="evenodd" clip-rule="evenodd" d="M288.717 215.785L289.252 215.788C292.238 215.815 294.572 216.085 298.968 216.79C299.472 216.871 299.815 217.345 299.734 217.85C299.653 218.354 299.179 218.697 298.675 218.616L297.234 218.389C293.597 217.831 291.501 217.634 288.717 217.634C279.056 217.634 272.889 223.681 273.933 232.957C273.99 233.464 273.625 233.922 273.118 233.979C272.61 234.036 272.153 233.671 272.096 233.164C270.922 222.732 278.006 215.785 288.717 215.785ZM296.198 219.502L296.108 219.422C296.021 219.348 295.887 219.358 295.813 219.446C295.737 219.533 295.749 219.665 295.836 219.74L295.929 219.819C296.016 219.894 296.147 219.884 296.223 219.796C296.297 219.708 296.288 219.576 296.198 219.502ZM279.448 221.446C279.116 221.18 278.632 221.232 278.365 221.564C277.289 222.903 276.505 224.208 276.015 225.482C275.54 226.72 275.377 228.802 275.501 231.778L275.531 232.406C275.553 232.831 275.915 233.158 276.34 233.135C276.765 233.113 277.091 232.75 277.069 232.325C276.906 229.216 277.045 227.098 277.454 226.034C277.882 224.92 278.585 223.75 279.566 222.529C279.833 222.198 279.78 221.713 279.448 221.446ZM287.855 218.896C288.233 218.7 288.698 218.848 288.894 219.226C289.089 219.603 288.942 220.068 288.564 220.264C286.999 221.075 285.804 222.433 284.971 224.371C284.078 226.45 283.346 228.305 282.777 229.935C282.637 230.337 282.198 230.549 281.796 230.409C281.395 230.269 281.183 229.829 281.323 229.428C281.904 227.761 282.649 225.872 283.556 223.762C284.524 221.51 285.96 219.878 287.855 218.896ZM292.333 218.868C292.053 218.548 291.566 218.516 291.246 218.796C289.96 219.923 288.972 220.947 288.281 221.876C287.594 222.799 286.791 224.179 285.86 226.025C285.669 226.405 285.821 226.868 286.201 227.059C286.581 227.251 287.044 227.098 287.236 226.718C288.13 224.945 288.893 223.634 289.517 222.796C290.136 221.965 291.051 221.015 292.261 219.955C292.581 219.674 292.614 219.188 292.333 218.868ZM289.52 227.566C289.2 227.846 288.713 227.814 288.433 227.494C288.152 227.174 288.185 226.687 288.505 226.407C289.715 225.347 290.63 224.397 291.249 223.566C291.873 222.727 292.636 221.417 293.53 219.644C293.722 219.264 294.185 219.111 294.565 219.302C294.945 219.494 295.097 219.957 294.906 220.337C293.975 222.183 293.172 223.563 292.485 224.485C291.794 225.415 290.806 226.439 289.52 227.566ZM283.688 219.522C283.338 219.28 282.858 219.368 282.617 219.718C280.894 222.212 279.795 224.076 279.308 225.342C278.82 226.612 278.483 228.324 278.287 230.489C278.249 230.912 278.562 231.287 278.985 231.325C279.409 231.364 279.784 231.051 279.822 230.627C280.006 228.593 280.317 227.012 280.747 225.894C281.147 224.852 282.08 223.245 283.538 221.099L283.884 220.594C284.126 220.244 284.038 219.764 283.688 219.522Z" fill="#543EE8"/>
<path fill-rule="evenodd" clip-rule="evenodd" d="M269.063 214.998L269.594 216.178L270.804 216.525C270.869 216.544 270.907 216.612 270.888 216.678C270.883 216.698 270.872 216.716 270.857 216.731L269.937 217.646L269.989 218.963C269.992 219.031 269.939 219.089 269.871 219.091C269.848 219.092 269.825 219.087 269.805 219.075L268.764 218.482C268.731 218.464 268.692 218.461 268.657 218.475L267.544 218.917C267.481 218.942 267.409 218.911 267.384 218.848C267.376 218.827 267.373 218.803 267.377 218.781L267.612 217.483L266.829 216.449C266.788 216.395 266.798 216.318 266.853 216.277C266.869 216.264 266.889 216.256 266.91 216.253L268.156 216.077L268.846 214.983C268.883 214.925 268.959 214.908 269.016 214.944C269.037 214.957 269.053 214.976 269.063 214.998Z" fill="#7A5AF8"/>
<path fill-rule="evenodd" clip-rule="evenodd" d="M311.933 49.8313C312.216 50.0827 312.57 50.536 312.882 51.0268L313.284 50.8482L313.76 50.6445C313.855 50.6008 313.917 50.5666 313.936 50.5389C313.991 50.4369 314.117 50.3981 314.22 50.4522C314.32 50.5062 314.361 50.6327 314.306 50.7345C314.269 50.8313 314.002 51.1348 313.506 51.4317C313.416 51.4855 313.317 51.5355 313.21 51.5843C313.393 51.9264 313.537 52.2569 313.604 52.5219C313.706 52.9127 313.625 53.1896 313.49 53.2869C313.359 53.3831 313.029 53.4011 312.527 52.9843C312.435 52.9139 312.42 52.7825 312.49 52.6912C312.56 52.6001 312.691 52.5833 312.784 52.6536C312.879 52.7241 312.976 52.764 313.054 52.7928L313.016 52.6433C313.001 52.5898 312.982 52.5341 312.957 52.4797C312.867 52.2829 312.752 52.0581 312.624 51.8274C312.231 51.9757 311.785 52.1102 311.302 52.1749C311.067 52.2065 310.827 52.2127 310.578 52.2107C310.435 52.2201 310.311 52.1114 310.301 51.9679C310.292 51.8247 310.401 51.7007 310.544 51.6913C311.124 51.6353 311.661 51.4887 312.135 51.3237L312.29 51.2678C312.034 50.8672 311.759 50.5033 311.524 50.2979C311.396 50.185 311.383 49.9888 311.495 49.8601C311.61 49.731 311.805 49.7181 311.933 49.8313Z" fill="#7A5AF8"/>
<path fill-rule="evenodd" clip-rule="evenodd" d="M240.165 131.702C239.543 131.713 238.571 131.822 237.807 132.096C237.154 132.331 238.371 139.562 240.853 140.246C243.353 141.112 245.777 140.224 244.816 136.34C244.797 136.259 244.692 136.036 244.571 135.78C244.394 135.405 244.184 134.961 244.164 134.79C244.094 134.183 243.841 133.664 243.348 133.322C242.714 132.338 241.682 131.676 240.165 131.702ZM240.971 138.498C239.662 137.608 239.046 133.702 240.334 133.501C241.267 134.15 242.172 135.068 242.714 136.781C242.586 137.706 242.074 138.221 241.626 138.672C241.578 138.72 241.531 138.767 241.485 138.815C241.321 138.726 241.149 138.618 240.971 138.498Z" fill="white"/>
<path fill-rule="evenodd" clip-rule="evenodd" d="M141.756 161.012C141.652 160.386 141.723 159.686 142.037 158.939C142.18 158.601 142.555 158.325 143.024 158.14C143.572 157.924 144.242 157.816 144.665 157.788C145.695 157.722 146.318 158.153 146.635 158.823C146.93 159.046 147.042 159.402 147.02 159.825C147.01 160.026 147.275 160.752 147.284 160.891C147.491 163.583 145.749 164.283 144.155 163.755C143.55 164.063 142.966 164.114 142.526 163.787C142.132 163.496 141.83 162.881 141.76 161.796C141.742 161.516 141.74 161.254 141.756 161.012ZM144.583 159.233C143.669 159.413 143.63 162.052 144.429 162.614C144.538 162.69 144.644 162.758 144.747 162.813C145.133 162.465 145.42 162.184 145.584 161.608C145.747 161.032 145.15 159.644 144.583 159.233Z" fill="#FFB61D"/>
<path fill-rule="evenodd" clip-rule="evenodd" d="M215.211 234.12C214.86 233.879 214.381 233.968 214.14 234.319C213.899 234.669 213.988 235.149 214.339 235.39C214.725 235.655 215.065 235.899 215.366 236.126C215.043 236.384 214.72 236.679 214.384 237.014L213.703 237.706C213.403 238.008 213.405 238.496 213.708 238.796C214.01 239.095 214.497 239.093 214.797 238.791L215.614 237.965C215.947 237.641 216.258 237.37 216.571 237.145C217.267 237.835 217.479 238.341 217.491 238.844L217.491 238.974L217.495 239.052C217.534 239.441 217.862 239.744 218.261 239.744C218.686 239.744 219.031 239.399 219.031 238.974L219.031 238.822C219.017 238.038 218.74 237.291 217.995 236.439C218.488 236.292 219.043 236.21 219.716 236.174C220.141 236.152 220.468 235.79 220.446 235.365C220.423 234.94 220.061 234.614 219.636 234.636C218.467 234.697 217.559 234.892 216.75 235.262C216.412 234.986 216.029 234.696 215.596 234.389L215.211 234.12Z" fill="#7A5AF8"/>
<path fill-rule="evenodd" clip-rule="evenodd" d="M215.211 234.12C214.86 233.879 214.381 233.968 214.14 234.319C213.899 234.669 213.988 235.149 214.339 235.39C214.725 235.655 215.065 235.899 215.366 236.126C215.043 236.384 214.72 236.679 214.384 237.014L213.703 237.706C213.403 238.008 213.405 238.496 213.708 238.796C214.01 239.095 214.497 239.093 214.797 238.791L215.614 237.965C215.947 237.641 216.258 237.37 216.571 237.145C217.267 237.835 217.479 238.341 217.491 238.844L217.491 238.974L217.495 239.052C217.534 239.441 217.862 239.744 218.261 239.744C218.686 239.744 219.031 239.399 219.031 238.974L219.031 238.822C219.017 238.038 218.74 237.291 217.995 236.439C218.488 236.292 219.043 236.21 219.716 236.174C220.141 236.152 220.468 235.79 220.446 235.365C220.423 234.94 220.061 234.614 219.636 234.636C218.467 234.697 217.559 234.892 216.75 235.262C216.412 234.986 216.029 234.696 215.596 234.389L215.211 234.12Z" fill="#7A5AF8"/>
<path fill-rule="evenodd" clip-rule="evenodd" d="M247.292 224.568L247.823 225.747L249.033 226.095C249.099 226.114 249.137 226.182 249.118 226.247C249.112 226.267 249.101 226.286 249.086 226.301L248.167 227.216L248.218 228.533C248.221 228.601 248.168 228.658 248.1 228.661C248.077 228.662 248.054 228.656 248.034 228.645L246.993 228.052C246.961 228.034 246.922 228.031 246.887 228.045L245.774 228.487C245.71 228.512 245.639 228.481 245.614 228.418C245.605 228.396 245.603 228.373 245.607 228.35L245.841 227.053L245.058 226.019C245.017 225.965 245.028 225.887 245.082 225.846C245.099 225.834 245.118 225.825 245.139 225.822L246.386 225.647L247.076 224.553C247.112 224.495 247.188 224.478 247.246 224.514C247.266 224.527 247.283 224.546 247.292 224.568Z" fill="#7A5AF8"/>
<path fill-rule="evenodd" clip-rule="evenodd" d="M180.507 216.455L181.41 217.382L182.665 217.295C182.733 217.29 182.792 217.341 182.797 217.409C182.798 217.43 182.795 217.451 182.786 217.47L182.235 218.645L182.734 219.865C182.759 219.928 182.729 220 182.666 220.026C182.645 220.034 182.622 220.037 182.599 220.033L181.418 219.832C181.381 219.826 181.343 219.837 181.315 219.861L180.421 220.658C180.37 220.703 180.292 220.698 180.247 220.647C180.231 220.63 180.221 220.609 180.217 220.586L179.994 219.287L178.904 218.583C178.847 218.546 178.83 218.47 178.867 218.413C178.879 218.395 178.895 218.381 178.913 218.371L180.024 217.78L180.298 216.515C180.313 216.449 180.379 216.407 180.445 216.421C180.469 216.426 180.49 216.438 180.507 216.455Z" fill="#7A5AF8"/>
<path fill-rule="evenodd" clip-rule="evenodd" d="M166.417 131.973L166.948 133.153L168.158 133.5C168.224 133.519 168.262 133.587 168.243 133.653C168.237 133.673 168.226 133.691 168.211 133.706L167.292 134.622L167.343 135.939C167.346 136.007 167.293 136.064 167.225 136.067C167.202 136.068 167.179 136.062 167.159 136.051L166.118 135.458C166.086 135.439 166.047 135.437 166.012 135.45L164.899 135.893C164.835 135.918 164.764 135.887 164.739 135.824C164.73 135.802 164.728 135.779 164.732 135.756L164.966 134.459L164.183 133.425C164.142 133.37 164.153 133.293 164.207 133.252C164.224 133.239 164.243 133.231 164.264 133.228L165.511 133.053L166.201 131.958C166.237 131.901 166.313 131.883 166.371 131.92C166.391 131.933 166.408 131.951 166.417 131.973Z" fill="#7A5AF8"/>
<path fill-rule="evenodd" clip-rule="evenodd" d="M166.293 133.144L166.518 133.645L167.032 133.793C167.06 133.801 167.076 133.83 167.068 133.857C167.066 133.866 167.061 133.874 167.055 133.88L166.664 134.269L166.686 134.828C166.687 134.857 166.665 134.882 166.636 134.883C166.626 134.883 166.616 134.881 166.608 134.876L166.166 134.624C166.152 134.616 166.135 134.615 166.12 134.621L165.648 134.809C165.621 134.82 165.59 134.806 165.58 134.78C165.576 134.77 165.575 134.76 165.577 134.751L165.676 134.2L165.344 133.761C165.326 133.737 165.331 133.705 165.354 133.687C165.361 133.682 165.369 133.678 165.378 133.677L165.908 133.603L166.201 133.138C166.216 133.113 166.248 133.106 166.273 133.121C166.282 133.127 166.288 133.135 166.293 133.144Z" fill="#E7EAEE"/>
<path fill-rule="evenodd" clip-rule="evenodd" d="M103.308 183.738L103.839 184.918L105.049 185.265C105.114 185.284 105.152 185.352 105.134 185.418C105.128 185.438 105.117 185.456 105.102 185.471L104.183 186.386L104.234 187.704C104.237 187.772 104.184 187.829 104.116 187.832C104.093 187.833 104.07 187.827 104.05 187.816L103.009 187.223C102.977 187.204 102.937 187.202 102.903 187.215L101.789 187.658C101.726 187.683 101.654 187.652 101.629 187.588C101.621 187.567 101.618 187.544 101.623 187.521L101.857 186.224L101.074 185.19C101.033 185.135 101.043 185.058 101.098 185.017C101.114 185.004 101.134 184.996 101.155 184.993L102.402 184.818L103.091 183.723C103.128 183.666 103.204 183.648 103.261 183.685C103.282 183.698 103.298 183.716 103.308 183.738Z" fill="#7A5AF8"/>
<path fill-rule="evenodd" clip-rule="evenodd" d="M156.645 77.7951L157.03 78.0642C157.463 78.3711 159.078 79.8937 159.416 80.17C160.224 79.7992 161.132 79.6044 162.301 79.5434C162.725 79.5212 163.088 79.8476 163.11 80.2725C163.132 80.6974 162.806 81.0598 162.381 81.082C161.708 81.1172 161.153 81.1993 160.66 81.3461C161.406 82.1994 161.683 82.9456 161.697 83.7301L161.698 83.8816C161.698 84.307 161.353 84.6519 160.927 84.6519C160.528 84.6519 160.2 84.3488 160.161 83.9603L160.157 83.8816L160.157 83.7525C160.146 83.2492 159.933 82.7428 159.237 82.0524C158.923 82.2774 158.612 82.5484 158.279 82.8723L157.462 83.6985C157.162 84.0007 156.674 84.0029 156.372 83.7033C156.07 83.4038 156.068 82.9161 156.367 82.6139L157.049 81.922C157.384 81.5861 157.708 81.2911 158.031 81.0336C157.463 79.7361 155.333 78.3449 155.574 77.9942C155.814 77.6434 156.294 77.5543 156.645 77.7951Z" fill="#7A5AF8"/>
<path fill-rule="evenodd" clip-rule="evenodd" d="M305.28 166.645L306.329 167.401L307.551 167.097C307.617 167.08 307.684 167.12 307.7 167.186C307.706 167.207 307.705 167.228 307.7 167.248L307.361 168.501L308.064 169.616C308.101 169.673 308.084 169.749 308.026 169.786C308.006 169.798 307.984 169.804 307.961 169.805L306.763 169.812C306.726 169.812 306.69 169.829 306.667 169.858L305.924 170.798C305.882 170.851 305.804 170.86 305.751 170.818C305.733 170.804 305.719 170.785 305.712 170.763L305.266 169.523L304.07 169.018C304.008 168.992 303.978 168.92 304.005 168.857C304.013 168.838 304.026 168.821 304.042 168.808L305.034 168.032L305.085 166.74C305.087 166.672 305.145 166.619 305.213 166.621C305.237 166.622 305.26 166.63 305.28 166.645Z" fill="#7A5AF8"/>
<path fill-rule="evenodd" clip-rule="evenodd" d="M317.337 118.364L317.655 119.618L318.786 120.17C318.848 120.2 318.873 120.274 318.843 120.335C318.834 120.354 318.82 120.37 318.803 120.382L317.738 121.124L317.56 122.43C317.551 122.497 317.489 122.544 317.422 122.535C317.399 122.532 317.377 122.523 317.36 122.508L316.437 121.743C316.409 121.719 316.371 121.71 316.334 121.718L315.161 121.96C315.094 121.973 315.029 121.931 315.015 121.864C315.011 121.841 315.012 121.818 315.02 121.796L315.476 120.559L314.885 119.405C314.854 119.344 314.878 119.27 314.938 119.239C314.957 119.229 314.978 119.225 314.999 119.226L316.257 119.269L317.126 118.311C317.172 118.261 317.25 118.257 317.3 118.303C317.318 118.319 317.331 118.34 317.337 118.364Z" fill="#7A5AF8"/>
<path fill-rule="evenodd" clip-rule="evenodd" d="M289.88 67.895L290.198 69.1489L291.329 69.7011C291.39 69.7309 291.416 69.8047 291.386 69.8659C291.377 69.8847 291.363 69.9009 291.346 69.9129L290.281 70.6547L290.103 71.9608C290.094 72.0282 290.032 72.0755 289.965 72.0663C289.942 72.0632 289.92 72.0537 289.903 72.039L288.98 71.2745C288.952 71.2506 288.914 71.2411 288.877 71.2487L287.704 71.4908C287.637 71.5046 287.572 71.4617 287.558 71.395C287.553 71.3725 287.555 71.3491 287.563 71.3275L288.019 70.0906L287.428 68.9361C287.397 68.8755 287.421 68.8012 287.481 68.7702C287.5 68.7606 287.521 68.7559 287.542 68.7567L288.8 68.8003L289.669 67.8424C289.715 67.792 289.793 67.7882 289.843 67.834C289.861 67.8503 289.874 67.8715 289.88 67.895Z" fill="#7A5AF8"/>
<path fill-rule="evenodd" clip-rule="evenodd" d="M370.992 80.1895L371.46 80.1477C371.989 80.1047 372.469 80.0807 372.905 80.0752C373.286 79.2719 373.856 78.5391 374.712 77.7412C375.023 77.4511 375.511 77.4682 375.801 77.7794C376.091 78.0906 376.074 78.5781 375.763 78.8682C375.27 79.3279 374.897 79.7476 374.614 80.1767C375.734 80.3507 376.426 80.7443 376.941 81.3361L377.039 81.452C377.312 81.778 377.27 82.2638 376.944 82.5373C376.638 82.7937 376.192 82.7724 375.912 82.5002L375.858 82.4424L375.775 82.3435C375.443 81.9653 374.955 81.7136 373.978 81.6325C373.882 82.0065 373.818 82.4145 373.771 82.8764L373.676 84.0348C373.641 84.4587 373.269 84.7739 372.845 84.7387C372.421 84.7035 372.105 84.3312 372.141 83.9072L372.218 82.9393C372.259 82.4661 372.317 82.0323 372.4 81.627C372.024 81.6461 371.606 81.6779 371.14 81.723C370.717 81.7639 370.341 81.4539 370.3 81.0304C370.259 80.6069 370.569 80.2304 370.992 80.1895Z" fill="#7A5AF8"/>
<path fill-rule="evenodd" clip-rule="evenodd" d="M308.784 133.352C308.645 133.704 308.34 134.192 307.985 134.653L308.291 134.97L308.645 135.347L308.723 135.423C308.758 135.453 308.785 135.472 308.804 135.477C308.919 135.493 308.998 135.599 308.983 135.714C308.966 135.827 308.861 135.908 308.747 135.891C308.643 135.889 308.267 135.742 307.818 135.378C307.737 135.312 307.656 135.235 307.574 135.152C307.315 135.441 307.053 135.689 306.827 135.843C306.495 136.072 306.207 136.091 306.07 135.998C305.934 135.907 305.805 135.604 306.024 134.989C306.059 134.878 306.177 134.82 306.287 134.854C306.397 134.889 306.457 135.006 306.423 135.117C306.389 135.231 306.385 135.335 306.384 135.418L306.512 135.331C306.557 135.299 306.603 135.263 306.646 135.22C306.8 135.068 306.972 134.884 307.145 134.684C306.871 134.366 306.592 133.992 306.366 133.561C306.256 133.351 306.168 133.128 306.085 132.893C306.027 132.762 306.087 132.608 306.218 132.55C306.35 132.492 306.503 132.552 306.561 132.683C306.812 133.21 307.134 133.664 307.451 134.052L307.556 134.179C307.845 133.801 308.093 133.419 308.206 133.128C308.268 132.969 308.448 132.89 308.607 132.951C308.768 133.014 308.847 133.193 308.784 133.352Z" fill="#E7EAEE"/>
<path d="M267.499 110.715C285.587 102.254 300.711 97.7853 310.126 96.9646C313.009 96.7133 314.317 98.303 313.587 100.889C313.045 102.809 311.394 105.443 308.863 108.563C304.451 114.002 298.634 118.657 292.841 122.986C302.109 114.432 304.472 110.854 307.331 107.33L307.78 106.769C309.899 104.09 311.269 101.851 311.691 100.357L311.751 100.13C312.013 99.0519 311.709 98.7968 310.298 98.9198C301.095 99.7219 286.03 104.2 268.008 112.649C249.957 121.112 249.441 119.162 267.499 110.715Z" fill="white"/>
<path d="M184.771 83.3505L184.903 83.6653C185.819 85.8381 186.771 87.9897 187.852 90.3365L188.272 91.247C188.135 91.3395 187.954 91.4378 187.754 91.5248C187.468 91.6497 187.178 91.7374 186.96 91.7668L186.89 91.7738L186.785 91.6478C185.968 90.6423 185.02 88.9338 184.335 87.2348C183.97 86.33 183.711 85.4999 183.593 84.8622C183.546 84.6024 183.524 84.3842 183.526 84.2186L183.531 84.1095C183.532 84.083 183.532 84.0693 183.526 84.0673L183.552 84.0498C183.697 83.9492 184.07 83.7312 184.624 83.4303L184.771 83.3505Z" fill="white"/>
<path fill-rule="evenodd" clip-rule="evenodd" d="M207.637 75.4779C208.204 74.7849 208.938 74.8882 209.868 75.4522L210.106 75.603L210.775 76.0459C210.962 76.1658 211.043 76.2072 211.152 76.2506C211.405 76.3513 211.528 76.6381 211.428 76.891C211.327 77.144 211.04 77.2674 210.787 77.1667L210.697 77.1296C210.526 77.0564 210.397 76.9803 210.051 76.7505L209.571 76.431C209.492 76.3794 209.424 76.3361 209.356 76.2953C208.8 75.958 208.548 75.9224 208.401 76.1018C208.309 76.2148 208.331 76.4557 208.515 76.9496L208.716 77.4678C209.116 78.5293 209.118 79.0039 208.406 79.409C207.793 79.7577 207.478 79.5948 206.598 78.7319L206.384 78.5202C205.82 77.9569 205.524 77.761 205.334 77.8012C205.271 77.8146 205.197 77.8594 205.107 77.9555C205.001 78.0681 204.971 78.4283 205.036 79.0673L205.135 79.9018C205.251 80.9219 205.204 81.1862 204.783 81.468C204.203 81.8561 203.432 81.4174 202.001 80.1331C201.799 79.9511 201.782 79.6394 201.964 79.4368C202.146 79.2343 202.458 79.2175 202.66 79.3994C203.272 79.9485 203.733 80.3061 204.056 80.4894L204.128 80.5288L204.189 80.5589L204.19 80.4972L204.186 80.3495C204.18 80.2285 204.165 80.0821 204.134 79.8337L204.072 79.3216C203.952 78.283 203.989 77.7055 204.387 77.2809C204.609 77.0451 204.857 76.8942 205.13 76.8365C205.763 76.7026 206.213 76.9731 206.96 77.7034L207.337 78.0744C207.744 78.4655 207.895 78.5654 207.918 78.5519C208.011 78.4993 207.997 78.336 207.747 77.6947L207.638 77.4169C207.289 76.5216 207.223 75.9854 207.637 75.4779Z" fill="#7A5AF8"/>
<path fill-rule="evenodd" clip-rule="evenodd" d="M276.87 15.6458L276.402 15.6875C275.978 15.7285 275.668 16.105 275.709 16.5285C275.734 16.7834 275.88 16.9972 276.085 17.1181L276.004 17.1762C275.656 17.4218 275.574 17.9025 275.819 18.2499C276.065 18.5974 276.545 18.6799 276.893 18.4344L277.688 17.8713C277.665 18.0538 277.645 18.2422 277.628 18.4374L277.55 19.4053C277.515 19.8293 277.83 20.2016 278.254 20.2368C278.678 20.272 279.051 19.9568 279.086 19.5328L279.181 18.3745C279.206 18.1279 279.236 17.8966 279.273 17.6777C279.541 18.1886 279.595 18.5827 279.538 18.9555L279.515 19.0827L279.506 19.1609C279.477 19.5503 279.748 19.9058 280.14 19.9751C280.559 20.0489 280.959 19.7692 281.033 19.3502L281.059 19.201C281.141 18.6808 281.103 18.1571 280.893 17.5757C281.004 17.6555 281.1 17.7443 281.185 17.8416L281.268 17.9405L281.322 17.9982C281.602 18.2705 282.048 18.2918 282.354 18.0354C282.679 17.7619 282.722 17.276 282.449 16.9501L282.351 16.8342C282.316 16.794 282.28 16.7548 282.244 16.7165C282.645 16.7389 283.001 16.4462 283.05 16.0413C283.102 15.619 282.802 15.2346 282.38 15.1827C281.655 15.0936 281.022 15.0734 280.439 15.1253C280.648 14.8792 280.89 14.6293 281.172 14.3663C281.484 14.0762 281.501 13.5887 281.211 13.2775C280.921 12.9663 280.433 12.9492 280.122 13.2393C279.599 13.7263 279.183 14.1891 278.852 14.6585C278.723 14.522 278.588 14.3821 278.446 14.2386L278.113 13.9067C277.81 13.6086 277.322 13.6131 277.024 13.9167C276.726 14.2202 276.73 14.708 277.034 15.006C277.245 15.2135 277.44 15.4098 277.62 15.5958C277.382 15.6079 277.132 15.6245 276.87 15.6458Z" fill="#543EE8"/>
<path fill-rule="evenodd" clip-rule="evenodd" d="M231.472 0.503637C231.33 0.357441 231.099 0.361521 230.956 0.512751C230.814 0.66398 230.814 0.905092 230.957 1.05129C231.093 1.19037 231.214 1.31926 231.322 1.43918C231.094 1.53604 230.864 1.6615 230.619 1.81642L230.246 2.05538C230.082 2.15957 230.047 2.36801 230.166 2.52095C230.286 2.67389 230.515 2.71341 230.679 2.60922L231.125 2.32421C231.359 2.1813 231.569 2.07317 231.781 1.99729C232.101 2.44316 232.168 2.72913 232.127 2.99427L232.116 3.05722L232.111 3.09594C232.096 3.28857 232.223 3.46328 232.408 3.49602C232.607 3.53094 232.797 3.3911 232.833 3.18368L232.846 3.10982C232.907 2.72523 232.842 2.33778 232.567 1.85933C232.754 1.85643 232.958 1.87031 233.189 1.89987C233.391 1.92562 233.571 1.79794 233.593 1.61468C233.614 1.43143 233.469 1.262 233.267 1.23625C232.826 1.17981 232.456 1.17335 232.117 1.21909C231.977 1.04732 231.815 0.863919 231.629 0.666446L231.472 0.503637Z" fill="#E7EAEE"/>
<path fill-rule="evenodd" clip-rule="evenodd" d="M132.499 128.986L133.029 130.166L134.239 130.513C134.305 130.532 134.343 130.6 134.324 130.666C134.318 130.686 134.307 130.704 134.292 130.719L133.373 131.634L133.425 132.952C133.427 133.02 133.374 133.077 133.306 133.08C133.283 133.081 133.26 133.075 133.24 133.064L132.2 132.471C132.167 132.452 132.128 132.45 132.093 132.463L130.98 132.906C130.917 132.931 130.845 132.9 130.82 132.836C130.811 132.815 130.809 132.792 130.813 132.769L131.047 131.472L130.264 130.438C130.223 130.383 130.234 130.306 130.288 130.265C130.305 130.252 130.325 130.244 130.345 130.241L131.592 130.066L132.282 128.971C132.318 128.914 132.394 128.896 132.452 128.933C132.472 128.946 132.489 128.964 132.499 128.986Z" fill="#7A5AF8"/>
<path fill-rule="evenodd" clip-rule="evenodd" d="M139.576 63.5218L140.107 64.7015L141.317 65.0488C141.382 65.0676 141.42 65.1359 141.401 65.2013C141.395 65.2215 141.384 65.2398 141.37 65.2547L140.45 66.1699L140.502 67.4871C140.504 67.5552 140.451 67.6124 140.383 67.6151C140.36 67.616 140.338 67.6104 140.318 67.5991L139.277 67.0063C139.244 66.9877 139.205 66.985 139.17 66.9988L138.057 67.441C137.994 67.4661 137.922 67.4352 137.897 67.3719C137.888 67.3505 137.886 67.3272 137.89 67.3045L138.124 66.0073L137.341 64.973C137.3 64.9187 137.311 64.8414 137.365 64.8003C137.382 64.7876 137.402 64.7795 137.422 64.7765L138.669 64.601L139.359 63.5067C139.395 63.4491 139.471 63.4319 139.529 63.4682C139.55 63.4811 139.566 63.4998 139.576 63.5218Z" fill="#7A5AF8"/>
<path d="M155.608 167.77C156.003 167.483 156.557 167.571 156.844 167.967C157.131 168.362 144.613 178.558 139.757 183.23L139.193 183.778C136.419 186.491 134.374 188.842 133.222 190.699C132 192.668 131.922 193.737 132.71 194.174C135.702 195.832 140.004 196.64 146.165 195.619L146.798 195.511C149.143 195.1 166.784 191.253 166.504 191.355L166.396 191.388C165.84 191.536 158.657 194.02 156.178 194.65L155.878 194.726C152.088 195.68 149.122 196.333 146.454 196.775C139.935 197.855 135.277 197.619 131.853 195.722C129.877 194.627 130.034 192.48 131.718 189.766C133.042 187.632 135.372 184.994 138.53 181.955C143.451 177.22 150.373 171.572 155.608 167.77Z" fill="white"/>
</svg>
