<svg width="179" height="30" viewBox="0 0 179 30" fill="none" xmlns="http://www.w3.org/2000/svg">
<path d="M42.7087 27.1343L50.4352 7.94113H53.4657L61.1649 27.1343H57.2061L51.2542 11.3812H52.6193L46.5856 27.1343H42.7087ZM46.804 23.5578V20.4454H57.1242V23.5578H46.804Z" fill="white"/>
<path d="M63.4318 27.1343V7.94113H67.1448V27.1343H63.4318Z" fill="white"/>
<path d="M158.175 20.2818L155.608 22.8208V27.1345H153.561V8.02322H155.608V20.2545L162.188 13.4836H165.055L159.567 18.8621L165.464 27.1345H162.952L158.175 20.2818Z" fill="white" fill-opacity="0.7"/>
<path d="M78.1462 27.3529C76.3625 27.3529 74.9155 27.1163 73.8052 26.6431C72.695 26.1517 71.8577 25.4782 71.2935 24.6228C70.7474 23.7673 70.4289 22.8026 70.3379 21.7288H72.4674C72.522 22.6024 72.8133 23.3123 73.3411 23.8583C73.8689 24.3861 74.5606 24.7775 75.4161 25.0323C76.2897 25.2871 77.2453 25.4145 78.2828 25.4145C79.8117 25.4145 81.0221 25.1506 81.9139 24.6228C82.8058 24.0767 83.2517 23.2759 83.2517 22.2202C83.2517 21.5831 83.0242 21.0735 82.5692 20.6913C82.1323 20.2909 81.5408 19.9632 80.7945 19.7084C80.0665 19.4536 79.2656 19.2261 78.392 19.0259C77.5183 18.8075 76.6355 18.5799 75.7437 18.3433C74.87 18.1067 74.0601 17.8064 73.3138 17.4424C72.5858 17.0783 71.9942 16.6142 71.5392 16.05C71.1023 15.4675 70.8839 14.7304 70.8839 13.8385C70.8839 12.3642 71.4482 11.1629 72.5767 10.2347C73.7233 9.30641 75.4252 8.84228 77.6821 8.84228C79.2838 8.84228 80.6034 9.088 81.6409 9.57943C82.6784 10.0527 83.4519 10.6806 83.9616 11.4633C84.4894 12.2459 84.7806 13.0923 84.8352 14.0023H82.733C82.6238 13.0923 82.1687 12.3278 81.3679 11.709C80.567 11.0719 79.3384 10.7534 77.6821 10.7534C76.6628 10.7534 75.8347 10.8535 75.1976 11.0537C74.5606 11.2539 74.0692 11.5179 73.7233 11.8455C73.3957 12.1549 73.1682 12.4825 73.0408 12.8283C72.9316 13.1742 72.877 13.5018 72.877 13.8112C72.877 14.4119 73.0954 14.9033 73.5322 15.2855C73.9873 15.6495 74.5788 15.959 75.3068 16.2138C76.0531 16.4504 76.8722 16.6688 77.764 16.869C78.6559 17.0692 79.5386 17.2968 80.4123 17.5516C81.3042 17.7882 82.1141 18.0976 82.8422 18.4798C83.5884 18.8439 84.18 19.3171 84.6168 19.8995C85.0718 20.482 85.2994 21.2282 85.2994 22.1383C85.2994 23.8128 84.6623 25.1051 83.3882 26.0151C82.1141 26.907 80.3668 27.3529 78.1462 27.3529Z" fill="white" fill-opacity="0.7"/>
<path fill-rule="evenodd" clip-rule="evenodd" d="M98.3945 26.4247C99.3955 27.0435 100.56 27.3529 101.889 27.3529C103.018 27.3529 103.982 27.1345 104.783 26.6977C105.602 26.2609 106.267 25.6784 106.776 24.9504V27.1345H108.824V13.4836H106.776V15.695C106.267 14.9488 105.602 14.3573 104.783 13.9204C103.982 13.4836 103.018 13.2652 101.889 13.2652C100.56 13.2652 99.3955 13.5837 98.3945 14.2207C97.4116 14.8396 96.6472 15.6859 96.1011 16.7598C95.5551 17.8155 95.2821 18.9986 95.2821 20.3091C95.2821 21.6013 95.5551 22.7844 96.1011 23.8583C96.6472 24.9322 97.4116 25.7876 98.3945 26.4247ZM104.729 24.7866C104.037 25.2598 103.181 25.4964 102.162 25.4964C101.161 25.4964 100.297 25.2598 99.5685 24.7866C98.8404 24.3133 98.2853 23.6854 97.903 22.9027C97.5208 22.1019 97.3297 21.2373 97.3297 20.3091C97.3297 19.3626 97.5208 18.498 97.903 17.7154C98.2853 16.9327 98.8404 16.3048 99.5685 15.8316C100.297 15.3583 101.161 15.1217 102.162 15.1217C103.181 15.1217 104.037 15.3583 104.729 15.8316C105.438 16.3048 105.975 16.9327 106.339 17.7154C106.703 18.498 106.885 19.3626 106.885 20.3091C106.885 21.2373 106.703 22.1019 106.339 22.9027C105.975 23.6854 105.438 24.3133 104.729 24.7866Z" fill="white" fill-opacity="0.7"/>
<path d="M114.714 18.316C114.331 19.1897 114.14 20.127 114.14 21.1281V27.1345H112.093V13.4836H114.14V16.8417C114.213 16.6051 114.35 16.2957 114.55 15.9135C114.768 15.513 115.078 15.1126 115.478 14.7122C115.878 14.3118 116.379 13.975 116.98 13.702C117.598 13.4108 118.327 13.2652 119.164 13.2652H119.3V15.3128H119.055C118.035 15.3128 117.153 15.5949 116.406 16.1592C115.678 16.7052 115.114 17.4242 114.714 18.316Z" fill="white" fill-opacity="0.7"/>
<path fill-rule="evenodd" clip-rule="evenodd" d="M135.938 27.3529C134.555 27.3529 133.344 27.0435 132.307 26.4247C131.269 25.7876 130.459 24.9322 129.877 23.8583C129.313 22.7844 129.03 21.6013 129.03 20.3091C129.03 18.9986 129.303 17.8155 129.85 16.7598C130.396 15.6859 131.178 14.8396 132.197 14.2207C133.217 13.5837 134.418 13.2652 135.801 13.2652C137.203 13.2652 138.404 13.5837 139.405 14.2207C140.424 14.8396 141.207 15.6859 141.753 16.7598C142.299 17.8155 142.572 18.9986 142.572 20.3091V21.1281H131.133C131.242 21.929 131.497 22.6661 131.897 23.3396C132.316 23.9948 132.871 24.5226 133.563 24.9231C134.254 25.3053 135.055 25.4964 135.965 25.4964C136.93 25.4964 137.74 25.2871 138.395 24.8685C139.05 24.4316 139.56 23.8765 139.924 23.2031H142.163C141.689 24.4225 140.934 25.4236 139.897 26.2063C138.877 26.9707 137.558 27.3529 135.938 27.3529ZM132.634 16.2957C131.852 17.0783 131.36 18.0521 131.16 19.217H140.443C140.261 18.0521 139.769 17.0783 138.968 16.2957C138.168 15.513 137.112 15.1217 135.801 15.1217C134.491 15.1217 133.435 15.513 132.634 16.2957Z" fill="white" fill-opacity="0.7"/>
<path d="M147.258 15.9135C147.058 16.2957 146.922 16.6051 146.849 16.8417V13.4836H144.801V27.1345H146.849V21.1281C146.849 20.127 147.04 19.1897 147.422 18.316C147.823 17.4242 148.387 16.7052 149.115 16.1592C149.861 15.5949 150.744 15.3128 151.763 15.3128H152.009V13.2652H151.872C151.035 13.2652 150.307 13.4108 149.688 13.702C149.088 13.975 148.587 14.3118 148.187 14.7122C147.786 15.1126 147.477 15.513 147.258 15.9135Z" fill="white" fill-opacity="0.7"/>
<path d="M168.015 9.07093C167.307 9.07093 166.733 9.64523 166.733 10.3536C166.733 11.0619 167.307 11.6363 168.015 11.6363C168.724 11.6363 169.298 11.0619 169.298 10.3536C169.298 9.64523 168.724 9.07093 168.015 9.07093Z" fill="white" fill-opacity="0.7"/>
<path d="M89.2372 27.1345V15.2855H86.4524V13.4836H89.2372V8.59656H91.2849V13.4836H94.4246V15.2855H91.2849V27.1345H89.2372Z" fill="white" fill-opacity="0.7"/>
<path d="M122.986 15.2855V27.1345H125.033V15.2855H128.173V13.4836H125.033V8.59656H122.986V13.4836H120.201V15.2855H122.986Z" fill="white" fill-opacity="0.7"/>
<path d="M169.039 13.4836H166.992V27.1345H169.039V13.4836Z" fill="white" fill-opacity="0.7"/>
<path d="M173.792 27.1345V15.2855H171.007V13.4836H173.792V8.59656H175.84V13.4836H178.979V15.2855H175.84V27.1345H173.792Z" fill="white" fill-opacity="0.7"/>
<path fill-rule="evenodd" clip-rule="evenodd" d="M14.9543 5.54766H4.54331C3.42406 5.54766 2.40093 6.18023 1.90074 7.18149L0 10.9863V28.6415C0 29.3918 0.608213 30 1.35847 30H25.8109C26.5612 30 27.1694 29.3918 27.1694 28.6415V17.4676C25.3079 18.2961 22.8865 17.66 21.8852 15.5602L21.3842 14.5094C20.8233 13.3329 19.7872 12.3459 18.4297 11.7941L16.886 11.1666C16.748 11.1105 16.6157 11.0486 16.4892 10.9815H3.03865L4.1237 8.80924C4.29043 8.47546 4.63148 8.26458 5.00458 8.26458H14.4857C14.3147 7.34426 14.4708 6.37065 14.9543 5.54766ZM17.6601 16.4154H9.50928V19.1323H17.6601V16.4154Z" fill="#7A5AF8"/>
<path d="M26.4487 14.2887L26.9498 13.2381C27.8428 11.3649 29.4509 9.87356 31.458 9.05765L33.0015 8.43018C33.8362 8.09089 33.8362 6.98081 33.0015 6.64152L31.5444 6.04911C29.4857 5.21221 27.8484 3.66558 26.9706 1.72873L26.4561 0.593428C26.0977 -0.197809 24.9021 -0.197809 24.5435 0.593428L24.029 1.72873C23.1514 3.66558 21.5144 5.2121 19.4557 6.04901L17.9984 6.64141C17.1639 6.9807 17.1636 8.09089 17.9981 8.43018L19.5417 9.05765C21.5488 9.87356 23.1576 11.3649 24.0507 13.2381L24.5515 14.2887C24.9183 15.0578 26.0822 15.0578 26.4487 14.2887Z" fill="#7A5AF8"/>
</svg>
