<svg width="107" height="32" viewBox="0 0 107 32" fill="none" xmlns="http://www.w3.org/2000/svg">
<g clip-path="url(#clip0_9293_1886)">
<path d="M16.2482 0.0527344C7.43883 0.0527344 0.297119 7.19426 0.297119 16.0036C0.297119 24.8133 7.43883 31.9543 16.2482 31.9543C25.0585 31.9543 32.1994 24.8133 32.1994 16.0036C32.1994 7.19483 25.0585 0.0534963 16.248 0.0534963L16.2482 0.0527344ZM23.5632 23.0585C23.2775 23.527 22.6642 23.6756 22.1956 23.388C18.4505 21.1004 13.7358 20.5823 8.1834 21.8508C7.64836 21.9727 7.11502 21.6375 6.99312 21.1023C6.87064 20.567 7.20455 20.0337 7.74093 19.9118C13.8171 18.5236 19.0291 19.1213 23.2337 21.6908C23.7023 21.9785 23.8508 22.5899 23.5632 23.0585ZM25.5156 18.7152C25.1556 19.3004 24.3899 19.4851 23.8051 19.1251C19.5175 16.4897 12.9817 15.7265 7.91026 17.2659C7.25255 17.4645 6.55788 17.0939 6.35826 16.4373C6.16017 15.7796 6.53102 15.0863 7.18759 14.8863C12.9805 13.1285 20.1823 13.98 25.1061 17.0057C25.6908 17.3657 25.8756 18.1312 25.5156 18.7152ZM25.6832 14.1925C20.5423 11.139 12.0604 10.8583 7.15198 12.348C6.36379 12.587 5.53026 12.1421 5.2914 11.3539C5.05255 10.5653 5.49712 9.73235 6.28588 9.49274C11.9204 7.78226 21.287 8.11273 27.2059 11.6264C27.9164 12.0472 28.1487 12.9628 27.7278 13.6708C27.3087 14.3798 26.3906 14.6135 25.684 14.1925H25.6832ZM43.6946 14.7777C40.9403 14.1209 40.4508 13.66 40.4508 12.6914C40.4508 11.7764 41.3118 11.1605 42.5937 11.1605C43.8356 11.1605 45.0661 11.6282 46.3575 12.5908C46.3956 12.62 46.4451 12.6316 46.4927 12.624C46.5423 12.6167 46.5842 12.5903 46.6127 12.5504L47.9575 10.6548C48.0127 10.5767 47.9975 10.4691 47.9232 10.4095C46.3861 9.17655 44.6565 8.57712 42.6337 8.57712C39.6604 8.57712 37.5823 10.3617 37.5823 12.915C37.5823 15.6531 39.3746 16.6226 42.4718 17.371C45.1061 17.9781 45.5518 18.4866 45.5518 19.3956C45.5518 20.4032 44.6527 21.0299 43.2051 21.0299C41.5975 21.0299 40.2851 20.487 38.8184 19.2185C38.7823 19.1861 38.7327 19.1727 38.687 19.1746C38.6375 19.1784 38.5937 19.2013 38.5632 19.2375L37.0546 21.0318C36.9918 21.108 36.9994 21.2185 37.0718 21.2832C38.7784 22.807 40.8775 23.6108 43.1442 23.6108C46.348 23.6108 48.4184 21.8604 48.4184 19.1499C48.4242 16.8628 47.0546 15.5962 43.7003 14.7802L43.6946 14.7777ZM55.668 12.0615C54.2794 12.0615 53.1404 12.6085 52.1994 13.7295V12.4678C52.1994 12.3682 52.1194 12.287 52.0204 12.287H49.5537C49.4546 12.287 49.3746 12.3682 49.3746 12.4678V26.487C49.3746 26.5861 49.4546 26.668 49.5537 26.668H52.0204C52.1194 26.668 52.1994 26.5861 52.1994 26.487V22.0623C53.1404 23.1156 54.2794 23.6318 55.668 23.6318C58.2489 23.6318 60.8623 21.6451 60.8623 17.8472C60.8661 14.0485 58.2527 12.0613 55.6699 12.0613L55.668 12.0615ZM57.9937 17.8472C57.9937 19.7804 56.8032 21.1308 55.0965 21.1308C53.4108 21.1308 52.1385 19.7194 52.1385 17.8472C52.1385 15.9748 53.4108 14.5638 55.0965 14.5638C56.7746 14.5636 57.9937 15.9444 57.9937 17.8472ZM67.5575 12.0615C64.2337 12.0615 61.6299 14.6207 61.6299 17.8885C61.6299 21.1213 64.2165 23.6527 67.5175 23.6527C70.8527 23.6527 73.4642 21.1023 73.4642 17.8472C73.4642 14.6032 70.8699 12.0619 67.5575 12.0619V12.0615ZM67.5575 21.1499C65.7899 21.1499 64.4565 19.7289 64.4565 17.8463C64.4565 15.955 65.7442 14.5826 67.5175 14.5826C69.2965 14.5826 70.6375 16.003 70.6375 17.8876C70.6375 19.7785 69.3423 21.1499 67.5575 21.1499ZM80.5613 12.287H77.847V9.51254C77.847 9.41312 77.767 9.33197 77.668 9.33197H75.2013C75.1023 9.33197 75.0203 9.41312 75.0203 9.51254V12.287H73.8356C73.7365 12.287 73.6565 12.3682 73.6565 12.4678V14.5872C73.6565 14.6866 73.7365 14.768 73.8356 14.768H75.0203V20.2527C75.0203 22.468 76.1232 23.5918 78.3003 23.5918C79.1842 23.5918 79.9175 23.4089 80.6089 23.0165C80.6661 22.9861 80.7003 22.9251 80.7003 22.8604V20.8413C80.7003 20.7804 80.668 20.7213 80.6146 20.6889C80.5613 20.6546 80.4946 20.6527 80.4394 20.6813C79.9651 20.9194 79.5061 21.0299 78.9918 21.0299C78.2013 21.0299 77.847 20.6699 77.847 19.8661V14.7689H80.5613C80.6603 14.7689 80.7403 14.6878 80.7403 14.5882V12.4689C80.7442 12.3693 80.6642 12.2882 80.5632 12.2882L80.5613 12.287ZM90.0165 12.2979V11.9571C90.0165 10.9546 90.4013 10.5076 91.2623 10.5076C91.7765 10.5076 92.1899 10.6097 92.6527 10.764C92.7099 10.7819 92.7689 10.7729 92.8146 10.7388C92.8623 10.7047 92.8889 10.6501 92.8889 10.5922V8.51407C92.8889 8.43464 92.8394 8.36435 92.7613 8.34093C92.2737 8.19559 91.6489 8.04645 90.7118 8.04645C88.4356 8.04645 87.2299 9.32912 87.2299 11.7544V12.2764H86.0451C85.9461 12.2764 85.8642 12.3575 85.8642 12.4569V14.5872C85.8642 14.6866 85.9461 14.768 86.0451 14.768H87.2299V23.2261C87.2299 23.327 87.3118 23.407 87.4108 23.407H89.8756C89.9765 23.407 90.0565 23.327 90.0565 23.2261V14.7685H92.3594L95.887 23.2261C95.487 24.1137 95.0927 24.2908 94.5556 24.2908C94.1213 24.2908 93.6623 24.1613 93.1956 23.9042C93.1518 23.8813 93.0984 23.8775 93.0527 23.8908C93.0051 23.908 92.9651 23.9423 92.9461 23.988L92.1099 25.8223C92.0699 25.9099 92.1042 26.0108 92.188 26.0565C93.0603 26.5289 93.847 26.7308 94.8203 26.7308C96.6413 26.7308 97.6489 25.8813 98.5346 23.5994L102.813 12.5447C102.836 12.4891 102.828 12.4263 102.794 12.3769C102.761 12.328 102.706 12.2985 102.647 12.2985H100.079C100.001 12.2985 99.9327 12.3474 99.908 12.4196L97.2775 19.9308L94.3975 12.4146C94.3708 12.3447 94.3042 12.2985 94.2299 12.2985H90.0165V12.2979ZM84.5346 12.287H82.068C81.9689 12.287 81.887 12.3682 81.887 12.4678V23.2261C81.887 23.327 81.9689 23.407 82.068 23.407H84.5346C84.6337 23.407 84.7156 23.327 84.7156 23.2261V12.4685C84.7156 12.3689 84.6356 12.2878 84.5346 12.2878V12.287ZM83.3156 7.38816C82.3384 7.38816 81.5461 8.17902 81.5461 9.15597C81.5461 10.1335 82.3384 10.9253 83.3156 10.9253C84.2927 10.9253 85.0832 10.1335 85.0832 9.15597C85.0832 8.17921 84.2908 7.38816 83.3156 7.38816ZM104.919 15.7463C103.944 15.7463 103.184 14.9625 103.184 14.0106C103.184 13.0588 103.954 12.2661 104.929 12.2661C105.904 12.2661 106.664 13.0497 106.664 14.0007C106.664 14.9525 105.895 15.7463 104.919 15.7463ZM104.929 12.4386C104.039 12.4386 103.367 13.1453 103.367 14.0106C103.367 14.8756 104.036 15.5727 104.919 15.5727C105.809 15.5727 106.481 14.8666 106.481 14.0007C106.481 13.1358 105.813 12.4386 104.929 12.4386ZM105.314 14.1792L105.805 14.8665H105.39L104.948 14.236H104.569V14.8665H104.222V13.0447H105.034C105.458 13.0447 105.737 13.2613 105.737 13.6259C105.738 13.9245 105.565 14.107 105.316 14.1792H105.314ZM105.02 13.3573H104.569V13.9335H105.02C105.245 13.9335 105.38 13.8232 105.38 13.6451C105.38 13.4577 105.245 13.3573 105.02 13.3573Z" fill="white"/>
</g>
<defs>
<clipPath id="clip0_9293_1886">
<rect width="106.476" height="32" fill="white" transform="translate(0.249023)"/>
</clipPath>
</defs>
</svg>
