<svg width="116" height="22" viewBox="0 0 116 22" fill="none" xmlns="http://www.w3.org/2000/svg">
<g clip-path="url(#clip0_9279_7129)">
<path d="M60.0518 10.6857C59.1005 10.6857 58.4143 10.9864 57.7198 11.2933V18.2307C58.385 18.2925 58.7674 18.2925 59.3991 18.2925C61.6829 18.2925 61.9972 17.2836 61.9972 15.8746V12.561C61.9972 11.5207 61.6389 10.6857 60.0518 10.6857ZM44.8843 10.3065C43.2993 10.3065 42.9379 11.1456 42.9379 12.1849V12.7684H46.8287V12.1849C46.8287 11.1456 46.4673 10.3065 44.8843 10.3065ZM15.5007 17.5277C15.5007 18.3501 15.903 18.7775 16.7903 18.7775C17.7437 18.7775 18.3062 18.4779 19.0008 18.1699V16.5251H16.9213C15.9355 16.5251 15.5007 16.7011 15.5007 17.5277ZM74.8064 10.6847C73.2193 10.6847 72.6693 11.5207 72.6693 12.561V16.3575C72.6693 17.3999 73.2193 18.238 74.8064 18.238C76.3894 18.238 76.9436 17.3999 76.9436 16.3575V12.561C76.9436 11.5207 76.3894 10.6847 74.8064 10.6847ZM7.72319 21.7852H3.05605V10.891H0.725098V7.13743H3.0571V4.88295C3.0571 1.82076 4.37291 0 8.11291 0H11.2264V3.75467H9.27996C7.82377 3.75467 7.72843 4.27848 7.72843 5.258L7.72215 7.13743H11.2484L10.8357 10.891H7.72215L7.72319 21.7852ZM23.6701 21.8135H19.7802L19.6126 20.8644C18.2598 21.5953 16.745 21.9747 15.2074 21.9675C12.3547 21.9675 10.8367 20.129 10.8367 17.5885C10.8367 14.5891 12.6082 13.5195 15.7773 13.5195H19.0029V12.871C19.0029 11.3415 18.8206 10.891 16.3807 10.891H12.3914L12.7811 7.13743H17.1413C22.4946 7.13743 23.6701 8.76962 23.6701 12.9014V21.8135ZM36.8931 11.1666C34.4731 10.7664 33.7785 10.6784 32.6146 10.6784C30.5225 10.6784 29.8908 11.1236 29.8908 12.8365V16.0778C29.8908 17.7907 30.5225 18.238 32.6146 18.238C33.7785 18.238 34.4731 18.1479 36.8931 17.7456V21.4081C34.7738 21.8659 33.393 21.9864 32.226 21.9864C27.2162 21.9864 25.2258 19.4459 25.2258 15.774V13.1445C25.2258 9.47152 27.2162 6.92581 32.226 6.92581C33.393 6.92581 34.7738 7.04629 36.8931 7.50724V11.1666ZM51.4948 15.775H42.9389V16.0778C42.9389 17.7907 43.5706 18.238 45.6627 18.238C47.5411 18.238 48.6893 18.1479 51.1041 17.7456V21.4081C48.7752 21.8659 47.561 21.9864 45.2751 21.9864C40.2654 21.9864 38.2728 19.4459 38.2728 15.774V12.7673C38.2728 9.55638 39.751 6.92581 44.8843 6.92581C50.0177 6.92581 51.4948 9.526 51.4948 12.7684V15.775ZM66.6622 15.8442C66.6622 19.3925 65.6115 21.9801 59.243 21.9801C56.9424 21.9801 55.5941 21.7852 53.0558 21.4081V1.12724L57.7187 0.377143V7.47162C58.7265 7.11019 60.0319 6.92686 61.2178 6.92686C65.8839 6.92686 66.6612 8.94352 66.6612 12.1859L66.6622 15.8442ZM81.6139 15.9217C81.6139 18.9818 80.3043 21.9508 74.8232 21.9508C69.34 21.9508 68.0053 18.9818 68.0053 15.9217V12.9664C68.0053 9.90419 69.34 6.93524 74.8232 6.93524C80.3043 6.93524 81.6139 9.90419 81.6139 12.9664V15.9207V15.9217ZM96.5561 15.9217C96.5561 18.9818 95.2444 21.9508 89.7643 21.9508C84.2811 21.9508 82.9464 18.9818 82.9464 15.9217V12.9664C82.9464 9.90419 84.2811 6.93524 89.7643 6.93524C95.2444 6.93524 96.5561 9.90419 96.5561 12.9664V15.9207V15.9217ZM111.89 21.7852H106.834L102.558 14.8992V21.7852H97.8918V1.12724L102.558 0.376095V13.6756L106.834 7.13848H111.89L107.222 14.2728L111.89 21.7852ZM89.7476 10.6847C88.1625 10.6847 87.6125 11.5207 87.6125 12.561V16.3575C87.6125 17.3999 88.1625 18.238 89.7476 18.238C91.3295 18.238 91.89 17.3999 91.89 16.3575V12.561C91.89 11.5207 91.3305 10.6847 89.7476 10.6847ZM114.552 19.2154C115.338 19.2154 115.963 19.8335 115.963 20.6056C115.963 21.3892 115.337 22 114.546 22C113.759 22 113.121 21.3892 113.121 20.6056C113.121 19.8335 113.759 19.2154 114.546 19.2154H114.552ZM114.546 19.4312C113.913 19.4312 113.395 19.9571 113.395 20.6046C113.395 21.2646 113.913 21.7842 114.552 21.7842C115.191 21.7905 115.701 21.2656 115.701 20.6109C115.701 19.9571 115.191 19.4312 114.552 19.4312H114.546ZM114.278 21.4144H114.022V19.8639C114.156 19.845 114.284 19.8272 114.477 19.8272C114.72 19.8272 114.878 19.8765 114.976 19.9446C115.071 20.0127 115.121 20.1174 115.121 20.2651C115.121 20.4694 114.982 20.592 114.809 20.6423V20.6538C114.949 20.679 115.044 20.8015 115.077 21.0299C115.115 21.2709 115.153 21.363 115.179 21.4133H114.91C114.873 21.363 114.834 21.2216 114.801 21.0173C114.764 20.8204 114.661 20.746 114.456 20.746H114.278V21.4144ZM114.278 20.5553H114.463C114.673 20.5553 114.852 20.482 114.852 20.2892C114.852 20.153 114.751 20.0179 114.464 20.0179C114.38 20.0179 114.322 20.0242 114.278 20.0305V20.5553Z" fill="white"/>
</g>
<defs>
<clipPath id="clip0_9279_7129">
<rect width="115.238" height="22" fill="white" transform="translate(0.725098)"/>
</clipPath>
</defs>
</svg>
