<svg width="71" height="26" viewBox="0 0 71 26" fill="none" xmlns="http://www.w3.org/2000/svg">
<g clip-path="url(#clip0_9279_7132)">
<path d="M11.2414 0.5C11.4094 0.577 11.5154 0.737 11.6514 0.864C11.8694 1.052 12.0314 1.3 12.2454 1.494C12.5084 1.741 12.6764 2.056 12.8954 2.337C13.2764 2.906 13.6134 3.513 13.7874 4.175C13.9674 4.627 13.9944 5.118 13.9834 5.604C13.9944 6.045 13.8714 6.481 13.6694 6.878C13.3214 7.48 12.6934 7.882 12.0374 8.098C11.2184 8.291 10.3154 8.324 9.52536 7.982C9.23936 7.827 8.91336 7.722 8.68436 7.48C8.15136 7.05 7.84236 6.349 7.94436 5.67C8.10036 4.462 8.83435 3.424 9.62035 2.53C9.69335 2.663 9.63136 2.817 9.68235 2.955C9.74936 3.248 9.85635 3.557 10.0804 3.766C10.3554 3.518 10.6464 3.27 10.8824 2.983C11.0954 2.673 11.2694 2.332 11.3424 1.968C11.3594 1.504 11.4034 1.018 11.2244 0.578L11.2414 0.5ZM0.967355 6.012C2.27936 6.023 3.59736 6.001 4.91036 6.023C4.91036 7.309 4.92036 8.594 4.90436 9.88C5.83436 9.896 6.76636 9.885 7.70236 9.885C7.71336 9.985 7.71936 10.084 7.71936 10.183C7.70836 11.243 7.72536 12.296 7.70836 13.356C6.77136 13.366 5.84036 13.356 4.90436 13.361C4.92136 15.265 4.89836 17.163 4.91536 19.066C4.94936 19.232 4.97136 19.397 4.96536 19.568C4.94936 19.723 5.04436 19.85 5.07836 19.993C5.15136 20.324 5.33636 20.623 5.54836 20.882C5.86607 21.1917 6.26465 21.4055 6.69836 21.499C7.09136 21.56 7.48336 21.593 7.88236 21.566C7.9046 21.6317 7.91575 21.7006 7.91536 21.77C7.91036 22.763 7.91036 23.756 7.91536 24.744C7.91536 24.882 7.88736 25.02 7.86536 25.152C7.29836 25.152 6.73236 25.191 6.16536 25.152C5.82936 25.08 5.47036 25.113 5.14536 24.97C4.24236 24.76 3.37936 24.319 2.73436 23.651C1.78636 22.751 1.27636 21.483 1.06836 20.225C1.01236 20.087 1.04636 19.927 1.02336 19.778C0.945355 19.475 0.978355 19.154 0.967355 18.846C0.963355 14.57 0.963355 10.288 0.967355 6.012ZM20.1234 9.587C20.3594 9.527 20.6114 9.571 20.8474 9.521C21.3404 9.461 21.8284 9.538 22.3164 9.554C22.6584 9.549 22.9894 9.648 23.3264 9.714C24.5764 10.012 25.7594 10.669 26.6174 11.629C26.7694 11.877 26.9994 12.059 27.1444 12.313C27.5094 12.881 27.7504 13.516 27.9574 14.156C28.0874 14.625 28.1544 15.11 28.2154 15.59C28.2434 16.655 28.2274 17.725 28.2324 18.79C28.2274 20.915 28.2384 23.039 28.2274 25.163C26.9144 25.146 25.6074 25.158 24.3014 25.152C24.2834 25.1408 24.2666 25.1277 24.2514 25.113C24.2454 22.14 24.2514 19.166 24.2514 16.197C24.2564 15.833 24.1894 15.48 24.1114 15.132C23.9714 14.779 23.7914 14.442 23.5444 14.156C23.3984 13.985 23.1964 13.874 23.0344 13.726C22.7814 13.56 22.4844 13.483 22.1984 13.406C22.0474 13.394 21.8954 13.406 21.7554 13.356C21.1554 13.317 20.5444 13.366 19.9834 13.593C19.5734 13.786 19.1934 14.051 18.9234 14.421C18.4804 14.939 18.3344 15.645 18.3464 16.308C18.3464 19.254 18.3514 22.206 18.3464 25.152C17.0224 25.163 15.6994 25.146 14.3764 25.163C14.3534 22.322 14.3764 19.475 14.3644 16.633C14.3704 16.269 14.3594 15.905 14.3874 15.541C14.4604 15.358 14.4094 15.16 14.4654 14.983C14.5664 14.31 14.8244 13.67 15.1104 13.058C15.3904 12.522 15.7274 12.009 16.1644 11.585C16.5064 11.242 16.8604 10.884 17.2914 10.647C18.1274 10.073 19.1144 9.725 20.1234 9.587ZM67.1174 9.554C67.6054 9.544 68.0874 9.449 68.5754 9.527C68.8384 9.56 69.1074 9.554 69.3714 9.565C69.4214 10.045 69.3824 10.531 69.3934 11.011V12.941C69.3934 13.063 69.4104 13.191 69.3604 13.306C69.2304 13.212 69.0574 13.246 68.9114 13.206C68.3174 13.157 67.7054 13.185 67.1454 13.406C66.47 13.6329 65.9065 14.1084 65.5694 14.736C65.4744 14.851 65.4744 15.016 65.3674 15.126C65.1934 15.745 65.1824 16.39 65.1934 17.025C65.1874 19.739 65.2104 22.448 65.1824 25.163C63.8754 25.147 62.5634 25.163 61.2514 25.152C61.2404 25.141 61.2234 25.119 61.2114 25.108V16.252C61.1954 15.882 61.2794 15.524 61.2734 15.16C61.3634 14.983 61.3414 14.78 61.3974 14.597C61.6774 13.201 62.4234 11.883 63.5564 10.983C63.7744 10.74 64.0884 10.625 64.3464 10.431C65.1824 9.929 66.1534 9.687 67.1174 9.554ZM8.99236 9.88C10.3154 9.902 11.6394 9.874 12.9624 9.89C12.9624 14.94 12.9574 19.982 12.9624 25.025C12.9624 25.075 12.9624 25.175 12.8844 25.158H9.00336C8.96935 24.324 8.99736 23.486 8.98536 22.653C8.99135 18.399 8.98536 14.139 8.99135 9.88H8.99236ZM50.5184 20.12C50.8544 19.993 51.1794 19.828 51.5214 19.712C52.0154 19.524 52.4974 19.298 52.9914 19.11C54.0114 18.647 55.0664 18.26 56.0974 17.825C56.3444 17.692 56.6244 17.632 56.8664 17.488C57.1404 17.383 57.4164 17.29 57.6844 17.168C57.9204 17.03 58.1894 16.975 58.4304 16.854C58.7504 16.727 59.0584 16.584 59.3844 16.468C59.7144 16.285 60.0844 16.198 60.4154 16.021C60.5054 15.96 60.6514 15.976 60.7074 15.871C60.6124 15.739 60.6624 15.574 60.6124 15.431C60.5394 15.171 60.4664 14.917 60.4044 14.663C60.1579 13.8921 59.7826 13.1685 59.2944 12.523C58.6944 11.667 57.8694 10.978 56.9554 10.47C56.3554 10.111 55.6824 9.907 55.0094 9.73C54.5944 9.681 54.1964 9.538 53.7764 9.543C53.3944 9.493 53.0024 9.471 52.6264 9.538C51.9594 9.548 51.3204 9.708 50.6864 9.891C49.5814 10.271 48.5324 10.851 47.6864 11.651C47.4334 11.883 47.2264 12.153 46.9854 12.391C46.6044 12.8583 46.277 13.3668 46.0094 13.907C45.6444 14.719 45.2974 15.568 45.2574 16.467C45.1344 16.897 45.1734 17.35 45.1674 17.792C45.1574 18.073 45.2014 18.349 45.2574 18.619C45.2414 18.906 45.3534 19.171 45.3924 19.447C45.4874 20.032 45.7514 20.572 45.9924 21.113C46.6544 22.448 47.6974 23.607 49.0034 24.363C49.8614 24.882 50.8154 25.251 51.8134 25.389C52.6295 25.5194 53.46 25.5343 54.2804 25.433C54.5604 25.455 54.8304 25.334 55.1104 25.318C56.3054 25.042 57.4774 24.545 58.3804 23.712C58.6494 23.502 58.9014 23.254 59.1144 22.989C59.4744 22.63 59.7314 22.195 59.9894 21.764C60.238 21.3046 60.4374 20.8203 60.5844 20.319C60.5054 20.286 60.4154 20.297 60.3374 20.297C59.0254 20.302 57.7184 20.291 56.4064 20.297C56.2834 20.297 56.2834 20.462 56.2044 20.528C55.9804 20.848 55.6944 21.118 55.3914 21.373C54.9534 21.682 54.4374 21.847 53.9274 21.996C53.7934 22.013 53.6644 22.007 53.5404 22.056C53.2264 22.079 52.9074 22.068 52.5874 22.062C52.2327 21.9996 51.8823 21.9147 51.5384 21.808C51.0114 21.544 50.4954 21.24 50.0984 20.81C49.9964 20.688 49.8344 20.595 49.8004 20.435C49.8904 20.395 49.9744 20.335 50.0754 20.319C50.2374 20.291 50.3614 20.164 50.5184 20.12ZM48.9034 17.328C48.8244 17.135 48.8974 16.908 48.8864 16.705C48.9764 16.423 49.0044 16.125 49.1104 15.844C49.3804 15.221 49.7104 14.608 50.1924 14.117C50.4174 13.935 50.6074 13.714 50.8654 13.577C51.0554 13.477 51.2414 13.367 51.4374 13.278C51.8024 13.174 52.1554 13.008 52.5374 13.008C52.8844 12.925 53.2434 12.969 53.5974 12.975C54.5224 13.102 55.4534 13.494 56.0524 14.216C56.1144 14.36 55.9074 14.371 55.8224 14.426C55.4584 14.625 55.0494 14.724 54.6844 14.928C54.5224 14.956 54.3814 15.055 54.2244 15.105C53.0644 15.601 51.8804 16.037 50.7314 16.555C50.1144 16.793 49.5034 17.047 48.9034 17.328ZM44.7254 3.138C43.4974 3.126 42.2694 3.138 41.0404 3.132C40.9504 3.142 40.8444 3.104 40.7714 3.17C40.7824 5.764 40.7714 8.362 40.7774 10.956C40.7714 11.049 40.7944 11.143 40.7544 11.231C40.6424 11.215 40.5864 11.111 40.5024 11.049C39.9364 10.569 39.3024 10.161 38.5954 9.924C38.1194 9.742 37.6204 9.648 37.1154 9.56C36.5434 9.549 35.9654 9.532 35.3884 9.565C35.3264 9.582 35.2704 9.598 35.2084 9.604C33.9244 9.78 32.7244 10.371 31.7384 11.182C31.1884 11.689 30.6384 12.219 30.2514 12.859C29.7974 13.494 29.5054 14.222 29.2254 14.939C29.0954 15.392 28.9674 15.839 28.9114 16.302C28.8044 17.014 28.8494 17.742 28.8614 18.459C28.8884 18.647 28.9514 18.823 28.9564 19.011C29.0564 19.618 29.2364 20.214 29.4834 20.782C29.6904 21.328 30.0274 21.825 30.3354 22.322C30.5544 22.597 30.7674 22.884 31.0314 23.127C31.4234 23.507 31.8104 23.922 32.3034 24.187C32.8874 24.622 33.5764 24.882 34.2494 25.135C34.4964 25.18 34.7264 25.318 34.9794 25.323C35.1914 25.34 35.3884 25.439 35.6014 25.428C35.7134 25.417 35.8144 25.494 35.9314 25.483C36.4764 25.5 37.0254 25.5 37.5694 25.483C37.6594 25.483 37.7494 25.444 37.8444 25.439C38.2204 25.444 38.5674 25.301 38.9324 25.251C39.4084 25.081 39.9194 24.97 40.3624 24.716C41.0184 24.418 41.6124 23.999 42.1454 23.524C42.8146 22.9442 43.3648 22.2398 43.7654 21.45C43.9404 21.102 44.1354 20.766 44.2484 20.39C44.4614 19.872 44.5564 19.32 44.6294 18.774C44.7534 18.294 44.7134 17.792 44.7254 17.295V3.138ZM40.7384 18.078C40.7044 18.664 40.4804 19.221 40.2164 19.745C39.7734 20.567 39.0274 21.196 38.1814 21.593C38.0514 21.659 37.8834 21.654 37.7944 21.775C37.6374 21.775 37.4804 21.781 37.3284 21.836C36.8464 21.847 36.3474 21.891 35.8764 21.759C35.6744 21.665 35.4504 21.626 35.2484 21.522C34.9954 21.384 34.7094 21.29 34.5024 21.08C34.1094 20.81 33.8064 20.44 33.5324 20.06C33.3124 19.69 33.0944 19.31 32.9934 18.89C32.8814 18.669 32.8934 18.42 32.8314 18.189C32.8144 17.599 32.7814 16.992 32.9214 16.418C32.9824 16.236 33.0214 16.043 33.0894 15.861C33.2514 15.568 33.3524 15.243 33.5654 14.978C33.6774 14.746 33.8744 14.575 34.0314 14.376C34.4514 13.902 35.0294 13.598 35.6124 13.361C35.8314 13.311 36.0444 13.201 36.2744 13.201C36.7394 13.085 37.2224 13.179 37.6814 13.262C38.2874 13.477 38.8874 13.775 39.3584 14.217C39.5324 14.377 39.6614 14.575 39.8354 14.735C40.5562 15.6916 40.8797 16.8896 40.7384 18.079V18.078ZM67.0834 23.221H68.5534C68.5583 23.331 68.5583 23.441 68.5534 23.551C68.3844 23.574 68.2164 23.546 68.0534 23.568C68.0313 24.065 68.0534 24.556 68.0424 25.053C67.8929 25.0427 67.743 25.0407 67.5934 25.047C67.5774 24.655 67.5834 24.258 67.5884 23.867C67.5884 23.762 67.6104 23.64 67.5154 23.568C67.3694 23.546 67.2234 23.574 67.0774 23.552C67.0724 23.442 67.0724 23.332 67.0834 23.221ZM68.8214 23.226C69.0294 23.221 69.2364 23.21 69.4444 23.237C69.4334 23.397 69.5674 23.507 69.6074 23.657C69.6634 23.844 69.7474 24.021 69.8034 24.209C69.8484 24.291 69.9264 24.363 69.8984 24.468C70.0104 24.038 70.1843 23.629 70.3584 23.226C70.5583 23.2177 70.7584 23.2177 70.9584 23.226C70.9694 23.816 70.9584 24.418 70.9584 25.009C70.8234 25.019 70.6884 25.019 70.5484 25.009C70.5544 24.595 70.5484 24.181 70.5604 23.773C70.5104 23.817 70.4594 23.855 70.4204 23.911C70.3474 24.286 70.1504 24.628 70.0554 25.003C69.946 25.0187 69.8352 25.0208 69.7254 25.009C69.6914 24.799 69.5394 24.628 69.5394 24.413C69.3884 24.231 69.3824 23.971 69.2644 23.767C69.1864 23.917 69.2484 24.093 69.2314 24.253C69.2084 24.512 69.2594 24.777 69.2084 25.036C69.0744 25.036 68.9224 25.08 68.8164 24.986C68.8334 24.402 68.8164 23.816 68.8214 23.226Z" fill="white"/>
</g>
<defs>
<clipPath id="clip0_9279_7132">
<rect width="70" height="25" fill="white" transform="translate(0.963379 0.5)"/>
</clipPath>
</defs>
</svg>
