<svg width="92" height="28" viewBox="0 0 92 28" fill="none" xmlns="http://www.w3.org/2000/svg">
<g clip-path="url(#clip0_9279_7135)">
<path d="M48.8112 7.03564C48.8112 8.04449 47.9882 8.85733 46.9675 8.85733C46.7267 8.85923 46.488 8.81357 46.2649 8.72295C46.0418 8.63234 45.8388 8.49856 45.6676 8.3293C45.4964 8.16004 45.3603 7.95863 45.2671 7.73663C45.1739 7.51462 45.1255 7.2764 45.1246 7.03564C45.1246 6.02594 45.9188 5.21394 46.9675 5.21394C48.0179 5.24194 48.8112 6.05394 48.8112 7.03564ZM41.2105 10.707V11.1559C41.2105 11.1559 40.3315 10.0342 38.4597 10.0342C35.3678 10.0342 32.9573 12.3607 32.9573 15.5833C32.9573 18.7787 35.3398 21.1324 38.4597 21.1324C40.3603 21.1324 41.2105 19.9844 41.2105 19.9844V20.4595C41.2105 20.6844 41.3802 20.8524 41.6076 20.8524H43.9044V10.3142H41.6076C41.5036 10.3161 41.4044 10.358 41.3304 10.4311C41.2565 10.5043 41.2135 10.6031 41.2105 10.707ZM41.2105 17.461C40.7854 18.0787 39.9344 18.6107 38.9137 18.6107C37.0979 18.6107 35.7081 17.4898 35.7081 15.5833C35.7081 13.6776 37.0979 12.5567 38.9137 12.5567C39.9064 12.5567 40.8143 13.1167 41.2105 13.7056V17.461ZM45.6065 10.3142H48.3293V20.8524H45.6065V10.3142ZM86.2778 10.0342C84.406 10.0342 83.5262 11.1559 83.5262 11.1559V5.24194H80.8042V20.8532H83.1011C83.2052 20.8517 83.3047 20.81 83.3787 20.7367C83.4527 20.6635 83.4955 20.5645 83.4982 20.4604V19.9844C83.4982 19.9844 84.3772 21.1332 86.2489 21.1332C89.3408 21.1332 91.7514 18.7795 91.7514 15.5841C91.7514 12.3896 89.34 10.0342 86.2778 10.0342ZM85.8238 18.5827C84.7743 18.5827 83.9521 18.0507 83.5262 17.4338V13.6776C83.9521 13.1176 84.8591 12.5287 85.8238 12.5287C87.6396 12.5287 89.0286 13.6496 89.0286 15.5553C89.0286 17.4618 87.6396 18.5827 85.8238 18.5827ZM79.3864 14.6033V20.8812H76.6628V14.9113C76.6628 13.1736 76.096 12.4727 74.5653 12.4727C73.7423 12.4727 72.8921 12.8936 72.3516 13.5104V20.8532H69.6297V10.315H71.7848C72.0114 10.315 72.1819 10.511 72.1819 10.707V11.1559C72.9761 10.343 74.0257 10.0342 75.0752 10.0342C76.2657 10.0342 77.2584 10.371 78.0534 11.0439C79.0165 11.8287 79.3864 12.8376 79.3864 14.6033ZM63.0208 10.0342C61.1491 10.0342 60.27 11.1559 60.27 11.1559V5.24194H57.5464V20.8532H59.8441C59.9482 20.8517 60.0477 20.81 60.1217 20.7367C60.1957 20.6635 60.2386 20.5645 60.2412 20.4604V19.9844C60.2412 19.9844 61.1211 21.1332 62.992 21.1332C66.0838 21.1332 68.4944 18.7795 68.4944 15.5841C68.5232 12.3887 66.1127 10.0342 63.0208 10.0342ZM62.5669 18.5818C61.5173 18.5818 60.6951 18.0498 60.27 17.433V13.6776C60.6951 13.1176 61.6021 12.5287 62.5669 12.5287C64.3826 12.5287 65.7716 13.6496 65.7716 15.5553C65.7716 17.4618 64.3826 18.5818 62.5669 18.5818ZM55.1935 10.0333C56.0149 10.0333 56.4408 10.1733 56.4408 10.1733V12.6679C56.4408 12.6679 54.172 11.911 52.7542 13.5087V20.8804H50.0305V10.3142H52.3282C52.5556 10.3142 52.7253 10.511 52.7253 10.707V11.1559C53.2361 10.567 54.3425 10.0342 55.1927 10.0342L55.1935 10.0333ZM26.9152 19.9004C26.7735 19.5635 26.6318 19.1995 26.4901 18.8907C26.2628 18.3867 26.0362 17.9098 25.8377 17.4618L25.8097 17.4338C23.8231 13.161 21.7329 8.93715 19.5411 4.76594L19.4562 4.59624C19.2235 4.16038 18.9966 3.72139 18.7757 3.27939C18.4923 2.77455 18.2089 2.24255 17.755 1.7377C16.8471 0.616849 15.5438 0 14.154 0C12.7354 0 11.4592 0.616849 10.5242 1.6817C10.0983 2.1857 9.78602 2.71855 9.50263 3.22339C9.28119 3.66539 9.05434 4.10465 8.82214 4.54109L8.73729 4.70909C6.55329 8.91333 4.42699 13.1736 2.46954 17.377L2.44069 17.433C2.24214 17.8827 2.01475 18.3578 1.78735 18.8627C1.64651 19.1707 1.50481 19.5075 1.36311 19.8715C0.994021 20.9084 0.880324 21.8892 1.02287 22.8989C1.1782 23.9286 1.60019 24.8997 2.24692 25.7158C2.89365 26.5319 3.74263 27.1646 4.70954 27.5512C5.44772 27.86 6.21305 28 7.00723 28C7.23378 28 7.51717 27.972 7.74542 27.944C8.74471 27.8187 9.70884 27.4947 10.5811 26.9912C11.7435 26.3463 12.8499 25.4215 14.098 24.0766C15.3453 25.4215 16.4806 26.3463 17.615 26.9912C18.5509 27.524 19.5156 27.8312 20.4506 27.944C20.678 27.972 20.9614 28 21.1888 28C21.983 28 22.7763 27.86 23.4857 27.5512C24.4533 27.1657 25.3031 26.5333 25.9501 25.717C26.5971 24.9007 27.0188 23.929 27.1732 22.8989C27.398 21.9181 27.2843 20.9372 26.9152 19.9004ZM14.1252 21.3564C12.5937 19.4507 11.6009 17.657 11.2607 16.1441C11.119 15.4993 11.091 14.9393 11.1758 14.4336C11.2318 13.9856 11.4024 13.5936 11.6298 13.2567C12.1686 12.5007 13.0764 12.0239 14.126 12.0239C15.1756 12.0239 16.1115 12.4719 16.6214 13.2567C16.8488 13.5927 17.0185 13.9864 17.0762 14.4336C17.1611 14.9384 17.1322 15.5273 16.9914 16.1441C16.6494 17.629 15.6567 19.4227 14.1252 21.3564ZM25.4414 22.6741C25.2429 24.1309 24.2501 25.3926 22.8603 25.9535C22.1798 26.2335 21.4425 26.3183 20.7052 26.2335C19.9967 26.1486 19.2865 25.9246 18.55 25.5046C17.5284 24.9446 16.5077 24.0758 15.3173 22.7861C17.1882 20.5164 18.3226 18.4418 18.7486 16.5921C18.9332 15.8121 18.9811 15.006 18.8903 14.2096C18.7847 13.5239 18.5225 12.8718 18.1241 12.3039C17.2442 11.0422 15.7695 10.3133 14.1252 10.3133C12.4808 10.3133 11.0053 11.0702 10.1263 12.3039C9.72796 12.8719 9.46579 13.5239 9.36008 14.2096C9.24723 14.9393 9.27523 15.7513 9.50178 16.5921C9.92772 18.4418 11.0901 20.5435 12.9339 22.8141C11.7715 24.1038 10.7211 24.9726 9.70033 25.5326C8.96214 25.9535 8.25366 26.1775 7.54517 26.2623C6.81473 26.3429 6.07561 26.2469 5.39002 25.9823C4.0002 25.4206 3.00748 24.1589 2.80893 22.7021C2.71511 21.9636 2.80247 21.2135 3.06348 20.5164C3.14832 20.2355 3.29087 19.9555 3.43257 19.6195C3.63111 19.1707 3.85766 18.6938 4.08505 18.2178L4.1139 18.1618C6.09637 13.9194 8.17656 9.72341 10.3528 5.57709L10.4377 5.40909C10.6651 4.98909 10.8924 4.54024 11.119 4.11939C11.3455 3.67139 11.6009 3.25055 11.9132 2.88655C12.5088 2.21455 13.3021 1.8497 14.182 1.8497C15.0619 1.8497 15.8552 2.21455 16.4509 2.88655C16.7631 3.25139 17.0185 3.67224 17.2451 4.12028C17.4724 4.54024 17.699 4.98909 17.9255 5.40909L18.0104 5.57709C20.1608 9.74153 22.2318 13.9465 24.2221 18.1898V18.2178C24.4495 18.6675 24.6481 19.1707 24.8755 19.6204C25.0163 19.9555 25.158 20.2355 25.2437 20.5164C25.4694 21.2444 25.5551 21.9452 25.4414 22.6741Z" fill="white"/>
</g>
<defs>
<clipPath id="clip0_9279_7135">
<rect width="90.7879" height="28" fill="white" transform="translate(0.963379)"/>
</clipPath>
</defs>
</svg>
