<svg width="86" height="36" viewBox="0 0 86 36" fill="none" xmlns="http://www.w3.org/2000/svg">
<g clip-path="url(#clip0_9279_7138)">
<path d="M35.6442 17.9788C33.1042 19.4108 30.9802 22.4018 29.7842 24.8318C29.1662 25.7508 29.4512 27.6188 31.2112 26.4488C32.5082 25.5848 35.0632 21.9168 36.7242 19.1878C36.9052 18.8888 37.1102 18.2588 37.0392 17.9598C36.7752 17.4338 35.9722 17.8228 35.6442 17.9788ZM45.9802 19.8028C44.1962 20.3008 42.9022 21.8408 42.2162 23.4358C41.8562 24.2708 41.4212 25.6498 41.9302 26.3338C42.1402 26.5918 42.5052 26.4418 42.7142 26.2898C43.4262 25.7998 43.9422 25.0398 44.3772 24.3608C45.1752 22.9428 45.8762 21.4278 46.0742 19.7818L45.9802 19.8028ZM52.9672 20.2788C52.0402 20.7568 51.5112 22.3018 51.3312 23.1588C51.1072 24.2348 50.9012 25.7008 51.3922 26.3448C51.5052 26.4528 51.6522 26.5318 51.8332 26.5268C52.5702 26.5428 53.0832 25.4088 53.3732 24.7568C53.8562 23.6728 54.2902 21.9598 54.1352 20.8648C54.0762 20.3008 53.5352 20.0508 52.9672 20.2788ZM34.7442 3.21482C36.5362 5.04282 37.0782 7.78382 36.2182 10.1368C34.1702 15.3568 28.8552 19.0768 23.2732 20.5698C20.6322 21.1648 16.8102 21.4558 14.3862 20.2208C12.2182 19.0288 11.1812 16.5128 11.6032 14.1328C12.2792 10.4928 15.0892 7.84683 18.4102 6.10183C21.1782 4.77383 24.4482 4.17883 27.7572 4.54983C28.1222 4.60783 28.4572 4.78382 28.5512 5.20482C28.5882 5.50782 28.5412 5.71282 28.4002 5.90683C28.1652 6.19182 27.8952 6.25983 27.5942 6.24283C23.8652 6.21983 20.0342 7.14283 17.3012 9.55282C15.7012 11.0668 14.4112 13.4598 15.6472 16.0028C16.4372 17.6028 19.2732 18.0928 20.9392 17.9418C30.6292 17.0488 33.6212 11.1518 34.1892 9.12882C35.3542 4.97082 31.2662 1.43282 23.4102 2.51982C13.2472 3.92683 6.92517 10.8028 5.63217 17.8478C4.27417 25.2498 11.4302 28.3898 18.8842 26.8278C21.9232 26.1928 25.1242 24.7528 28.2482 21.7908C30.8242 19.0968 34.3502 15.1768 38.3432 15.7818C38.8352 15.8938 39.4332 16.1418 39.5742 16.6848C39.8102 17.6458 39.3142 18.5048 39.0002 19.3578C35.8252 24.7538 36.1502 26.9428 36.7172 27.2218C37.8832 27.5908 38.6352 25.9338 39.2062 25.0058C39.9642 21.5138 42.7292 18.2038 46.2952 17.1998C46.4032 16.7798 46.4152 16.3548 46.4032 15.9198C46.3482 14.0498 45.4672 12.7548 44.9072 11.2278C44.7742 10.8258 44.9112 10.3318 45.2262 10.0298C45.4762 9.77282 46.0142 9.48983 46.4502 9.60682C46.8762 9.67982 47.1692 10.0208 47.3962 10.3208C48.2062 11.5628 49.1022 12.2798 50.7992 12.2788C52.0652 12.3218 53.3512 12.2368 54.3662 11.5708C55.0052 10.8428 55.7352 10.0548 56.6892 9.79782C57.1522 9.70582 57.5212 9.80182 57.8382 10.0838C58.1342 10.3818 58.2102 10.8318 58.0482 11.2318C57.7552 11.9808 56.7102 12.7038 55.9702 13.4858C54.7562 14.7738 53.8672 16.3428 53.2462 18.0138C53.6282 17.8958 54.1602 17.7698 54.6512 17.8638C56.0632 18.1288 56.5112 19.4788 56.5912 20.7638C56.6172 21.1678 56.6052 21.5998 56.5452 22.0168C57.3552 21.8908 57.8702 21.5898 58.4772 21.2788C59.5142 20.6988 60.3752 19.8458 61.2062 19.0358C61.5742 18.6978 62.1312 18.5758 62.5492 18.7308C62.8782 18.8278 63.1492 19.1188 63.2072 19.4788C63.3542 20.4518 62.4812 20.7568 61.2302 22.6468C60.5322 23.7048 59.7392 24.8038 59.6052 26.0998C59.5925 26.2119 59.6033 26.3254 59.6367 26.4331C59.67 26.5409 59.7254 26.6405 59.7992 26.7258C60.0852 26.9628 60.5592 26.8378 60.8662 26.6608C61.5082 26.3058 62.0222 25.7318 62.4012 25.1428C62.9532 23.1358 63.7452 21.2298 65.3592 19.8348C65.7682 19.5288 66.2632 19.2388 66.7992 19.3568C67.0862 19.4068 67.3212 19.6128 67.3792 19.8418C67.7012 20.7998 67.0392 22.0498 66.5812 22.8518C65.9932 23.8858 65.0422 24.8788 64.2292 25.7898C64.2082 26.2678 64.3162 26.5758 64.6892 26.6698C65.2552 26.7428 65.7032 26.3228 66.1442 25.9698C67.3732 24.8288 68.5352 23.4928 69.2622 21.9628C69.1422 20.5848 69.6162 18.9998 70.8522 18.2728C71.2712 18.0638 71.7582 18.0858 72.0942 18.3128C72.4372 18.5748 72.4492 19.0728 72.3842 19.4968C72.2862 19.9938 72.0042 20.3868 71.7552 20.8178C72.4412 20.8618 73.0442 20.5408 73.6772 20.3828C73.7999 20.351 73.9285 20.3498 74.0517 20.3793C74.175 20.4088 74.2891 20.468 74.3842 20.5518C74.7142 20.8618 74.7462 21.2648 74.5802 21.6648C74.2332 22.3998 73.7632 22.7948 73.2652 23.4858C72.5792 24.4398 71.9532 25.7218 71.9312 26.6828C71.9352 26.9088 72.0302 27.0648 72.1852 27.1298C72.5532 27.2598 72.8722 26.9858 73.1782 26.8008C75.3022 25.1998 76.9282 22.9138 78.6912 21.0138C79.1532 20.5838 79.6812 20.1418 80.3312 20.3468C80.5592 20.4268 80.7372 20.6068 80.7972 20.8508C80.8962 21.3108 80.6252 21.8878 80.3352 22.2738C79.4552 23.6118 78.2752 25.1338 78.2302 26.7158C78.2372 26.9918 78.3232 27.0858 78.4502 27.1258C78.9622 27.2728 79.5762 26.7518 80.0362 26.3268C81.5822 24.9118 82.6152 23.1118 83.7822 21.4528C84.0102 21.0948 84.3592 20.7998 84.7832 20.7528C85.0792 20.7358 85.3242 20.8148 85.5162 21.0128C86.0262 21.7298 85.5992 22.7988 85.2412 23.4858C83.6692 26.4408 82.0092 29.4298 80.3532 32.4458C79.5192 33.8978 79.0602 34.7148 79.0102 35.8448C78.9622 35.9748 78.8432 36.0388 78.6662 35.9748C77.7272 35.6278 77.3542 35.0498 77.3462 34.3548C77.3402 33.7398 77.8892 32.8678 78.0962 32.4608C78.9082 30.8658 80.0092 29.1808 80.7762 27.5858C80.6672 27.6738 80.4692 27.8738 80.2962 28.0158C79.2732 28.8458 78.3042 29.9118 76.9322 29.7248C76.4842 29.6448 76.0872 29.1918 75.9642 28.7388C75.7442 27.9718 75.8842 26.8738 76.1162 26.0888L76.0322 26.1718C74.8622 27.4128 73.6012 28.7958 72.0222 29.5698C71.5382 29.7898 70.7002 29.9478 70.2122 29.5088C69.2882 28.5588 69.5122 26.8698 70.0172 25.6318C70.4222 24.6158 70.9812 23.6658 71.5892 22.7698C71.1412 22.9068 70.7392 22.9708 70.2892 22.9748L70.1372 23.1948C68.7032 25.3338 67.3472 27.7418 65.2302 29.2208C64.5072 29.7278 63.5502 29.7688 62.9502 29.3868C62.4442 29.0618 62.2382 28.4718 62.0932 27.9268C61.0312 28.7308 59.1852 30.1388 57.9032 29.5128C57.1332 29.1028 56.8012 28.2348 56.8372 27.3558C56.8672 26.0878 57.4272 24.7788 57.9362 23.6418C57.7402 23.7338 57.6362 23.7738 57.4332 23.8648C56.9432 24.0848 56.4402 24.2388 55.9402 24.4258C55.5732 25.4578 54.7952 26.9088 54.3662 27.4888C53.7332 28.4578 52.4732 29.6788 51.3322 29.7138C50.4282 29.7758 49.6342 29.3578 49.2032 28.6088C48.1802 26.9568 48.6572 24.6988 49.0652 22.7548C49.8002 19.8388 50.9692 17.1278 52.3502 14.5798C51.9052 14.6368 51.5552 14.6618 51.1102 14.6878C50.3162 14.7378 49.7082 14.8128 48.8492 14.6438C48.9112 19.3038 47.6822 24.1058 44.6142 27.7818C43.7442 28.8218 42.3462 29.9158 40.8182 29.6778C39.8492 29.5338 39.1382 28.5518 39.0012 27.6628C38.3172 28.8328 37.0122 30.2388 35.1272 29.2068C34.0102 28.5918 33.9932 28.0398 33.9142 26.8168C33.9142 26.8168 31.5542 30.3808 28.4542 29.5438C27.0562 29.1548 25.8572 27.7698 26.5982 25.5628C22.7462 28.5228 18.4142 30.4478 14.5662 30.5138C9.25217 30.6078 4.56617 28.4468 2.29017 24.8368C-0.835826 19.8788 1.14417 12.9238 5.14717 8.51982C9.14717 4.11382 13.6872 2.28482 16.6362 1.32482C24.8162 -1.34018 31.8362 0.388825 34.7442 3.21482Z" fill="white"/>
</g>
<defs>
<clipPath id="clip0_9279_7138">
<rect width="85" height="36" fill="white" transform="translate(0.751221)"/>
</clipPath>
</defs>
</svg>
