<svg width="87" height="18" viewBox="0 0 87 18" fill="none" xmlns="http://www.w3.org/2000/svg">
<g clip-path="url(#clip0_9279_7141)">
<path d="M7.53122 12.81C8.90722 15.085 11.4332 16.611 14.2432 16.611C18.3962 16.611 20.6832 12.999 20.6832 12.999L20.9772 13.962C19.0542 16.482 15.6192 18 11.7772 18C7.35222 18 3.53722 15.873 1.78122 12.805C1.11022 11.6489 0.755009 10.3367 0.751221 9C0.751221 4.03 5.68722 0 11.7762 0C16.0792 0 19.5432 1.858 21.3622 4.55L14.1422 8.907L18.2622 2.53C17.0842 1.783 15.6382 1.083 14.1422 1.083C9.91522 1.083 6.43422 4.638 6.43422 8.898C6.43422 10.326 6.83622 11.667 7.53022 12.809L7.53122 12.81ZM26.8612 12.807C26.8397 12.9523 26.829 13.0991 26.8292 13.246C26.8292 14.863 28.1292 16.174 29.7342 16.174C31.3392 16.174 32.6392 14.864 32.6392 13.246C32.6412 12.8629 32.5676 12.4831 32.4226 12.1285C32.2776 11.7739 32.064 11.4513 31.7942 11.1793C31.5243 10.9073 31.2035 10.6913 30.85 10.5435C30.4965 10.3957 30.1174 10.319 29.7342 10.318C29.0367 10.3202 28.363 10.5725 27.8358 11.0293C27.3086 11.4861 26.9628 12.1169 26.8612 12.807ZM37.6412 12.805L39.0862 17.707H34.0202L33.0252 14.351C32.3582 16.285 30.1072 17.707 27.4332 17.707C24.2342 17.707 21.6412 15.671 21.6412 13.159C21.6412 13.041 21.6472 12.924 21.6582 12.805C21.8862 10.46 24.3842 8.61 27.4332 8.61C29.1632 8.61 30.7172 9.206 31.7792 10.15L30.3992 5.502H24.5862C24.5862 5.502 25.5532 4.917 29.8422 3.344C34.1322 1.771 35.4902 5.502 35.4902 5.502L37.6412 12.805ZM53.8362 12.805V17.707H48.6242V6.937C48.6255 6.55808 48.4764 6.19413 48.2096 5.92507C47.9428 5.65602 47.5801 5.50385 47.2012 5.502C46.6142 5.502 46.0872 5.864 45.8742 6.416V17.707H40.7582V5.502H37.7752C37.7752 5.502 41.9252 2.968 43.3652 2.968C44.7282 2.968 45.7382 4.024 45.8642 5.368C47.8712 4.278 49.8612 2.968 51.2302 2.968C51.9114 2.97066 52.5648 3.23885 53.0514 3.71557C53.538 4.19229 53.8196 4.83998 53.8362 5.521V12.805ZM61.8652 12.805L62.5902 15.221C62.5973 15.7185 62.8002 16.1932 63.155 16.5421C63.5097 16.8911 63.9876 17.0861 64.4852 17.085C64.757 17.084 65.0254 17.0255 65.2729 16.9133C65.5204 16.8012 65.7414 16.6379 65.9213 16.4343C66.1012 16.2307 66.236 15.9913 66.3169 15.7318C66.3977 15.4724 66.4227 15.1988 66.3902 14.929L65.7742 12.805L63.6082 5.346C63.5573 4.87549 63.3348 4.44024 62.9831 4.12349C62.6315 3.80673 62.1755 3.63068 61.7022 3.629C60.7242 3.629 59.7922 4.549 59.6742 5.501L61.8652 12.805ZM70.1592 12.806C69.1722 15.823 66.3532 18 63.0292 18C59.7062 18 56.8872 15.823 55.8992 12.805C55.6493 12.0399 55.5223 11.2399 55.5232 10.435C55.5232 6.257 58.8832 2.87 63.0292 2.87C67.1752 2.87 70.5352 6.257 70.5352 10.435C70.5352 11.263 70.4032 12.06 70.1592 12.806ZM78.7892 12.806V17.707H73.6732V5.502H70.8132C70.8132 5.502 74.8402 2.968 76.2792 2.968C77.6432 2.968 78.6522 4.024 78.7792 5.368C80.7862 4.278 82.7762 2.968 84.1452 2.968C84.8263 2.9704 85.4797 3.23837 85.9663 3.71493C86.453 4.19149 86.7346 4.83907 86.7512 5.52V17.706H81.5392V6.937C81.5406 6.55791 81.3913 6.19381 81.1243 5.92472C80.8573 5.65564 80.4943 5.50359 80.1152 5.502C79.5282 5.502 79.0022 5.864 78.7882 6.416L78.7892 12.806Z" fill="white"/>
</g>
<defs>
<clipPath id="clip0_9279_7141">
<rect width="86" height="18" fill="white" transform="translate(0.751221)"/>
</clipPath>
</defs>
</svg>
