<?xml version="1.0" encoding="UTF-8"?>
<svg id="Layer_1" data-name="Layer 1" xmlns="http://www.w3.org/2000/svg" viewBox="0 0 96.64 33.31">
  <defs>
    <style>
      .cls-1 {
        fill: #fff;
        stroke-width: 0px;
      }
    </style>
  </defs>
  <path class="cls-1" d="m3.48,5.74h9.86c1.94,0,3.51.26,4.71.79s2.19,1.28,2.97,2.27,1.35,2.13,1.7,3.44.53,2.7.53,4.16c0,2.29-.26,4.07-.78,5.34s-1.25,2.32-2.18,3.18-1.92,1.42-2.99,1.71c-1.46.39-2.77.59-3.96.59H3.48V5.74Zm6.64,4.86v11.73h1.63c1.39,0,2.37-.15,2.96-.46s1.04-.84,1.38-1.61.5-2.01.5-3.73c0-2.28-.37-3.83-1.11-4.67s-1.97-1.26-3.69-1.26h-1.66Z"/>
  <path class="cls-1" d="m26.74,5.74h12.42c2.07,0,3.66.51,4.77,1.54s1.66,2.29,1.66,3.81c0,1.27-.4,2.36-1.19,3.27-.53.61-1.3,1.08-2.31,1.44,1.54.37,2.68,1.01,3.41,1.91s1.09,2.04,1.09,3.41c0,1.11-.26,2.11-.78,3s-1.23,1.59-2.12,2.11c-.56.32-1.4.56-2.52.7-1.49.2-2.49.29-2.97.29h-11.46V5.74Zm6.69,8.42h2.89c1.04,0,1.76-.18,2.16-.53s.61-.87.61-1.55c0-.62-.2-1.11-.61-1.46s-1.11-.53-2.12-.53h-2.93v4.07Zm0,8.44h3.38c1.14,0,1.95-.2,2.42-.61s.7-.95.7-1.63c0-.63-.23-1.15-.7-1.53s-1.28-.58-2.44-.58h-3.37v4.35Z"/>
  <path class="cls-1" d="m50.1,5.74h6.2l8.09,11.88V5.74h6.25v21.47h-6.25l-8.04-11.79v11.79h-6.24V5.74Z"/>
  <path class="cls-1" d="m75.03,5.74h17.78v4.58h-11.13v3.41h10.33v4.38h-10.33v4.23h11.46v4.86h-18.11V5.74Z"/>
</svg>