<?xml version="1.0" encoding="UTF-8"?>
<svg id="Layer_1" data-name="Layer 1" xmlns="http://www.w3.org/2000/svg" viewBox="0 0 96.64 33.31">
  <defs>
    <style>
      .cls-1 {
        stroke-width: 0px;
      }
    </style>
  </defs>
  <path class="cls-1" d="m3.58,20.11l6.31-.4c.14,1.03.42,1.81.83,2.34.68.87,1.66,1.3,2.93,1.3.95,0,1.68-.22,2.19-.67s.77-.96.77-1.55-.24-1.05-.73-1.49-1.62-.85-3.4-1.25c-2.91-.65-4.99-1.52-6.23-2.61-1.25-1.08-1.88-2.47-1.88-4.15,0-1.1.32-2.15.96-3.13s1.6-1.75,2.89-2.31,3.04-.84,5.28-.84c2.74,0,4.84.51,6.28,1.53s2.3,2.64,2.57,4.87l-6.25.37c-.17-.97-.52-1.67-1.05-2.11s-1.27-.66-2.2-.66c-.77,0-1.35.16-1.74.49s-.59.73-.59,1.19c0,.34.16.65.48.92.31.28,1.05.55,2.23.79,2.9.62,4.98,1.26,6.23,1.9s2.17,1.43,2.74,2.38.86,2.01.86,3.18c0,1.38-.38,2.65-1.14,3.81s-1.83,2.04-3.19,2.64-3.09.9-5.17.9c-3.65,0-6.18-.7-7.59-2.11s-2.2-3.19-2.39-5.36Z"/>
  <path class="cls-1" d="m26.42,5.74h12.42c2.07,0,3.66.51,4.77,1.54s1.66,2.29,1.66,3.81c0,1.27-.4,2.36-1.19,3.27-.53.61-1.3,1.08-2.31,1.44,1.54.37,2.68,1.01,3.41,1.91s1.09,2.04,1.09,3.41c0,1.11-.26,2.11-.78,3s-1.23,1.59-2.12,2.11c-.56.32-1.4.56-2.52.7-1.49.2-2.49.29-2.97.29h-11.46V5.74Zm6.69,8.42h2.89c1.04,0,1.76-.18,2.16-.53s.61-.87.61-1.55c0-.62-.2-1.11-.61-1.46s-1.11-.53-2.12-.53h-2.93v4.07Zm0,8.44h3.38c1.14,0,1.95-.2,2.42-.61s.7-.95.7-1.63c0-.63-.23-1.15-.7-1.53s-1.28-.58-2.44-.58h-3.37v4.35Z"/>
  <path class="cls-1" d="m49.73,5.74h17.78v4.58h-11.13v3.41h10.33v4.38h-10.33v4.23h11.46v4.86h-18.11V5.74Z"/>
  <path class="cls-1" d="m69.94,5.74h7.31l3.8,6.61,3.7-6.61h7.24l-6.68,10.4,7.31,11.07h-7.46l-4.24-6.9-4.24,6.9h-7.41l7.41-11.19-6.73-10.28Z"/>
</svg>