<?xml version="1.0" encoding="utf-8"?>
<!-- Generator: Adobe Illustrator 28.0.0, SVG Export Plug-In . SVG Version: 6.00 Build 0)  -->
<svg version="1.1" id="Layer_1" xmlns="http://www.w3.org/2000/svg" xmlns:xlink="http://www.w3.org/1999/xlink" x="0px" y="0px"
	 viewBox="0 0 96.6 33.3" style="enable-background:new 0 0 96.6 33.3;" xml:space="preserve">
<style type="text/css">
	.st0{fill:#CA3310;}
</style>
<path class="st0" d="M3.6,20.1l6.3-0.4c0.1,1,0.4,1.8,0.8,2.3c0.7,0.9,1.7,1.3,2.9,1.3c0.9,0,1.7-0.2,2.2-0.7s0.8-1,0.8-1.5
	s-0.2-1-0.7-1.5s-1.6-0.9-3.4-1.2c-2.9-0.6-5-1.5-6.2-2.6c-1.2-1.1-1.9-2.5-1.9-4.2c0-1.1,0.3-2.1,1-3.1s1.6-1.8,2.9-2.3
	s3-0.8,5.3-0.8c2.7,0,4.8,0.5,6.3,1.5s2.3,2.6,2.6,4.9l-6.2,0.4c-0.2-1-0.5-1.7-1.1-2.1s-1.3-0.7-2.2-0.7c-0.8,0-1.4,0.2-1.7,0.5
	s-0.6,0.7-0.6,1.2c0,0.3,0.2,0.6,0.5,0.9c0.3,0.3,1.1,0.6,2.2,0.8c2.9,0.6,5,1.3,6.2,1.9s2.2,1.4,2.7,2.4s0.9,2,0.9,3.2
	c0,1.4-0.4,2.6-1.1,3.8s-1.8,2-3.2,2.6s-3.1,0.9-5.2,0.9c-3.6,0-6.2-0.7-7.6-2.1S3.8,22.3,3.6,20.1L3.6,20.1z"/>
<path class="st0" d="M26.4,5.7h12.4c2.1,0,3.7,0.5,4.8,1.5s1.7,2.3,1.7,3.8c0,1.3-0.4,2.4-1.2,3.3c-0.5,0.6-1.3,1.1-2.3,1.4
	c1.5,0.4,2.7,1,3.4,1.9s1.1,2,1.1,3.4c0,1.1-0.3,2.1-0.8,3s-1.2,1.6-2.1,2.1c-0.6,0.3-1.4,0.6-2.5,0.7c-1.5,0.2-2.5,0.3-3,0.3H26.4
	C26.4,27.2,26.4,5.7,26.4,5.7z M33.1,14.2H36c1,0,1.8-0.2,2.2-0.5s0.6-0.9,0.6-1.6c0-0.6-0.2-1.1-0.6-1.5S37,10.1,36,10.1h-2.9V14.2
	z M33.1,22.6h3.4c1.1,0,2-0.2,2.4-0.6s0.7-1,0.7-1.6c0-0.6-0.2-1.1-0.7-1.5s-1.3-0.6-2.4-0.6h-3.4L33.1,22.6L33.1,22.6z"/>
<path class="st0" d="M49.7,5.7h17.8v4.6H56.4v3.4h10.3v4.4H56.4v4.2h11.5v4.9H49.7C49.7,27.2,49.7,5.7,49.7,5.7z"/>
<path class="st0" d="M69.9,5.7h7.3l3.8,6.6l3.7-6.6H92l-6.7,10.4l7.3,11.1h-7.5l-4.2-6.9l-4.2,6.9h-7.4L76.7,16L69.9,5.7L69.9,5.7z"
	/>
</svg>
