<svg width="40" height="40" viewBox="0 0 40 40" fill="none" xmlns="http://www.w3.org/2000/svg">
<path fill-rule="evenodd" clip-rule="evenodd" d="M32.5962 14.058L21.4998 19.6058V32.9901L32.0435 27.7192L32.1646 27.6469C32.4323 27.462 32.5961 27.1559 32.5962 26.8246V14.058ZM18.4998 32.9894V19.6051L7.40479 14.058V26.8246C7.4049 27.2033 7.61882 27.5498 7.95752 27.7192L18.4998 32.9894ZM20.4478 6.48381L30.7418 11.6308L20.0005 17.0019L9.25915 11.6308L19.5532 6.48381L19.6606 6.43791C19.9166 6.34537 20.2013 6.3606 20.4478 6.48381ZM33.6333 30.267C34.8439 29.5511 35.5961 28.245 35.5962 26.8246V13.1762C35.5962 11.7558 34.8439 10.4498 33.6333 9.73381L33.3853 9.59807L21.7896 3.80022C20.7339 3.27241 19.5029 3.2398 18.4253 3.70158L18.2114 3.80022L6.61572 9.59807C5.26062 10.2756 4.40479 11.6611 4.40479 13.1762V26.8246C4.4049 28.3395 5.26083 29.7242 6.61572 30.4018L18.2114 36.1996L18.4253 36.2983C19.5029 36.7601 20.7338 36.7275 21.7896 36.1996L33.3853 30.4018L33.6333 30.267Z" fill="#7A5AF8"/>
</svg>
