<svg width="40" height="40" viewBox="0 0 40 40" fill="none" xmlns="http://www.w3.org/2000/svg">
<path fill-rule="evenodd" clip-rule="evenodd" d="M14.2708 30.0755C14.1947 28.19 12.9481 26.4182 11.2669 24.7764C8.94425 22.508 7.5 19.3382 7.5 15.8332C7.5 8.92972 13.0964 3.33337 19.9998 3.33337C26.9032 3.33337 32.4995 8.92972 32.4995 15.8332C32.4995 19.3379 31.0555 22.5077 28.7332 24.7759C26.998 26.4707 25.7258 28.3037 25.7258 30.2574V32.9167C25.7258 34.9877 24.047 36.6667 21.9758 36.6667H18.0208C15.9498 36.6667 14.2708 34.9877 14.2708 32.9167V30.0755ZM10 15.8332C10 10.3104 14.4771 5.83337 19.9998 5.83337C25.5225 5.83337 29.9995 10.3104 29.9995 15.8332C29.9995 18.6374 28.847 21.1702 26.9863 22.9875C25.751 24.194 24.467 25.7095 23.7648 27.5H16.2353C15.5331 25.7097 14.2489 24.1942 13.0136 22.9879C11.1528 21.1705 10 18.6375 10 15.8332ZM16.7708 30.3549C16.7733 30.323 16.7745 30.2907 16.7745 30.2582C16.7745 30.1814 16.7733 30.105 16.7708 30.0292V30H23.2258V32.9167C23.2258 33.607 22.6663 34.1667 21.9758 34.1667H18.0208C17.3305 34.1667 16.7708 33.607 16.7708 32.9167V30.3549Z" fill="white"/>
<path d="M10 15.8332C10 10.3104 14.4771 5.83337 19.9998 5.83337C25.5225 5.83337 29.9995 10.3104 29.9995 15.8332C29.9995 18.6374 28.847 21.1702 26.9863 22.9875C25.751 24.194 24.467 25.7095 23.7648 27.5H16.2353C15.5331 25.7097 14.2489 24.1942 13.0136 22.9879C11.1528 21.1705 10 18.6375 10 15.8332Z" fill="white"/>
<path d="M2.08301 15.8334C2.08301 15.143 2.64266 14.5834 3.33301 14.5834H4.99967C5.69002 14.5834 6.24967 15.143 6.24967 15.8334C6.24967 16.5237 5.69002 17.0834 4.99967 17.0834H3.33301C2.64266 17.0834 2.08301 16.5237 2.08301 15.8334Z" fill="white"/>
<path d="M6.19112 6.41744C5.59326 6.07225 4.82877 6.2771 4.48359 6.87497C4.13842 7.47283 4.34326 8.23732 4.94112 8.5825L6.38451 9.41583C6.98237 9.76102 7.74686 9.55617 8.09204 8.9583C8.43721 8.36043 8.23237 7.59595 7.63451 7.25077L6.19112 6.41744Z" fill="white"/>
<path d="M4.48359 24.7916C4.13842 24.1938 4.34326 23.4293 4.94112 23.0841L6.38451 22.2508C6.98237 21.9056 7.74686 22.1105 8.09204 22.7083C8.43721 23.3061 8.23237 24.0706 7.63451 24.4158L6.19112 25.2491C5.59326 25.5943 4.82877 25.3895 4.48359 24.7916Z" fill="white"/>
<path d="M35 14.5834C34.3097 14.5834 33.75 15.143 33.75 15.8334C33.75 16.5237 34.3097 17.0834 35 17.0834H36.6667C37.357 17.0834 37.9167 16.5237 37.9167 15.8334C37.9167 15.143 37.357 14.5834 36.6667 14.5834H35Z" fill="white"/>
<path d="M31.9089 22.7083C32.254 22.1105 33.0186 21.9056 33.6164 22.2508L35.0597 23.0841C35.6577 23.4293 35.8626 24.1938 35.5174 24.7916C35.1722 25.3895 34.4077 25.5943 33.8097 25.2491L32.3664 24.4158C31.7686 24.0706 31.5637 23.3061 31.9089 22.7083Z" fill="white"/>
<path d="M32.3664 7.25077C31.7686 7.59595 31.5637 8.36043 31.9089 8.9583C32.254 9.55617 33.0186 9.76102 33.6164 9.41583L35.0597 8.5825C35.6577 8.23732 35.8626 7.47283 35.5174 6.87497C35.1722 6.2771 34.4077 6.07225 33.8097 6.41744L32.3664 7.25077Z" fill="white"/>
</svg>
