<svg width="40" height="40" viewBox="0 0 40 40" fill="none" xmlns="http://www.w3.org/2000/svg">
<path d="M20.0002 3.33337C29.2049 3.33355 36.6663 10.7957 36.6663 20.0004C36.6661 29.2048 29.2048 36.6662 20.0002 36.6664H4.58324C4.07769 36.6664 3.62145 36.3621 3.42797 35.8949C3.23467 35.428 3.34203 34.89 3.69946 34.5326L7.36352 30.8685C4.85248 27.9514 3.33332 24.1522 3.33324 20.0004C3.33324 10.7956 10.7955 3.33337 20.0002 3.33337ZM25.0745 20.5599C24.5345 20.13 23.7476 20.2202 23.3176 20.7601C22.5391 21.7377 21.3429 22.3607 20.0002 22.3607C18.6574 22.3607 17.4604 21.7379 16.6819 20.7601C16.2519 20.2202 15.4661 20.1302 14.926 20.5599C14.3859 20.9899 14.2968 21.7768 14.7268 22.3168C15.9592 23.8647 17.8636 24.8607 20.0002 24.8607C22.1367 24.8607 24.0414 23.8648 25.2737 22.3168C25.7036 21.7768 25.6146 20.9899 25.0745 20.5599ZM15.8411 13.1254C14.6905 13.1254 13.758 14.0578 13.758 15.2084C13.7581 16.359 14.6905 17.2914 15.8411 17.2914C16.9916 17.2913 17.924 16.3589 17.9241 15.2084C17.9241 14.0578 16.9916 13.1255 15.8411 13.1254ZM24.1594 13.1254C23.0087 13.1254 22.0764 14.0578 22.0764 15.2084C22.0764 16.359 23.0088 17.2914 24.1594 17.2914C25.31 17.2913 26.2424 16.3589 26.2424 15.2084C26.2424 14.0578 25.31 13.1255 24.1594 13.1254Z" fill="white"/>
</svg>
