<svg width="40" height="40" viewBox="0 0 40 40" fill="none" xmlns="http://www.w3.org/2000/svg">
<path fill-rule="evenodd" clip-rule="evenodd" d="M20.0002 6.25C20.3607 6.25 20.7037 6.40565 20.941 6.67702L27.8528 14.5787L34.6252 9.03498C35.0195 8.71218 35.5702 8.66108 36.0172 8.90583C36.4642 9.15058 36.7178 9.64218 36.6583 10.1483L34.418 29.1882C34.1958 31.0767 32.5953 32.5 30.6938 32.5H9.30663C7.40508 32.5 5.80451 31.0767 5.58231 29.1882L3.34209 10.1483C3.28254 9.64218 3.53619 9.15058 3.98318 8.90583C4.43016 8.66108 4.98098 8.71218 5.37531 9.03498L12.1475 14.5787L19.0593 6.67702C19.2967 6.40565 19.6397 6.25 20.0002 6.25ZM20.0002 9.39857L13.2327 17.1352C12.7887 17.6428 12.022 17.7067 11.5001 17.2795L6.18663 12.9299L7.43654 23.5532H32.5638L33.8138 12.9299L28.5003 17.2795C27.9785 17.7067 27.2117 17.6428 26.7677 17.1352L20.0002 9.39857ZM32.2697 26.0532H7.73069L8.06519 28.896C8.13926 29.5255 8.67278 30 9.30663 30H30.6938C31.3277 30 31.8612 29.5255 31.9352 28.896L32.2697 26.0532Z" fill="white"/>
<path d="M20.0002 9.39857L13.2327 17.1352C12.7887 17.6428 12.022 17.7067 11.5001 17.2795L6.18663 12.9299L7.43654 23.5532H32.5638L33.8138 12.9299L28.5003 17.2795C27.9785 17.7067 27.2117 17.6428 26.7677 17.1352L20.0002 9.39857Z" fill="white"/>
</svg>
