<svg width="41" height="40" viewBox="0 0 41 40" fill="none" xmlns="http://www.w3.org/2000/svg">
<path fill-rule="evenodd" clip-rule="evenodd" d="M10.9839 16.5013V33.9167H30.4839V6.08374H21.3971L21.4028 13.4993C21.4039 15.1569 20.0604 16.5013 18.4028 16.5013H10.9839ZM18.4028 13.5013H13.1024L18.3988 8.20217L18.4028 13.5013ZM7.98389 15.6208C7.98396 14.8257 8.29979 14.0632 8.86182 13.5007L18.394 3.96265C18.9567 3.39979 19.7203 3.08374 20.5161 3.08374H30.4839C32.1407 3.08374 33.4839 4.42689 33.4839 6.08374V33.9167C33.4839 35.5736 32.1407 36.9167 30.4839 36.9167H10.9839C9.32703 36.9167 7.98389 35.5736 7.98389 33.9167V15.6208ZM25.7339 22.6667L25.8872 22.6746C26.6436 22.7514 27.2339 23.3901 27.2339 24.1667C27.2339 24.9434 26.6436 25.5821 25.8872 25.6589L25.7339 25.6667H15.7339C14.9055 25.6667 14.2339 24.9952 14.2339 24.1667C14.2339 23.3383 14.9055 22.6667 15.7339 22.6667H25.7339ZM20.7339 27.6667L20.8872 27.6746C21.6436 27.7514 22.2339 28.3901 22.2339 29.1667C22.2339 29.9434 21.6436 30.5821 20.8872 30.6589L20.7339 30.6667H15.7339C14.9055 30.6667 14.2339 29.9952 14.2339 29.1667C14.2339 28.3383 14.9055 27.6667 15.7339 27.6667H20.7339Z" fill="#7A5AF8"/>
</svg>
