<svg width="40" height="40" viewBox="0 0 40 40" fill="none" xmlns="http://www.w3.org/2000/svg">
<path fill-rule="evenodd" clip-rule="evenodd" d="M21.737 3.39262C22.255 3.55808 22.6067 4.03952 22.6067 4.58333V15.358H32.0245C32.4923 15.358 32.921 15.6193 33.1355 16.0351C33.3498 16.4508 33.3142 16.9514 33.043 17.3328L19.6615 36.1412C19.3463 36.5844 18.7807 36.7729 18.2627 36.6074C17.7447 36.4419 17.393 35.9604 17.393 35.4167V24.6419H7.97511C7.50729 24.6419 7.07864 24.3807 6.86419 23.9649C6.64972 23.5492 6.68537 23.0486 6.95657 22.6674L20.338 3.8587C20.6533 3.41558 21.2188 3.22713 21.737 3.39262ZM10.3985 22.1419H18.643C18.9745 22.1419 19.2925 22.2738 19.5268 22.5081C19.7613 22.7426 19.893 23.0604 19.893 23.3919V31.5034L29.6012 17.8581H21.3567C20.6662 17.8581 20.1067 17.2984 20.1067 16.6081V8.49655L10.3985 22.1419Z" fill="white"/>
<path d="M10.3985 22.1419H18.643C18.9745 22.1419 19.2925 22.2738 19.5268 22.5081C19.7613 22.7426 19.893 23.0604 19.893 23.3919V31.5034L29.6012 17.8581H21.3567C20.6662 17.8581 20.1067 17.2984 20.1067 16.6081V8.49655L10.3985 22.1419Z" fill="white"/>
</svg>
