<svg width="40" height="40" viewBox="0 0 40 40" fill="none" xmlns="http://www.w3.org/2000/svg">
<path d="M25.9018 5.41671H9.1665C7.09544 5.41671 5.4165 7.09564 5.4165 9.16671V30.8334C5.4165 32.9044 7.09544 34.5834 9.1665 34.5834H30.8332C32.9042 34.5834 34.5832 32.9044 34.5832 30.8334V14.0971L28.9824 19.6978C27.9746 20.7057 26.6525 21.3388 25.2354 21.4922L22.3238 21.8072C21.195 21.9293 20.0716 21.5335 19.2688 20.7306C18.4659 19.9277 18.0701 18.8044 18.1922 17.6755L18.5072 14.764C18.6606 13.3469 19.2937 12.0248 20.3015 11.0169L25.9018 5.41671Z" fill="white"/>
<path d="M34.7911 4.18764C33.6521 3.04861 31.8054 3.04862 30.6663 4.18765L29.5238 5.33025L34.6691 10.4756L35.8117 9.33301C36.9508 8.19399 36.9508 6.34725 35.8117 5.20822L34.7911 4.18764Z" fill="white"/>
<path d="M32.9014 12.2434L27.756 7.09801L22.0693 12.7847C21.4646 13.3894 21.0847 14.1827 20.9927 15.0329L20.6777 17.9445C20.637 18.3208 20.7689 18.6952 21.0365 18.9628C21.3042 19.2305 21.6786 19.3624 22.0549 19.3217L24.9664 19.0067C25.8167 18.9147 26.6099 18.5348 27.2147 17.9301L32.9014 12.2434Z" fill="white"/>
</svg>
