<svg width="40" height="40" viewBox="0 0 40 40" fill="none" xmlns="http://www.w3.org/2000/svg">
<path d="M20 3.33337C20.6902 3.33355 21.25 3.89313 21.25 4.58337V7.50037H30.416C32.487 7.50037 34.166 9.1793 34.166 11.2504V15.4164H34.583C35.7337 15.4164 36.666 16.3498 36.666 17.5004V22.5004C36.6658 23.6509 35.7336 24.5834 34.583 24.5834H34.166V28.7504C34.1658 30.8212 32.4869 32.5004 30.416 32.5004H9.58301C7.51205 32.5004 5.83318 30.8212 5.83301 28.7504V24.5834H5.41602C4.26567 24.5832 3.33318 23.6508 3.33301 22.5004V17.5004C3.33301 16.3499 4.26557 15.4166 5.41602 15.4164H5.83301V11.2504C5.83301 9.1793 7.51194 7.50037 9.58301 7.50037H18.75V4.58337C18.75 3.89302 19.3097 3.33337 20 3.33337ZM25.0742 21.8099C24.5342 21.3801 23.7473 21.4702 23.3174 22.0101C22.5389 22.9877 21.3426 23.6107 20 23.6107C18.6574 23.6107 17.461 22.9877 16.6826 22.0101C16.2526 21.4702 15.4659 21.3802 14.9258 21.8099C14.3857 22.2399 14.2966 23.0268 14.7266 23.5668C15.9589 25.1147 17.8636 26.1107 20 26.1107C22.1364 26.1107 24.0411 25.1147 25.2734 23.5668C25.7034 23.0268 25.6144 22.2399 25.0742 21.8099ZM15.8408 14.3754C14.6902 14.3754 13.7578 15.3078 13.7578 16.4584C13.7578 17.609 14.6902 18.5414 15.8408 18.5414C16.9914 18.5413 17.9238 17.609 17.9238 16.4584C17.9238 15.3078 16.9914 14.3755 15.8408 14.3754ZM24.1592 14.3754C23.0085 14.3754 22.0762 15.3078 22.0762 16.4584C22.0762 17.609 23.0085 18.5414 24.1592 18.5414C25.3096 18.5413 26.2422 17.609 26.2422 16.4584C26.2422 15.3078 25.3096 14.3755 24.1592 14.3754Z" fill="white"/>
</svg>
